Kufam-SemiBoldItalic.ufo
<glyph name="exclam" format="2">
  <advance width="323.2"/>
  <unicode hex="0021"/>
  <note>
exclam
</note>
  <outline>
    <contour>
      <point x="98.4" y="232.0" type="curve"/>
      <point x="213.6" y="232.0" type="line"/>
      <point x="227.2" y="269.6"/>
      <point x="248.0" y="346.2"/>
      <point x="267.2" y="444.8" type="curve" smooth="yes"/>
      <point x="290.4" y="564.0" type="line" smooth="yes"/>
      <point x="297.6" y="599.8"/>
      <point x="311.4" y="674.4"/>
      <point x="326.4" y="710.4" type="curve"/>
      <point x="324.8" y="720.0" type="line"/>
      <point x="180.0" y="720.0" type="line"/>
      <point x="127.2" y="444.8" type="line" smooth="yes"/>
      <point x="109.2" y="352.2"/>
      <point x="100.8" y="281.6"/>
    </contour>
    <contour>
      <point x="114.0" y="-9.6" type="curve" smooth="yes"/>
      <point x="168.0" y="-9.6"/>
      <point x="208.8" y="35.2"/>
      <point x="208.8" y="88.8" type="curve" smooth="yes"/>
      <point x="208.8" y="128.8"/>
      <point x="181.2" y="155.2"/>
      <point x="138.0" y="155.2" type="curve" smooth="yes"/>
      <point x="82.4" y="155.2"/>
      <point x="43.2" y="110.4"/>
      <point x="43.2" y="56.8" type="curve" smooth="yes"/>
      <point x="43.2" y="16.8"/>
      <point x="69.6" y="-9.6"/>
    </contour>
  </outline>
</glyph>
<glyph name="quotedbl" format="2">
  <advance width="382.4"/>
  <unicode hex="0022"/>
  <note>
quotedbl
</note>
  <outline>
    <contour>
      <point x="272.8" y="474.4" type="line"/>
      <point x="376.0" y="474.4" type="line"/>
      <point x="428.8" y="720.0" type="line"/>
      <point x="314.4" y="720.0" type="line"/>
    </contour>
    <contour>
      <point x="94.4" y="474.4" type="line"/>
      <point x="197.6" y="474.4" type="line"/>
      <point x="250.4" y="720.0" type="line"/>
      <point x="136.0" y="720.0" type="line"/>
    </contour>
  </outline>
</glyph>
<glyph name="numbersign" format="2">
  <advance width="616.0"/>
  <unicode hex="0023"/>
  <note>
numbersign
</note>
  <outline>
    <contour>
      <point x="311.2" y="0.0" type="line"/>
      <point x="408.0" y="0.0" type="line"/>
      <point x="540.0" y="720.0" type="line"/>
      <point x="443.2" y="720.0" type="line"/>
    </contour>
    <contour>
      <point x="36.8" y="204.0" type="line"/>
      <point x="564.8" y="204.0" type="line"/>
      <point x="564.8" y="293.6" type="line"/>
      <point x="36.8" y="293.6" type="line"/>
    </contour>
    <contour>
      <point x="85.6" y="0.0" type="line"/>
      <point x="182.4" y="0.0" type="line"/>
      <point x="314.4" y="720.0" type="line"/>
      <point x="217.6" y="720.0" type="line"/>
    </contour>
    <contour>
      <point x="60.8" y="426.4" type="line"/>
      <point x="588.8" y="426.4" type="line"/>
      <point x="588.8" y="516.0" type="line"/>
      <point x="60.8" y="516.0" type="line"/>
    </contour>
  </outline>
</glyph>
<glyph name="dollar" format="2">
  <advance width="616.0"/>
  <unicode hex="0024"/>
  <note>
dollar
</note>
  <outline>
    <contour>
      <point x="334.4" y="657.6" type="line"/>
      <point x="453.6" y="657.6" type="line"/>
      <point x="492.4" y="860.0" type="line"/>
      <point x="373.2" y="860.0" type="line"/>
    </contour>
    <contour>
      <point x="36.0" y="26.8" type="line"/>
      <point x="82.4" y="5.6"/>
      <point x="169.2" y="-12.0"/>
      <point x="247.2" y="-12.0" type="curve" smooth="yes"/>
      <point x="416.8" y="-12.0"/>
      <point x="548.8" y="64.0"/>
      <point x="548.8" y="212.0" type="curve" smooth="yes"/>
      <point x="548.8" y="316.0"/>
      <point x="479.0" y="370.8"/>
      <point x="384.8" y="396.0" type="curve" smooth="yes"/>
      <point x="331.2" y="410.4" type="line" smooth="yes"/>
      <point x="276.8" y="425.0"/>
      <point x="247.2" y="443.2"/>
      <point x="247.2" y="500.8" type="curve" smooth="yes"/>
      <point x="247.2" y="572.4"/>
      <point x="318.4" y="617.6"/>
      <point x="428.8" y="617.6" type="curve" smooth="yes"/>
      <point x="491.2" y="617.6"/>
      <point x="542.2" y="600.6"/>
      <point x="571.2" y="586.4" type="curve"/>
      <point x="580.8" y="586.4" type="line"/>
      <point x="604.4" y="708.8" type="line"/>
      <point x="560.8" y="723.2"/>
      <point x="495.4" y="732.0"/>
      <point x="435.2" y="732.0" type="curve" smooth="yes"/>
      <point x="224.8" y="732.0"/>
      <point x="110.4" y="632.8"/>
      <point x="110.4" y="491.2" type="curve" smooth="yes"/>
      <point x="110.4" y="374.4"/>
      <point x="178.4" y="326.8"/>
      <point x="283.2" y="298.4" type="curve" smooth="yes"/>
      <point x="336.8" y="284.0" type="line" smooth="yes"/>
      <point x="383.6" y="271.8"/>
      <point x="409.6" y="249.6"/>
      <point x="409.6" y="204.0" type="curve" smooth="yes"/>
      <point x="409.6" y="141.6"/>
      <point x="349.6" y="104.0"/>
      <point x="255.2" y="104.0" type="curve" smooth="yes"/>
      <point x="175.2" y="104.0"/>
      <point x="110.0" y="127.2"/>
      <point x="70.0" y="152.8" type="curve"/>
      <point x="60.4" y="152.8" type="line"/>
    </contour>
    <contour>
      <point x="216.4" y="42.4" type="line"/>
      <point x="177.6" y="-160.0" type="line"/>
      <point x="296.8" y="-160.0" type="line"/>
      <point x="335.6" y="42.4" type="line"/>
    </contour>
  </outline>
</glyph>
<glyph name="ampersand" format="2">
  <advance width="668.0"/>
  <unicode hex="0026"/>
  <note>
ampersand
</note>
  <outline>
    <contour>
      <point x="34.4" y="169.6" type="curve" smooth="yes"/>
      <point x="34.4" y="33.6"/>
      <point x="146.4" y="-12.0"/>
      <point x="286.4" y="-12.0" type="curve" smooth="yes"/>
      <point x="366.4" y="-12.0"/>
      <point x="444.8" y="4.0"/>
      <point x="506.4" y="25.6" type="curve"/>
      <point x="510.4" y="33.6" type="line"/>
      <point x="512.0" y="86.4"/>
      <point x="522.8" y="154.0"/>
      <point x="532.0" y="202.0" type="curve" smooth="yes"/>
      <point x="549.6" y="293.6" type="line"/>
      <point x="624.0" y="293.6" type="line"/>
      <point x="644.8" y="403.2" type="line"/>
      <point x="337.6" y="403.2" type="line" smooth="yes"/>
      <point x="270.8" y="403.2"/>
      <point x="224.8" y="423.2"/>
      <point x="224.8" y="488.0" type="curve" smooth="yes"/>
      <point x="224.8" y="572.0"/>
      <point x="306.4" y="612.0"/>
      <point x="414.4" y="612.0" type="curve" smooth="yes"/>
      <point x="487.2" y="612.0"/>
      <point x="550.4" y="594.4"/>
      <point x="583.2" y="576.8" type="curve"/>
      <point x="592.8" y="576.8" type="line"/>
      <point x="617.2" y="702.4" type="line"/>
      <point x="581.0" y="719.2"/>
      <point x="494.4" y="732.0"/>
      <point x="424.0" y="732.0" type="curve" smooth="yes"/>
      <point x="208.8" y="732.0"/>
      <point x="82.4" y="643.2"/>
      <point x="82.4" y="480.8" type="curve" smooth="yes"/>
      <point x="82.4" y="402.4"/>
      <point x="127.2" y="355.2"/>
      <point x="188.0" y="325.6" type="curve"/>
      <point x="188.0" y="360.8" type="line"/>
      <point x="96.8" y="332.0"/>
      <point x="34.4" y="269.6"/>
    </contour>
    <contour>
      <point x="299.2" y="98.4" type="curve" smooth="yes"/>
      <point x="227.2" y="98.4"/>
      <point x="172.8" y="116.8"/>
      <point x="172.8" y="182.4" type="curve" smooth="yes"/>
      <point x="172.8" y="255.2"/>
      <point x="229.6" y="293.6"/>
      <point x="317.6" y="293.6" type="curve" smooth="yes"/>
      <point x="416.4" y="293.6" type="line"/>
      <point x="394.4" y="179.2" type="line" smooth="yes"/>
      <point x="387.8" y="147.2"/>
      <point x="384.6" y="113.8"/>
      <point x="388.0" y="87.2" type="curve"/>
      <point x="407.2" y="123.2" type="line"/>
      <point x="375.2" y="107.2"/>
      <point x="350.0" y="98.4"/>
    </contour>
  </outline>
</glyph>
<glyph name="quotesingle" format="2">
  <advance width="204.0"/>
  <unicode hex="0027"/>
  <note>
quotesingle
</note>
  <outline>
    <contour>
      <point x="136.0" y="720.0" type="line"/>
      <point x="94.4" y="474.4" type="line"/>
      <point x="197.6" y="474.4" type="line"/>
      <point x="250.4" y="720.0" type="line"/>
    </contour>
  </outline>
</glyph>
<glyph name="parenleft" format="2">
  <advance width="370.4"/>
  <unicode hex="0028"/>
  <note>
parenleft
</note>
  <outline>
    <contour>
      <point x="148.0" y="-88.0" type="curve"/>
      <point x="279.2" y="-88.0" type="line"/>
      <point x="279.2" y="-82.4" type="line"/>
      <point x="226.4" y="-7.2"/>
      <point x="196.0" y="83.2"/>
      <point x="196.0" y="196.8" type="curve" smooth="yes"/>
      <point x="196.0" y="422.4"/>
      <point x="296.8" y="615.2"/>
      <point x="443.2" y="754.4" type="curve"/>
      <point x="443.2" y="760.0" type="line"/>
      <point x="302.4" y="760.0" type="line"/>
      <point x="149.6" y="611.2"/>
      <point x="67.2" y="406.4"/>
      <point x="67.2" y="196.8" type="curve" smooth="yes"/>
      <point x="67.2" y="77.2"/>
      <point x="103.6" y="-28.8"/>
    </contour>
  </outline>
</glyph>
<glyph name="parenright" format="2">
  <advance width="370.4"/>
  <unicode hex="0029"/>
  <note>
parenright
</note>
  <outline>
    <contour>
      <point x="-48.2" y="-82.4" type="curve"/>
      <point x="-48.2" y="-88.0" type="line"/>
      <point x="92.6" y="-88.0" type="line"/>
      <point x="245.4" y="60.8"/>
      <point x="327.8" y="265.6"/>
      <point x="327.8" y="475.2" type="curve" smooth="yes"/>
      <point x="327.8" y="594.8"/>
      <point x="291.4" y="700.8"/>
      <point x="247.0" y="760.0" type="curve"/>
      <point x="115.8" y="760.0" type="line"/>
      <point x="115.8" y="754.4" type="line"/>
      <point x="168.6" y="679.2"/>
      <point x="199.0" y="588.8"/>
      <point x="199.0" y="475.2" type="curve" smooth="yes"/>
      <point x="199.0" y="249.6"/>
      <point x="98.2" y="56.8"/>
    </contour>
  </outline>
</glyph>
<glyph name="asterisk" format="2">
  <advance width="544.0"/>
  <unicode hex="002A"/>
  <note>
asterisk
</note>
  <outline>
    <contour>
      <point x="211.6" y="270.4" type="line"/>
      <point x="318.0" y="270.4" type="line"/>
      <point x="342.8" y="495.2" type="line"/>
      <point x="405.2" y="720.0" type="line"/>
      <point x="298.8" y="720.0" type="line"/>
      <point x="270.0" y="495.2" type="line"/>
    </contour>
    <contour>
      <point x="292.4" y="464.0" type="line"/>
      <point x="455.6" y="330.4" type="line"/>
      <point x="516.4" y="416.0" type="line"/>
      <point x="322.8" y="524.0" type="line"/>
      <point x="160.4" y="657.6" type="line"/>
      <point x="99.6" y="572.0" type="line"/>
    </contour>
    <contour>
      <point x="108.4" y="336.0" type="line"/>
      <point x="314.8" y="462.4" type="line"/>
      <point x="546.8" y="562.4" type="line"/>
      <point x="506.0" y="654.4" type="line"/>
      <point x="299.6" y="525.6" type="line"/>
      <point x="67.6" y="428.0" type="line"/>
    </contour>
  </outline>
</glyph>
<glyph name="plus" format="2">
  <advance width="616.0"/>
  <unicode hex="002B"/>
  <note>
plus
</note>
  <outline>
    <contour>
      <point x="263.2" y="72.0" type="line"/>
      <point x="362.4" y="72.0" type="line"/>
      <point x="362.4" y="560.0" type="line"/>
      <point x="263.2" y="560.0" type="line"/>
    </contour>
    <contour>
      <point x="68.8" y="266.4" type="line"/>
      <point x="556.8" y="266.4" type="line"/>
      <point x="556.8" y="365.6" type="line"/>
      <point x="68.8" y="365.6" type="line"/>
    </contour>
  </outline>
</glyph>
<glyph name="comma" format="2">
  <advance width="281.6"/>
  <unicode hex="002C"/>
  <note>
comma
</note>
  <outline>
    <contour>
      <point x="56.8" y="-5.6" type="curve"/>
      <point x="-51.2" y="-149.6" type="line"/>
      <point x="-51.2" y="-157.6" type="line"/>
      <point x="53.6" y="-157.6" type="line"/>
      <point x="134.4" y="-40.0" type="line" smooth="yes"/>
      <point x="158.4" y="-5.2"/>
      <point x="188.0" y="38.4"/>
      <point x="188.0" y="82.4" type="curve" smooth="yes"/>
      <point x="188.0" y="126.4"/>
      <point x="158.4" y="155.2"/>
      <point x="114.4" y="155.2" type="curve" smooth="yes"/>
      <point x="60.6" y="155.2"/>
      <point x="20.0" y="112.0"/>
      <point x="20.0" y="58.4" type="curve" smooth="yes"/>
      <point x="20.0" y="21.200000000000003"/>
      <point x="39.0" y="3.4000000000000004"/>
    </contour>
  </outline>
</glyph>
<glyph name="hyphen" format="2">
  <advance width="500.0"/>
  <unicode hex="002D"/>
  <note>
hyphen
</note>
  <outline>
    <contour>
      <point x="95.2" y="384.0" type="line"/>
      <point x="72.8" y="265.6" type="line"/>
      <point x="433.6" y="265.6" type="line"/>
      <point x="456.0" y="384.0" type="line"/>
    </contour>
  </outline>
</glyph>
<glyph name="period" format="2">
  <advance width="281.6"/>
  <unicode hex="002E"/>
  <note>
period
</note>
  <outline>
    <contour>
      <point x="93.2" y="-9.6" type="curve" smooth="yes"/>
      <point x="147.2" y="-9.6"/>
      <point x="188.0" y="35.2"/>
      <point x="188.0" y="88.8" type="curve" smooth="yes"/>
      <point x="188.0" y="128.8"/>
      <point x="160.4" y="155.2"/>
      <point x="117.2" y="155.2" type="curve" smooth="yes"/>
      <point x="61.6" y="155.2"/>
      <point x="22.4" y="110.4"/>
      <point x="22.4" y="56.8" type="curve" smooth="yes"/>
      <point x="22.4" y="16.8"/>
      <point x="48.8" y="-9.6"/>
    </contour>
  </outline>
</glyph>
<glyph name="slash" format="2">
  <advance width="544.8"/>
  <unicode hex="002F"/>
  <note>
slash
</note>
  <outline>
    <contour>
      <point x="-25.6" y="0.0" type="line"/>
      <point x="100.80000000000001" y="0.0" type="line"/>
      <point x="610.4" y="720.0" type="line"/>
      <point x="484.0" y="720.0" type="line"/>
    </contour>
  </outline>
</glyph>
<glyph name="zero" format="2">
  <advance width="616.0"/>
  <unicode hex="0030"/>
  <note>
zero
</note>
  <outline>
    <contour>
      <point x="276.8" y="-12.0" type="curve" smooth="yes"/>
      <point x="522.4" y="-12.0"/>
      <point x="611.2" y="280.4"/>
      <point x="611.2" y="471.2" type="curve" smooth="yes"/>
      <point x="611.2" y="629.6"/>
      <point x="536.0" y="732.0"/>
      <point x="379.2" y="732.0" type="curve" smooth="yes"/>
      <point x="133.6" y="732.0"/>
      <point x="44.8" y="439.6"/>
      <point x="44.8" y="248.8" type="curve" smooth="yes"/>
      <point x="44.8" y="90.4"/>
      <point x="120.0" y="-12.0"/>
    </contour>
    <contour>
      <point x="282.4" y="104.0" type="curve" smooth="yes"/>
      <point x="216.8" y="104.0"/>
      <point x="182.4" y="149.6"/>
      <point x="182.4" y="240.8" type="curve" smooth="yes"/>
      <point x="182.4" y="363.6"/>
      <point x="232.0" y="616.0"/>
      <point x="373.6" y="616.0" type="curve" smooth="yes"/>
      <point x="439.2" y="616.0"/>
      <point x="473.6" y="570.4"/>
      <point x="473.6" y="479.2" type="curve" smooth="yes"/>
      <point x="473.6" y="356.4"/>
      <point x="426.4" y="104.0"/>
    </contour>
  </outline>
</glyph>
<glyph name="one" format="2">
  <advance width="616.0"/>
  <unicode hex="0031"/>
  <note>
one
</note>
  <outline>
    <contour>
      <point x="200.8" y="7.199999999999999" type="line"/>
      <point x="343.2" y="7.199999999999999" type="line"/>
      <point x="446.0" y="540.8" type="line" smooth="yes"/>
      <point x="454.0" y="580.8"/>
      <point x="471.6" y="668.0"/>
      <point x="484.8" y="704.0" type="curve"/>
      <point x="484.8" y="716.0" type="line"/>
      <point x="463.8" y="721.2"/>
      <point x="420.8" y="728.0"/>
      <point x="361.6" y="728.0" type="curve" smooth="yes"/>
      <point x="276.0" y="728.0"/>
      <point x="192.8" y="720.8"/>
      <point x="158.8" y="711.2" type="curve"/>
      <point x="139.2" y="604.8" type="line"/>
      <point x="321.8" y="604.8" type="line"/>
      <point x="314.0" y="588.8"/>
      <point x="303.4" y="540.0"/>
      <point x="298.4" y="516.0" type="curve" smooth="yes"/>
    </contour>
    <contour>
      <point x="11.6" y="0.0" type="line"/>
      <point x="517.2" y="0.0" type="line"/>
      <point x="540.4" y="120.80000000000001" type="line"/>
      <point x="34.8" y="120.80000000000001" type="line"/>
    </contour>
  </outline>
</glyph>
<glyph name="two" format="2">
  <advance width="616.0"/>
  <unicode hex="0032"/>
  <note>
two
</note>
  <outline>
    <contour>
      <point x="14.399999999999999" y="0.0" type="curve"/>
      <point x="18.0" y="0.0" type="line"/>
      <point x="26.4" y="0.0" type="line"/>
      <point x="154.0" y="74.4" type="line"/>
      <point x="153.0" y="77.4"/>
      <point x="151.2" y="87.4"/>
      <point x="151.2" y="96.8" type="curve" smooth="yes"/>
      <point x="151.2" y="168.2"/>
      <point x="200.6" y="217.0"/>
      <point x="296.0" y="242.4" type="curve" smooth="yes"/>
      <point x="340.8" y="254.4" type="line" smooth="yes"/>
      <point x="492.6" y="295.8"/>
      <point x="592.0" y="367.2"/>
      <point x="592.0" y="522.4" type="curve" smooth="yes"/>
      <point x="592.0" y="636.8"/>
      <point x="516.2" y="732.0"/>
      <point x="335.2" y="732.0" type="curve" smooth="yes"/>
      <point x="271.2" y="732.0"/>
      <point x="212.4" y="720.0"/>
      <point x="162.4" y="700.0" type="curve"/>
      <point x="139.2" y="578.4" type="line"/>
      <point x="148.8" y="578.4" type="line"/>
      <point x="190.4" y="596.8"/>
      <point x="245.6" y="614.4"/>
      <point x="310.4" y="614.4" type="curve" smooth="yes"/>
      <point x="405.4" y="614.4"/>
      <point x="452.8" y="577.0"/>
      <point x="452.8" y="514.4" type="curve" smooth="yes"/>
      <point x="452.8" y="428.8"/>
      <point x="403.2" y="389.2"/>
      <point x="313.6" y="365.6" type="curve" smooth="yes"/>
      <point x="268.8" y="353.6" type="line" smooth="yes"/>
      <point x="84.2" y="303.8"/>
      <point x="10.399999999999999" y="196.0"/>
      <point x="10.399999999999999" y="40.0" type="curve" smooth="yes"/>
      <point x="10.399999999999999" y="22.6"/>
      <point x="12.399999999999999" y="8.0"/>
    </contour>
    <contour>
      <point x="26.4" y="0.0" type="line"/>
      <point x="506.4" y="0.0" type="line"/>
      <point x="528.8" y="117.6" type="line"/>
      <point x="48.8" y="117.6" type="line"/>
    </contour>
  </outline>
</glyph>
<glyph name="three" format="2">
  <advance width="616.0"/>
  <unicode hex="0033"/>
  <note>
three
</note>
  <outline>
    <contour>
      <point x="190.4" y="379.2" type="line"/>
      <point x="306.4" y="358.4" type="line"/>
      <point x="547.2" y="579.2" type="line" smooth="yes"/>
      <point x="589.8" y="618.4"/>
      <point x="609.6" y="657.2"/>
      <point x="606.4" y="708.0" type="curve"/>
      <point x="598.4" y="720.0" type="line"/>
      <point x="539.2" y="720.0" type="line"/>
    </contour>
    <contour>
      <point x="136.4" y="604.0" type="line"/>
      <point x="520.8" y="604.0" type="line"/>
      <point x="562.4" y="720.0" type="line"/>
      <point x="158.0" y="720.0" type="line"/>
    </contour>
    <contour>
      <point x="24.0" y="27.2" type="line"/>
      <point x="60.8" y="6.4"/>
      <point x="144.8" y="-12.0"/>
      <point x="220.0" y="-12.0" type="curve" smooth="yes"/>
      <point x="427.6" y="-12.0"/>
      <point x="549.6" y="87.2"/>
      <point x="549.6" y="228.8" type="curve" smooth="yes"/>
      <point x="549.6" y="344.0"/>
      <point x="475.2" y="416.0"/>
      <point x="336.8" y="420.8" type="curve"/>
      <point x="190.4" y="379.2" type="line"/>
      <point x="201.6" y="326.4" type="line"/>
      <point x="283.2" y="326.4" type="line" smooth="yes"/>
      <point x="368.8" y="326.4"/>
      <point x="411.2" y="292.8"/>
      <point x="411.2" y="227.2" type="curve" smooth="yes"/>
      <point x="411.2" y="157.6"/>
      <point x="356.0" y="100.8"/>
      <point x="225.6" y="100.8" type="curve" smooth="yes"/>
      <point x="148.8" y="100.8"/>
      <point x="87.2" y="126.4"/>
      <point x="56.0" y="147.2" type="curve"/>
      <point x="46.4" y="147.2" type="line"/>
    </contour>
  </outline>
</glyph>
<glyph name="four" format="2">
  <advance width="616.0"/>
  <unicode hex="0034"/>
  <note>
four
</note>
  <outline>
    <contour>
      <point x="16.0" y="176.8" type="line"/>
      <point x="117.2" y="176.8" type="line"/>
      <point x="258.0" y="469.6" type="line" smooth="yes"/>
      <point x="307.2" y="569.0"/>
      <point x="349.6" y="607.2"/>
      <point x="432.0" y="607.2" type="curve" smooth="yes"/>
      <point x="462.4" y="607.2"/>
      <point x="504.4" y="599.2"/>
      <point x="523.2" y="596.0" type="curve"/>
      <point x="605.6" y="710.4" type="line"/>
      <point x="576.0" y="720.4"/>
      <point x="530.8" y="728.0"/>
      <point x="476.8" y="728.0" type="curve" smooth="yes"/>
      <point x="319.2" y="728.0"/>
      <point x="219.2" y="665.2"/>
      <point x="133.6" y="484.8" type="curve" smooth="yes"/>
      <point x="35.6" y="281.6" type="line"/>
    </contour>
    <contour>
      <point x="325.6" y="0.0" type="line"/>
      <point x="461.6" y="0.0" type="line"/>
      <point x="568.0" y="554.4" type="line" smooth="yes"/>
      <point x="576.0" y="594.4"/>
      <point x="590.0" y="660.0"/>
      <point x="605.6" y="698.4" type="curve"/>
      <point x="605.6" y="710.4" type="line"/>
      <point x="472.0" y="710.4" type="line"/>
      <point x="472.0" y="663.2" type="line"/>
      <point x="456.8" y="643.2"/>
      <point x="442.2" y="604.8"/>
      <point x="433.6" y="560.8" type="curve" smooth="yes"/>
    </contour>
    <contour>
      <point x="71.2" y="176.8" type="line"/>
      <point x="588.8" y="176.8" type="line"/>
      <point x="611.2" y="294.4" type="line"/>
      <point x="93.6" y="294.4" type="line"/>
    </contour>
  </outline>
</glyph>
<glyph name="five" format="2">
  <advance width="616.0"/>
  <unicode hex="0035"/>
  <note>
five
</note>
  <outline>
    <contour>
      <point x="177.6" y="604.0" type="line"/>
      <point x="592.8" y="604.0" type="line"/>
      <point x="615.2" y="720.0" type="line"/>
      <point x="311.2" y="720.0" type="line" smooth="yes"/>
      <point x="244.8" y="720.0"/>
      <point x="204.0" y="716.0"/>
      <point x="170.4" y="708.6" type="curve"/>
    </contour>
    <contour>
      <point x="99.2" y="316.0" type="line"/>
      <point x="248.8" y="394.4" type="line"/>
      <point x="278.0" y="549.6" type="line" smooth="yes"/>
      <point x="285.6" y="589.4"/>
      <point x="284.0" y="636.0"/>
      <point x="282.4" y="664.0" type="curve"/>
      <point x="282.4" y="702.4" type="line"/>
      <point x="170.4" y="708.6" type="line"/>
      <point x="166.4" y="698.4" type="line"/>
      <point x="164.8" y="657.0"/>
      <point x="150.4" y="580.8"/>
      <point x="142.4" y="540.8" type="curve" smooth="yes"/>
    </contour>
    <contour>
      <point x="18.4" y="28.8" type="line"/>
      <point x="55.2" y="8.0"/>
      <point x="138.4" y="-12.0"/>
      <point x="216.8" y="-12.0" type="curve" smooth="yes"/>
      <point x="438.4" y="-12.0"/>
      <point x="554.4" y="88.8"/>
      <point x="554.4" y="234.4" type="curve" smooth="yes"/>
      <point x="554.4" y="353.6"/>
      <point x="478.4" y="439.2"/>
      <point x="316.8" y="439.2" type="curve" smooth="yes"/>
      <point x="234.4" y="439.2"/>
      <point x="170.4" y="415.2"/>
      <point x="131.2" y="400.8" type="curve"/>
      <point x="99.2" y="316.0" type="line"/>
      <point x="104.8" y="312.0" type="line"/>
      <point x="143.6" y="322.4"/>
      <point x="196.8" y="335.2"/>
      <point x="268.8" y="335.2" type="curve" smooth="yes"/>
      <point x="374.4" y="335.2"/>
      <point x="413.6" y="296.8"/>
      <point x="413.6" y="232.8" type="curve" smooth="yes"/>
      <point x="413.6" y="160.8"/>
      <point x="357.6" y="104.0"/>
      <point x="222.4" y="104.0" type="curve" smooth="yes"/>
      <point x="144.0" y="104.0"/>
      <point x="84.8" y="126.4"/>
      <point x="50.4" y="148.8" type="curve"/>
      <point x="40.8" y="148.8" type="line"/>
    </contour>
  </outline>
</glyph>
<glyph name="six" format="2">
  <advance width="616.0"/>
  <unicode hex="0036"/>
  <note>
six
</note>
  <outline>
    <contour>
      <point x="298.4" y="-12.0" type="curve" smooth="yes"/>
      <point x="462.4" y="-12.0"/>
      <point x="575.2" y="98.0"/>
      <point x="575.2" y="258.4" type="curve" smooth="yes"/>
      <point x="575.2" y="388.8"/>
      <point x="502.0" y="469.6"/>
      <point x="360.8" y="469.6" type="curve" smooth="yes"/>
      <point x="284.0" y="469.6"/>
      <point x="232.8" y="441.6"/>
      <point x="190.4" y="400.0" type="curve"/>
      <point x="136.0" y="290.4" type="line"/>
      <point x="171.2" y="290.4" type="line"/>
      <point x="207.2" y="332.0"/>
      <point x="258.0" y="362.4"/>
      <point x="322.0" y="362.4" type="curve" smooth="yes"/>
      <point x="398.0" y="362.4"/>
      <point x="440.0" y="322.4"/>
      <point x="440.0" y="248.0" type="curve" smooth="yes"/>
      <point x="440.0" y="176.8"/>
      <point x="398.8" y="98.4"/>
      <point x="304.0" y="98.4" type="curve" smooth="yes"/>
      <point x="220.4" y="98.4"/>
      <point x="182.4" y="150.4"/>
      <point x="182.4" y="249.2" type="curve" smooth="yes"/>
      <point x="182.4" y="398.2"/>
      <point x="228.0" y="616.0"/>
      <point x="450.8" y="616.0" type="curve" smooth="yes"/>
      <point x="502.8" y="616.0"/>
      <point x="542.8" y="605.6"/>
      <point x="566.4" y="595.2" type="curve"/>
      <point x="576.0" y="595.2" type="line"/>
      <point x="599.6" y="715.2" type="line"/>
      <point x="568.8" y="725.6"/>
      <point x="515.2" y="732.0"/>
      <point x="465.6" y="732.0" type="curve" smooth="yes"/>
      <point x="154.0" y="732.0"/>
      <point x="44.8" y="488.4"/>
      <point x="44.8" y="254.0" type="curve" smooth="yes"/>
      <point x="44.8" y="94.0"/>
      <point x="127.6" y="-12.0"/>
    </contour>
  </outline>
</glyph>
<glyph name="seven" format="2">
  <advance width="616.0"/>
  <unicode hex="0037"/>
  <note>
seven
</note>
  <outline>
    <contour>
      <point x="90.8" y="0.0" type="line"/>
      <point x="238.8" y="0.0" type="line"/>
      <point x="593.2" y="556.0" type="line" smooth="yes"/>
      <point x="624.2" y="604.0"/>
      <point x="645.2" y="648.2"/>
      <point x="645.2" y="692.0" type="curve" smooth="yes"/>
      <point x="645.2" y="697.4"/>
      <point x="644.8" y="702.4"/>
      <point x="644.4" y="708.0" type="curve"/>
      <point x="632.4" y="720.0" type="line"/>
      <point x="535.6" y="720.0" type="line"/>
      <point x="535.6" y="665.6" type="line"/>
      <point x="90.8" y="9.6" type="line"/>
    </contour>
    <contour>
      <point x="136.4" y="600.8" type="line"/>
      <point x="546.8" y="600.8" type="line"/>
      <point x="588.4" y="720.0" type="line"/>
      <point x="158.8" y="720.0" type="line"/>
    </contour>
  </outline>
</glyph>
<glyph name="eight" format="2">
  <advance width="616.0"/>
  <unicode hex="0038"/>
  <note>
eight
</note>
  <outline>
    <contour>
      <point x="26.4" y="170.4" type="curve" smooth="yes"/>
      <point x="26.4" y="68.0"/>
      <point x="107.2" y="-12.0"/>
      <point x="277.6" y="-12.0" type="curve" smooth="yes"/>
      <point x="441.6" y="-12.0"/>
      <point x="564.8" y="70.4"/>
      <point x="564.8" y="208.8" type="curve" smooth="yes"/>
      <point x="564.8" y="313.6"/>
      <point x="481.8" y="364.0"/>
      <point x="390.4" y="402.4" type="curve" smooth="yes"/>
      <point x="348.8" y="420.0" type="line" smooth="yes"/>
      <point x="285.8" y="446.6"/>
      <point x="245.6" y="468.0"/>
      <point x="245.6" y="524.8" type="curve" smooth="yes"/>
      <point x="245.6" y="582.4"/>
      <point x="292.0" y="624.8"/>
      <point x="370.4" y="624.8" type="curve" smooth="yes"/>
      <point x="442.8" y="624.8"/>
      <point x="480.0" y="593.6"/>
      <point x="480.0" y="534.4" type="curve" smooth="yes"/>
      <point x="480.0" y="466.0"/>
      <point x="419.0" y="417.2"/>
      <point x="368.8" y="396.0" type="curve"/>
      <point x="437.2" y="336.2" type="line"/>
      <point x="528.4" y="378.6"/>
      <point x="612.0" y="441.6"/>
      <point x="612.0" y="555.2" type="curve" smooth="yes"/>
      <point x="612.0" y="650.4"/>
      <point x="534.4" y="732.0"/>
      <point x="380.0" y="732.0" type="curve" smooth="yes"/>
      <point x="191.2" y="732.0"/>
      <point x="109.2" y="623.8"/>
      <point x="109.2" y="514.4" type="curve" smooth="yes"/>
      <point x="109.2" y="418.4"/>
      <point x="175.6" y="369.8"/>
      <point x="256.0" y="336.0" type="curve" smooth="yes"/>
      <point x="297.6" y="318.4" type="line" smooth="yes"/>
      <point x="361.8" y="291.2"/>
      <point x="425.6" y="269.6"/>
      <point x="425.6" y="203.2" type="curve" smooth="yes"/>
      <point x="425.6" y="138.0"/>
      <point x="367.4" y="95.2"/>
      <point x="283.2" y="95.2" type="curve" smooth="yes"/>
      <point x="201.6" y="95.2"/>
      <point x="158.4" y="131.2"/>
      <point x="158.4" y="189.6" type="curve" smooth="yes"/>
      <point x="158.4" y="268.4"/>
      <point x="232.8" y="317.2"/>
      <point x="309.6" y="338.4" type="curve"/>
      <point x="251.2" y="406.4" type="line"/>
      <point x="126.4" y="368.8"/>
      <point x="26.4" y="290.8"/>
    </contour>
  </outline>
</glyph>
<glyph name="nine" format="2">
  <advance width="616.0"/>
  <unicode hex="0039"/>
  <note>
nine
</note>
  <outline>
    <contour>
      <point x="190.4" y="-12.0" type="curve" smooth="yes"/>
      <point x="502.0" y="-12.0"/>
      <point x="611.2" y="231.6"/>
      <point x="611.2" y="466.0" type="curve" smooth="yes"/>
      <point x="611.2" y="626.0"/>
      <point x="528.4" y="732.0"/>
      <point x="357.6" y="732.0" type="curve" smooth="yes"/>
      <point x="193.6" y="732.0"/>
      <point x="80.8" y="622.0"/>
      <point x="80.8" y="461.6" type="curve" smooth="yes"/>
      <point x="80.8" y="331.2"/>
      <point x="154.0" y="250.4"/>
      <point x="295.2" y="250.4" type="curve" smooth="yes"/>
      <point x="372.0" y="250.4"/>
      <point x="423.2" y="278.4"/>
      <point x="465.6" y="320.0" type="curve"/>
      <point x="520.0" y="429.6" type="line"/>
      <point x="484.8" y="429.6" type="line"/>
      <point x="448.8" y="388.0"/>
      <point x="398.0" y="357.6"/>
      <point x="334.0" y="357.6" type="curve" smooth="yes"/>
      <point x="258.0" y="357.6"/>
      <point x="216.0" y="397.6"/>
      <point x="216.0" y="472.0" type="curve" smooth="yes"/>
      <point x="216.0" y="543.2"/>
      <point x="257.2" y="621.6"/>
      <point x="352.0" y="621.6" type="curve" smooth="yes"/>
      <point x="435.6" y="621.6"/>
      <point x="473.6" y="569.6"/>
      <point x="473.6" y="470.8" type="curve" smooth="yes"/>
      <point x="473.6" y="321.8"/>
      <point x="428.0" y="104.0"/>
      <point x="205.2" y="104.0" type="curve" smooth="yes"/>
      <point x="153.2" y="104.0"/>
      <point x="113.2" y="114.4"/>
      <point x="89.6" y="124.8" type="curve"/>
      <point x="80.0" y="124.8" type="line"/>
      <point x="56.4" y="4.8" type="line"/>
      <point x="87.2" y="-5.6"/>
      <point x="140.8" y="-12.0"/>
    </contour>
  </outline>
</glyph>
<glyph name="colon" format="2">
  <advance width="281.6"/>
  <unicode hex="003A"/>
  <note>
colon
</note>
  <outline>
    <contour>
      <point x="168.4" y="379.2" type="curve" smooth="yes"/>
      <point x="222.4" y="379.2"/>
      <point x="263.2" y="424.0"/>
      <point x="263.2" y="477.6" type="curve" smooth="yes"/>
      <point x="263.2" y="517.6"/>
      <point x="235.6" y="544.0"/>
      <point x="192.4" y="544.0" type="curve" smooth="yes"/>
      <point x="136.8" y="544.0"/>
      <point x="97.6" y="499.2"/>
      <point x="97.6" y="445.6" type="curve" smooth="yes"/>
      <point x="97.6" y="405.6"/>
      <point x="124.0" y="379.2"/>
    </contour>
    <contour>
      <point x="93.2" y="-9.6" type="curve" smooth="yes"/>
      <point x="147.2" y="-9.6"/>
      <point x="188.0" y="35.2"/>
      <point x="188.0" y="88.8" type="curve" smooth="yes"/>
      <point x="188.0" y="128.8"/>
      <point x="160.4" y="155.2"/>
      <point x="117.2" y="155.2" type="curve" smooth="yes"/>
      <point x="61.6" y="155.2"/>
      <point x="22.4" y="110.4"/>
      <point x="22.4" y="56.8" type="curve" smooth="yes"/>
      <point x="22.4" y="16.8"/>
      <point x="48.8" y="-9.6"/>
    </contour>
  </outline>
</glyph>
<glyph name="semicolon" format="2">
  <advance width="281.6"/>
  <unicode hex="003B"/>
  <note>
semicolon
</note>
  <outline>
    <contour>
      <point x="168.4" y="379.2" type="curve" smooth="yes"/>
      <point x="222.4" y="379.2"/>
      <point x="263.2" y="424.0"/>
      <point x="263.2" y="477.6" type="curve" smooth="yes"/>
      <point x="263.2" y="517.6"/>
      <point x="235.6" y="544.0"/>
      <point x="192.4" y="544.0" type="curve" smooth="yes"/>
      <point x="136.8" y="544.0"/>
      <point x="97.6" y="499.2"/>
      <point x="97.6" y="445.6" type="curve" smooth="yes"/>
      <point x="97.6" y="405.6"/>
      <point x="124.0" y="379.2"/>
    </contour>
    <contour>
      <point x="59.2" y="-5.6" type="curve"/>
      <point x="-48.8" y="-149.6" type="line"/>
      <point x="-48.8" y="-157.6" type="line"/>
      <point x="56.0" y="-157.6" type="line"/>
      <point x="136.8" y="-40.0" type="line" smooth="yes"/>
      <point x="160.8" y="-5.2"/>
      <point x="190.4" y="38.4"/>
      <point x="190.4" y="82.4" type="curve" smooth="yes"/>
      <point x="190.4" y="126.4"/>
      <point x="160.8" y="155.2"/>
      <point x="116.8" y="155.2" type="curve" smooth="yes"/>
      <point x="63.0" y="155.2"/>
      <point x="22.4" y="112.0"/>
      <point x="22.4" y="58.4" type="curve" smooth="yes"/>
      <point x="22.4" y="21.200000000000003"/>
      <point x="41.4" y="3.4000000000000004"/>
    </contour>
  </outline>
</glyph>
<glyph name="less" format="2">
  <advance width="616.0"/>
  <unicode hex="003C"/>
  <note>
less
</note>
  <outline>
    <contour>
      <point x="88.8" y="284.8" type="line"/>
      <point x="528.8" y="62.4" type="line"/>
      <point x="536.8" y="62.4" type="line"/>
      <point x="536.8" y="171.2" type="line"/>
      <point x="233.6" y="317.6" type="line"/>
      <point x="536.8" y="468.0" type="line"/>
      <point x="536.8" y="575.2" type="line"/>
      <point x="528.8" y="575.2" type="line"/>
      <point x="88.8" y="350.4" type="line"/>
    </contour>
  </outline>
</glyph>
<glyph name="equal" format="2">
  <advance width="616.0"/>
  <unicode hex="003D"/>
  <note>
equal
</note>
  <outline>
    <contour>
      <point x="68.8" y="470.4" type="line"/>
      <point x="68.8" y="371.2" type="line"/>
      <point x="556.8" y="371.2" type="line"/>
      <point x="556.8" y="470.4" type="line"/>
    </contour>
    <contour>
      <point x="68.8" y="260.8" type="line"/>
      <point x="68.8" y="161.6" type="line"/>
      <point x="556.8" y="161.6" type="line"/>
      <point x="556.8" y="260.8" type="line"/>
    </contour>
  </outline>
</glyph>
<glyph name="greater" format="2">
  <advance width="616.0"/>
  <unicode hex="003E"/>
  <note>
greater
</note>
  <outline>
    <contour>
      <point x="96.8" y="62.4" type="line"/>
      <point x="536.8" y="284.8" type="line"/>
      <point x="536.8" y="350.4" type="line"/>
      <point x="96.8" y="575.2" type="line"/>
      <point x="88.8" y="575.2" type="line"/>
      <point x="88.8" y="468.0" type="line"/>
      <point x="392.0" y="317.6" type="line"/>
      <point x="88.8" y="171.2" type="line"/>
      <point x="88.8" y="62.4" type="line"/>
    </contour>
  </outline>
</glyph>
<glyph name="question" format="2">
  <advance width="503.2"/>
  <unicode hex="003F"/>
  <note>
question
</note>
  <outline>
    <contour>
      <point x="141.6" y="271.2" type="curve" smooth="yes"/>
      <point x="130.4" y="213.6" type="line"/>
      <point x="260.8" y="213.6" type="line"/>
      <point x="272.0" y="267.2" type="line" smooth="yes"/>
      <point x="277.6" y="296.0"/>
      <point x="286.8" y="321.6"/>
      <point x="321.6" y="340.8" type="curve" smooth="yes"/>
      <point x="364.0" y="364.0" type="line" smooth="yes"/>
      <point x="407.8" y="388.0"/>
      <point x="526.4" y="446.8"/>
      <point x="526.4" y="567.2" type="curve" smooth="yes"/>
      <point x="526.4" y="676.8"/>
      <point x="453.4" y="732.0"/>
      <point x="316.0" y="732.0" type="curve" smooth="yes"/>
      <point x="259.2" y="732.0"/>
      <point x="199.2" y="722.4"/>
      <point x="138.4" y="697.6" type="curve"/>
      <point x="116.0" y="580.8" type="line"/>
      <point x="125.6" y="580.8" type="line"/>
      <point x="174.6" y="605.6"/>
      <point x="225.6" y="619.2"/>
      <point x="284.0" y="619.2" type="curve" smooth="yes"/>
      <point x="347.2" y="619.2"/>
      <point x="381.6" y="597.2"/>
      <point x="381.6" y="548.8" type="curve" smooth="yes"/>
      <point x="381.6" y="492.8"/>
      <point x="332.4" y="460.6"/>
      <point x="291.2" y="438.4" type="curve" smooth="yes"/>
      <point x="236.0" y="408.8" type="line" smooth="yes"/>
      <point x="176.0" y="376.4"/>
      <point x="151.6" y="330.4"/>
    </contour>
    <contour>
      <point x="88.4" y="58.4" type="curve" smooth="yes"/>
      <point x="88.4" y="15.2"/>
      <point x="115.2" y="-9.6"/>
      <point x="159.2" y="-9.6" type="curve" smooth="yes"/>
      <point x="213.2" y="-9.6"/>
      <point x="254.0" y="36.8"/>
      <point x="254.0" y="87.2" type="curve" smooth="yes"/>
      <point x="254.0" y="130.4"/>
      <point x="226.0" y="155.2"/>
      <point x="183.2" y="155.2" type="curve" smooth="yes"/>
      <point x="128.0" y="155.2"/>
      <point x="88.4" y="108.8"/>
    </contour>
  </outline>
</glyph>
<glyph name="at" format="2">
  <advance width="977.2"/>
  <unicode hex="0040"/>
  <note>
at
</note>
  <outline>
    <contour>
      <point x="472.8" y="-168.8" type="curve" smooth="yes"/>
      <point x="542.4" y="-168.8"/>
      <point x="607.6" y="-158.4"/>
      <point x="652.4" y="-140.8" type="curve"/>
      <point x="668.8" y="-41.2" type="line"/>
      <point x="659.2" y="-41.2" type="line"/>
      <point x="613.6" y="-61.2"/>
      <point x="544.0" y="-72.8"/>
      <point x="480.0" y="-72.8" type="curve" smooth="yes"/>
      <point x="290.4" y="-72.8"/>
      <point x="151.2" y="22.4"/>
      <point x="151.2" y="225.6" type="curve" smooth="yes"/>
      <point x="151.2" y="493.6"/>
      <point x="324.8" y="636.8"/>
      <point x="555.2" y="636.8" type="curve" smooth="yes"/>
      <point x="738.4" y="636.8"/>
      <point x="857.6" y="548.0"/>
      <point x="857.6" y="400.8" type="curve" smooth="yes"/>
      <point x="857.6" y="247.2"/>
      <point x="780.2" y="171.0"/>
      <point x="666.6" y="140.4" type="curve"/>
      <point x="670.0" y="163.8"/>
      <point x="675.6" y="190.8"/>
      <point x="679.2" y="208.8" type="curve" smooth="yes"/>
      <point x="697.6" y="307.2" type="line" smooth="yes"/>
      <point x="723.0" y="443.4"/>
      <point x="652.8" y="506.4"/>
      <point x="523.2" y="506.4" type="curve" smooth="yes"/>
      <point x="471.2" y="506.4"/>
      <point x="422.4" y="495.2"/>
      <point x="386.0" y="481.6" type="curve"/>
      <point x="368.8" y="386.4" type="line"/>
      <point x="376.8" y="386.4" type="line"/>
      <point x="404.8" y="397.6"/>
      <point x="445.6" y="411.2"/>
      <point x="490.4" y="411.2" type="curve" smooth="yes"/>
      <point x="576.8" y="411.2"/>
      <point x="600.8" y="378.4"/>
      <point x="580.0" y="299.2" type="curve"/>
      <point x="561.2" y="197.6" type="line" smooth="yes"/>
      <point x="556.2" y="169.4"/>
      <point x="546.6" y="116.4"/>
      <point x="573.6" y="98.4" type="curve"/>
      <point x="599.2" y="127.2" type="line"/>
      <point x="566.0" y="122.4"/>
      <point x="535.6" y="122.4"/>
      <point x="509.6" y="122.4" type="curve" smooth="yes"/>
      <point x="442.4" y="122.4"/>
      <point x="400.8" y="135.2"/>
      <point x="400.8" y="178.4" type="curve" smooth="yes"/>
      <point x="400.8" y="221.6"/>
      <point x="438.4" y="245.6"/>
      <point x="507.2" y="245.6" type="curve" smooth="yes"/>
      <point x="540.8" y="245.6"/>
      <point x="564.2" y="239.8"/>
      <point x="581.6" y="232.8" type="curve"/>
      <point x="595.2" y="307.2" type="line"/>
      <point x="575.2" y="315.2"/>
      <point x="551.2" y="323.2"/>
      <point x="501.6" y="323.2" type="curve" smooth="yes"/>
      <point x="380.0" y="323.2"/>
      <point x="290.4" y="276.0"/>
      <point x="290.4" y="172.0" type="curve" smooth="yes"/>
      <point x="290.4" y="77.6"/>
      <point x="370.4" y="34.4"/>
      <point x="507.2" y="34.4" type="curve" smooth="yes"/>
      <point x="772.0" y="34.4"/>
      <point x="961.6" y="153.6"/>
      <point x="961.6" y="404.8" type="curve" smooth="yes"/>
      <point x="961.6" y="599.2"/>
      <point x="806.4" y="735.2"/>
      <point x="559.2" y="735.2" type="curve" smooth="yes"/>
      <point x="259.2" y="735.2"/>
      <point x="43.2" y="545.6"/>
      <point x="43.2" y="224.0" type="curve" smooth="yes"/>
      <point x="43.2" y="-27.2"/>
      <point x="218.4" y="-168.8"/>
    </contour>
  </outline>
</glyph>
<glyph name="A" format="2">
  <advance width="691.6"/>
  <unicode hex="0041"/>
  <note>
A
</note>
  <anchor x="292.8" y="0.0" name="bottom"/>
  <anchor x="558.4" y="0.0" name="ogonek"/>
  <anchor x="473.0" y="720.0" name="top"/>
  <outline>
    <contour>
      <point x="-9.600000000000001" y="0.0" type="line"/>
      <point x="136.8" y="0.0" type="line"/>
      <point x="304.4" y="472.0" type="line" smooth="yes"/>
      <point x="335.8" y="559.6"/>
      <point x="383.2" y="607.2"/>
      <point x="492.8" y="607.2" type="curve" smooth="yes"/>
      <point x="515.4" y="607.2"/>
      <point x="543.2" y="603.6"/>
      <point x="556.8" y="596.8" type="curve"/>
      <point x="549.6" y="632.0" type="line"/>
      <point x="538.6" y="612.6"/>
      <point x="529.6" y="583.2"/>
      <point x="524.0" y="552.8" type="curve" smooth="yes"/>
      <point x="416.0" y="0.0" type="line"/>
      <point x="558.4" y="0.0" type="line"/>
      <point x="666.4" y="554.4" type="line" smooth="yes"/>
      <point x="674.4" y="594.4"/>
      <point x="686.4" y="656.8"/>
      <point x="701.2" y="695.2" type="curve"/>
      <point x="698.0" y="707.2" type="line"/>
      <point x="646.0" y="720.8"/>
      <point x="592.8" y="728.0"/>
      <point x="533.6" y="728.0" type="curve" smooth="yes"/>
      <point x="341.6" y="728.0"/>
      <point x="229.0" y="668.0"/>
      <point x="162.0" y="480.0" type="curve" smooth="yes"/>
    </contour>
    <contour>
      <point x="168.8" y="199.2" type="line"/>
      <point x="487.2" y="199.2" type="line"/>
      <point x="509.6" y="316.8" type="line"/>
      <point x="204.8" y="316.8" type="line"/>
    </contour>
  </outline>
</glyph>
<glyph name="B" format="2">
  <advance width="665.6"/>
  <unicode hex="0042"/>
  <note>
B
</note>
  <anchor x="279.8" y="0.0" name="bottom"/>
  <anchor x="419.8" y="720.0" name="top"/>
  <outline>
    <contour>
      <point x="132.0" y="0.0" type="line"/>
      <point x="350.0" y="0.0" type="line" smooth="yes"/>
      <point x="507.0" y="0.0"/>
      <point x="604.4" y="92.0"/>
      <point x="604.4" y="206.4" type="curve" smooth="yes"/>
      <point x="604.4" y="278.8"/>
      <point x="561.6" y="327.2"/>
      <point x="484.0" y="344.0" type="curve"/>
      <point x="487.2" y="310.4" type="line"/>
      <point x="597.2" y="352.8"/>
      <point x="655.2" y="445.6"/>
      <point x="655.2" y="543.2" type="curve" smooth="yes"/>
      <point x="655.2" y="651.2"/>
      <point x="586.8" y="720.0"/>
      <point x="433.2" y="720.0" type="curve" smooth="yes"/>
      <point x="272.0" y="720.0" type="line"/>
      <point x="249.6" y="600.8" type="line"/>
      <point x="420.4" y="600.8" type="line" smooth="yes"/>
      <point x="476.4" y="600.8"/>
      <point x="514.4" y="581.6"/>
      <point x="514.4" y="523.2" type="curve" smooth="yes"/>
      <point x="514.4" y="451.2"/>
      <point x="462.8" y="380.0"/>
      <point x="377.2" y="380.0" type="curve" smooth="yes"/>
      <point x="207.2" y="380.0" type="line"/>
      <point x="186.4" y="270.4" type="line"/>
      <point x="388.8" y="270.4" type="line" smooth="yes"/>
      <point x="436.0" y="270.4"/>
      <point x="463.6" y="249.6"/>
      <point x="463.6" y="210.4" type="curve" smooth="yes"/>
      <point x="463.6" y="149.6"/>
      <point x="415.6" y="116.0"/>
      <point x="359.6" y="116.0" type="curve" smooth="yes"/>
      <point x="154.4" y="116.0" type="line"/>
    </contour>
    <contour>
      <point x="34.4" y="0.0" type="line"/>
      <point x="176.8" y="0.0" type="line"/>
      <point x="316.8" y="720.0" type="line"/>
      <point x="174.4" y="720.0" type="line"/>
    </contour>
  </outline>
</glyph>
<glyph name="C" format="2">
  <advance width="648.0"/>
  <unicode hex="0043"/>
  <note>
C
</note>
  <anchor x="296.2" y="0.0" name="bottom"/>
  <anchor x="436.2" y="720.0" name="top"/>
  <outline>
    <contour>
      <point x="60.0" y="303.2" type="curve" smooth="yes"/>
      <point x="60.0" y="106.4"/>
      <point x="172.0" y="-12.0"/>
      <point x="391.2" y="-12.0" type="curve" smooth="yes"/>
      <point x="451.2" y="-12.0"/>
      <point x="503.2" y="0.0"/>
      <point x="541.6" y="16.8" type="curve"/>
      <point x="566.4" y="142.4" type="line"/>
      <point x="556.8" y="142.4" type="line"/>
      <point x="518.4" y="122.4"/>
      <point x="464.8" y="111.2"/>
      <point x="408.0" y="111.2" type="curve" smooth="yes"/>
      <point x="275.2" y="111.2"/>
      <point x="206.4" y="175.2"/>
      <point x="206.4" y="308.0" type="curve" smooth="yes"/>
      <point x="206.4" y="466.4"/>
      <point x="305.6" y="608.8"/>
      <point x="486.4" y="608.8" type="curve" smooth="yes"/>
      <point x="557.6" y="608.8"/>
      <point x="600.8" y="596.0"/>
      <point x="634.0" y="576.0" type="curve"/>
      <point x="643.6" y="576.0" type="line"/>
      <point x="668.0" y="703.2" type="line"/>
      <point x="633.6" y="720.0"/>
      <point x="563.2" y="732.0"/>
      <point x="493.6" y="732.0" type="curve" smooth="yes"/>
      <point x="214.4" y="732.0"/>
      <point x="60.0" y="529.6"/>
    </contour>
  </outline>
</glyph>
<glyph name="D" format="2">
  <advance width="742.4"/>
  <unicode hex="0044"/>
  <note>
D
</note>
  <anchor x="313.2" y="0.0" name="bottom"/>
  <anchor x="184.8" y="365.6" name="center"/>
  <anchor x="466.2" y="720.0" name="top"/>
  <outline>
    <contour>
      <point x="272.0" y="720.0" type="line"/>
      <point x="248.0" y="596.0" type="line"/>
      <point x="404.8" y="596.0" type="line" smooth="yes"/>
      <point x="521.6" y="596.0"/>
      <point x="576.0" y="548.0"/>
      <point x="576.0" y="441.6" type="curve" smooth="yes"/>
      <point x="576.0" y="305.6"/>
      <point x="487.2" y="124.0"/>
      <point x="302.4" y="124.0" type="curve" smooth="yes"/>
      <point x="156.0" y="124.0" type="line"/>
      <point x="132.0" y="0.0" type="line"/>
      <point x="299.2" y="0.0" type="line" smooth="yes"/>
      <point x="582.4" y="0.0"/>
      <point x="722.4" y="241.6"/>
      <point x="722.4" y="448.8" type="curve" smooth="yes"/>
      <point x="722.4" y="628.0"/>
      <point x="608.8" y="720.0"/>
      <point x="412.8" y="720.0" type="curve" smooth="yes"/>
    </contour>
    <contour>
      <point x="34.4" y="0.0" type="line"/>
      <point x="176.8" y="0.0" type="line"/>
      <point x="316.8" y="720.0" type="line"/>
      <point x="174.4" y="720.0" type="line"/>
    </contour>
  </outline>
</glyph>
<glyph name="E" format="2">
  <advance width="614.4"/>
  <unicode hex="0045"/>
  <note>
E
</note>
  <anchor x="266.6" y="0.0" name="bottom"/>
  <anchor x="510.8" y="0.0" name="ogonek"/>
  <anchor x="406.2" y="720.0" name="top"/>
  <anchor x="107.0" y="720.0" name="topleft"/>
  <outline>
    <contour>
      <point x="34.4" y="0.0" type="line"/>
      <point x="176.8" y="0.0" type="line"/>
      <point x="316.8" y="720.0" type="line"/>
      <point x="174.4" y="720.0" type="line"/>
    </contour>
    <contour>
      <point x="132.0" y="0.0" type="line"/>
      <point x="510.8" y="0.0" type="line"/>
      <point x="534.0" y="124.0" type="line"/>
      <point x="156.0" y="124.0" type="line"/>
    </contour>
    <contour>
      <point x="195.2" y="308.8" type="line"/>
      <point x="509.2" y="308.8" type="line"/>
      <point x="531.6" y="428.0" type="line"/>
      <point x="217.6" y="428.0" type="line"/>
    </contour>
    <contour>
      <point x="248.0" y="596.0" type="line"/>
      <point x="617.2" y="596.0" type="line"/>
      <point x="640.4" y="720.0" type="line"/>
      <point x="272.0" y="720.0" type="line"/>
    </contour>
  </outline>
</glyph>
<glyph name="F" format="2">
  <advance width="578.4"/>
  <unicode hex="0046"/>
  <note>
F
</note>
  <anchor x="236.2" y="0.0" name="bottom"/>
  <anchor x="376.2" y="720.0" name="top"/>
  <outline>
    <contour>
      <point x="34.4" y="0.0" type="line"/>
      <point x="176.8" y="0.0" type="line"/>
      <point x="316.8" y="720.0" type="line"/>
      <point x="174.4" y="720.0" type="line"/>
    </contour>
    <contour>
      <point x="177.6" y="254.4" type="line"/>
      <point x="491.6" y="254.4" type="line"/>
      <point x="514.0" y="373.6" type="line"/>
      <point x="200.0" y="373.6" type="line"/>
    </contour>
    <contour>
      <point x="248.0" y="596.0" type="line"/>
      <point x="610.0" y="596.0" type="line"/>
      <point x="633.2" y="720.0" type="line"/>
      <point x="272.0" y="720.0" type="line"/>
    </contour>
  </outline>
</glyph>
<glyph name="G" format="2">
  <advance width="700.0"/>
  <unicode hex="0047"/>
  <note>
G
</note>
  <anchor x="297.0" y="0.0" name="bottom"/>
  <anchor x="437.0" y="720.0" name="top"/>
  <outline>
    <contour>
      <point x="61.2" y="303.2" type="curve" smooth="yes"/>
      <point x="61.2" y="104.0"/>
      <point x="171.6" y="-12.0"/>
      <point x="396.4" y="-12.0" type="curve" smooth="yes"/>
      <point x="454.8" y="-12.0"/>
      <point x="535.6" y="0.0"/>
      <point x="583.2" y="22.4" type="curve"/>
      <point x="649.2" y="365.6" type="line"/>
      <point x="514.0" y="365.6" type="line"/>
      <point x="455.6" y="62.4" type="line"/>
      <point x="492.2" y="131.6" type="line"/>
      <point x="467.0" y="115.2"/>
      <point x="432.0" y="107.2"/>
      <point x="394.8" y="107.2" type="curve" smooth="yes"/>
      <point x="270.6" y="107.2"/>
      <point x="207.6" y="175.2"/>
      <point x="207.6" y="305.6" type="curve" smooth="yes"/>
      <point x="207.6" y="472.8"/>
      <point x="309.6" y="608.8"/>
      <point x="497.6" y="608.8" type="curve" smooth="yes"/>
      <point x="571.2" y="608.8"/>
      <point x="626.8" y="591.4"/>
      <point x="660.0" y="574.4" type="curve"/>
      <point x="669.6" y="574.4" type="line"/>
      <point x="694.0" y="701.6" type="line"/>
      <point x="653.2" y="720.0"/>
      <point x="578.4" y="732.0"/>
      <point x="502.4" y="732.0" type="curve" smooth="yes"/>
      <point x="218.4" y="732.0"/>
      <point x="61.2" y="534.4"/>
    </contour>
  </outline>
</glyph>
<glyph name="H" format="2">
  <advance width="755.2"/>
  <unicode hex="0048"/>
  <note>
H
</note>
  <anchor x="322.6" y="0.0" name="bottom"/>
  <anchor x="439.8" y="577.6" name="center"/>
  <anchor x="465.0" y="720.0" name="top"/>
  <anchor x="601.0" y="720.0" name="topleft"/>
  <outline>
    <contour>
      <point x="617.6" y="720.0" type="line"/>
      <point x="477.6" y="0.0" type="line"/>
      <point x="620.0" y="0.0" type="line"/>
      <point x="760.0" y="720.0" type="line"/>
    </contour>
    <contour>
      <point x="176.8" y="0.0" type="line"/>
      <point x="316.8" y="720.0" type="line"/>
      <point x="174.4" y="720.0" type="line"/>
      <point x="34.4" y="0.0" type="line"/>
    </contour>
    <contour>
      <point x="580.8" y="304.8" type="line"/>
      <point x="604.8" y="428.8" type="line"/>
      <point x="212.8" y="428.8" type="line"/>
      <point x="188.8" y="304.8" type="line"/>
    </contour>
  </outline>
</glyph>
<glyph name="I" format="2">
  <advance width="312.0"/>
  <unicode hex="0049"/>
  <note>
I
</note>
  <anchor x="103.0" y="0.0" name="bottom"/>
  <anchor x="176.8" y="0.0" name="ogonek"/>
  <anchor x="243.0" y="720.0" name="top"/>
  <anchor x="107.0" y="720.0" name="topleft"/>
  <outline>
    <contour>
      <point x="174.4" y="720.0" type="line"/>
      <point x="34.4" y="0.0" type="line"/>
      <point x="176.8" y="0.0" type="line"/>
      <point x="316.8" y="720.0" type="line"/>
    </contour>
  </outline>
</glyph>
<glyph name="J" format="2">
  <advance width="440.8"/>
  <unicode hex="004A"/>
  <note>
J
</note>
  <anchor x="167.4" y="0.0" name="bottom"/>
  <anchor x="307.4" y="720.0" name="top"/>
  <outline>
    <contour>
      <point x="83.2" y="-12.0" type="curve" smooth="yes"/>
      <point x="233.6" y="-12.0"/>
      <point x="330.4" y="56.8"/>
      <point x="361.2" y="217.2" type="curve" smooth="yes"/>
      <point x="457.6" y="720.0" type="line"/>
      <point x="315.2" y="720.0" type="line"/>
      <point x="219.6" y="222.0" type="line" smooth="yes"/>
      <point x="202.6" y="136.8"/>
      <point x="154.4" y="107.2"/>
      <point x="77.6" y="107.2" type="curve" smooth="yes"/>
      <point x="44.8" y="107.2"/>
      <point x="16.8" y="114.4"/>
      <point x="0.8000000000000007" y="123.2" type="curve"/>
      <point x="-8.799999999999999" y="123.2" type="line"/>
      <point x="-31.2" y="4.0" type="line"/>
      <point x="-6.3999999999999995" y="-4.0"/>
      <point x="38.4" y="-12.0"/>
    </contour>
  </outline>
</glyph>
<glyph name="K" format="2">
  <advance width="692.8"/>
  <unicode hex="004B"/>
  <note>
K
</note>
  <anchor x="293.4" y="0.0" name="bottom"/>
  <anchor x="433.4" y="720.0" name="top"/>
  <outline>
    <contour>
      <point x="181.6" y="260.8" type="line"/>
      <point x="292.8" y="260.8" type="line" smooth="yes"/>
      <point x="403.2" y="260.8"/>
      <point x="494.4" y="316.8"/>
      <point x="560.4" y="426.4" type="curve" smooth="yes"/>
      <point x="735.6" y="710.4" type="line"/>
      <point x="735.6" y="720.0" type="line"/>
      <point x="591.2" y="720.0" type="line"/>
      <point x="438.4" y="465.6" type="line" smooth="yes"/>
      <point x="410.0" y="417.6"/>
      <point x="369.6" y="383.2"/>
      <point x="303.2" y="383.2" type="curve" smooth="yes"/>
      <point x="205.6" y="383.2" type="line"/>
    </contour>
    <contour>
      <point x="34.4" y="0.0" type="line"/>
      <point x="176.8" y="0.0" type="line"/>
      <point x="316.8" y="720.0" type="line"/>
      <point x="174.4" y="720.0" type="line"/>
    </contour>
    <contour>
      <point x="448.0" y="0.0" type="line"/>
      <point x="598.0" y="0.0" type="line"/>
      <point x="598.0" y="9.6" type="line"/>
      <point x="453.6" y="338.4" type="line"/>
      <point x="329.6" y="290.4" type="line"/>
    </contour>
  </outline>
</glyph>
<glyph name="L" format="2">
  <advance width="548.0"/>
  <unicode hex="004C"/>
  <note>
L
</note>
  <anchor x="216.0" y="0.0" name="bottom"/>
  <anchor x="196.8" y="390.8" name="center"/>
  <anchor x="409.6" y="408.0" name="periodCAT"/>
  <anchor x="369.0" y="720.0" name="top"/>
  <anchor x="463.0" y="517.6" name="topright"/>
  <outline>
    <contour>
      <point x="34.4" y="0.0" type="line"/>
      <point x="466.8" y="0.0" type="line"/>
      <point x="490.0" y="124.0" type="line"/>
      <point x="200.8" y="124.0" type="line"/>
      <point x="316.8" y="720.0" type="line"/>
      <point x="174.4" y="720.0" type="line"/>
    </contour>
  </outline>
</glyph>
<glyph name="M" format="2">
  <advance width="850.4"/>
  <unicode hex="004D"/>
  <note>
M
</note>
  <anchor x="372.2" y="0.0" name="bottom"/>
  <anchor x="512.2" y="720.0" name="top"/>
  <outline>
    <contour>
      <point x="172.8" y="720.0" type="line"/>
      <point x="34.4" y="0.0" type="line"/>
      <point x="176.8" y="0.0" type="line"/>
      <point x="276.0" y="517.6" type="line"/>
      <point x="238.4" y="520.0" type="line"/>
      <point x="374.0" y="198.4" type="line"/>
      <point x="459.6" y="198.4" type="line"/>
      <point x="710.4" y="508.8" type="line"/>
      <point x="675.2" y="525.6" type="line"/>
      <point x="574.4" y="0.0" type="line"/>
      <point x="716.8" y="0.0" type="line"/>
      <point x="855.2" y="720.0" type="line"/>
      <point x="733.6" y="720.0" type="line"/>
      <point x="412.8" y="320.0" type="line"/>
      <point x="462.4" y="316.0" type="line"/>
      <point x="292.8" y="720.0" type="line"/>
    </contour>
  </outline>
</glyph>
<glyph name="N" format="2">
  <advance width="756.8"/>
  <unicode hex="004E"/>
  <note>
N
</note>
  <anchor x="325.4" y="0.0" name="bottom"/>
  <anchor x="465.4" y="720.0" name="top"/>
  <outline>
    <contour>
      <point x="480.8" y="0.0" type="line"/>
      <point x="623.2" y="0.0" type="line"/>
      <point x="761.6" y="720.0" type="line"/>
      <point x="619.2" y="720.0" type="line"/>
    </contour>
    <contour>
      <point x="34.4" y="0.0" type="line"/>
      <point x="176.8" y="0.0" type="line"/>
      <point x="281.6" y="552.0" type="line"/>
      <point x="239.2" y="558.4" type="line"/>
      <point x="556.8" y="135.2" type="line"/>
      <point x="588.0" y="316.0" type="line"/>
      <point x="285.6" y="720.0" type="line"/>
      <point x="172.8" y="720.0" type="line"/>
    </contour>
  </outline>
</glyph>
<glyph name="O" format="2">
  <advance width="803.6"/>
  <unicode hex="004F"/>
  <note>
O
</note>
  <anchor x="348.6" y="0.0" name="bottom"/>
  <anchor x="418.6" y="360.0" name="center"/>
  <anchor x="477.8" y="0.0" name="ogonek"/>
  <anchor x="488.6" y="720.0" name="top"/>
  <anchor x="107.0" y="720.0" name="topleft"/>
  <anchor x="566.0" y="717.2" name="topright"/>
  <outline>
    <contour>
      <point x="60.0" y="292.0" type="curve" smooth="yes"/>
      <point x="60.0" y="104.0"/>
      <point x="176.0" y="-12.0"/>
      <point x="375.2" y="-12.0" type="curve" smooth="yes"/>
      <point x="640.8" y="-12.0"/>
      <point x="783.2" y="208.8"/>
      <point x="783.2" y="428.0" type="curve" smooth="yes"/>
      <point x="783.2" y="612.8"/>
      <point x="667.2" y="732.0"/>
      <point x="468.0" y="732.0" type="curve" smooth="yes"/>
      <point x="204.8" y="732.0"/>
      <point x="60.0" y="508.0"/>
    </contour>
    <contour>
      <point x="206.4" y="296.8" type="curve" smooth="yes"/>
      <point x="206.4" y="436.0"/>
      <point x="287.2" y="608.8"/>
      <point x="460.8" y="608.8" type="curve" smooth="yes"/>
      <point x="566.4" y="608.8"/>
      <point x="636.8" y="548.8"/>
      <point x="636.8" y="423.2" type="curve" smooth="yes"/>
      <point x="636.8" y="284.0"/>
      <point x="556.0" y="111.2"/>
      <point x="382.4" y="111.2" type="curve" smooth="yes"/>
      <point x="276.8" y="111.2"/>
      <point x="206.4" y="171.2"/>
    </contour>
  </outline>
</glyph>
<glyph name="P" format="2">
  <advance width="656.8"/>
  <unicode hex="0050"/>
  <note>
P
</note>
  <anchor x="275.4" y="0.0" name="bottom"/>
  <anchor x="415.4" y="720.0" name="top"/>
  <outline>
    <contour>
      <point x="173.6" y="208.0" type="line"/>
      <point x="344.0" y="208.0" type="line" smooth="yes"/>
      <point x="543.2" y="208.0"/>
      <point x="668.8" y="354.4"/>
      <point x="668.8" y="511.2" type="curve" smooth="yes"/>
      <point x="668.8" y="651.2"/>
      <point x="576.8" y="720.0"/>
      <point x="430.4" y="720.0" type="curve" smooth="yes"/>
      <point x="272.0" y="720.0" type="line"/>
      <point x="249.6" y="599.2" type="line"/>
      <point x="419.2" y="599.2" type="line" smooth="yes"/>
      <point x="483.2" y="599.2"/>
      <point x="524.0" y="570.4"/>
      <point x="524.0" y="504.8" type="curve" smooth="yes"/>
      <point x="524.0" y="410.4"/>
      <point x="456.8" y="325.6"/>
      <point x="344.0" y="325.6" type="curve" smooth="yes"/>
      <point x="196.0" y="325.6" type="line"/>
    </contour>
    <contour>
      <point x="34.4" y="0.0" type="line"/>
      <point x="176.8" y="0.0" type="line"/>
      <point x="316.8" y="720.0" type="line"/>
      <point x="174.4" y="720.0" type="line"/>
    </contour>
  </outline>
</glyph>
<glyph name="Q" format="2">
  <advance width="803.2"/>
  <unicode hex="0051"/>
  <note>
Q
</note>
  <anchor x="348.6" y="0.0" name="bottom"/>
  <anchor x="488.6" y="720.0" name="top"/>
  <anchor x="418.6" y="360.0" name="center"/>
  <anchor x="477.8" y="0.0" name="ogonek"/>
  <anchor x="107.0" y="720.0" name="topleft"/>
  <anchor x="566.0" y="717.2" name="topright"/>
  <outline>
    <contour>
      <point x="529.6" y="100.0" type="line"/>
      <point x="393.6" y="59.2" type="line"/>
      <point x="596.0" y="-160.0" type="line"/>
      <point x="771.2" y="-160.0" type="line"/>
      <point x="771.2" y="-150.4" type="line"/>
    </contour>
    <component base="O"/>
  </outline>
</glyph>
<glyph name="R" format="2">
  <advance width="694.0"/>
  <unicode hex="0052"/>
  <note>
R
</note>
  <anchor x="294.0" y="0.0" name="bottom"/>
  <anchor x="434.0" y="720.0" name="top"/>
  <outline>
    <contour>
      <point x="168.0" y="190.4" type="line"/>
      <point x="359.2" y="190.4" type="line"/>
      <point x="495.2" y="190.4"/>
      <point x="674.4" y="320.0"/>
      <point x="674.4" y="506.4" type="curve" smooth="yes"/>
      <point x="674.4" y="647.2"/>
      <point x="591.2" y="720.0"/>
      <point x="430.4" y="720.0" type="curve" smooth="yes"/>
      <point x="270.4" y="720.0" type="line"/>
      <point x="248.0" y="599.2" type="line"/>
      <point x="420.8" y="599.2" type="line" smooth="yes"/>
      <point x="486.4" y="599.2"/>
      <point x="529.6" y="572.0"/>
      <point x="529.6" y="501.6" type="curve" smooth="yes"/>
      <point x="529.6" y="407.2"/>
      <point x="458.4" y="310.4"/>
      <point x="342.4" y="310.4" type="curve" smooth="yes"/>
      <point x="192.0" y="310.4" type="line"/>
    </contour>
    <contour>
      <point x="34.4" y="0.0" type="line"/>
      <point x="176.8" y="0.0" type="line"/>
      <point x="316.8" y="720.0" type="line"/>
      <point x="174.4" y="720.0" type="line"/>
    </contour>
    <contour>
      <point x="451.6" y="0.0" type="line"/>
      <point x="607.2" y="0.0" type="line"/>
      <point x="607.2" y="9.6" type="line"/>
      <point x="459.2" y="262.4" type="line"/>
      <point x="334.4" y="216.8" type="line"/>
    </contour>
  </outline>
</glyph>
<glyph name="S" format="2">
  <advance width="609.6"/>
  <unicode hex="0053"/>
  <note>
S
</note>
  <anchor x="251.8" y="0.0" name="bottom"/>
  <anchor x="391.8" y="720.0" name="top"/>
  <outline>
    <contour>
      <point x="47.2" y="156.8" type="line"/>
      <point x="22.8" y="31.2" type="line"/>
      <point x="80.0" y="5.6"/>
      <point x="161.6" y="-12.0"/>
      <point x="248.8" y="-12.0" type="curve" smooth="yes"/>
      <point x="432.0" y="-12.0"/>
      <point x="562.0" y="52.8"/>
      <point x="562.0" y="207.2" type="curve" smooth="yes"/>
      <point x="562.0" y="316.8"/>
      <point x="479.8" y="361.8"/>
      <point x="388.0" y="383.2" type="curve" smooth="yes"/>
      <point x="327.2" y="398.4" type="line" smooth="yes"/>
      <point x="263.4" y="413.4"/>
      <point x="232.0" y="433.6"/>
      <point x="232.0" y="487.6" type="curve" smooth="yes"/>
      <point x="232.0" y="578.0"/>
      <point x="312.8" y="612.0"/>
      <point x="421.6" y="612.0" type="curve" smooth="yes"/>
      <point x="500.0" y="612.0"/>
      <point x="556.0" y="594.4"/>
      <point x="588.8" y="576.8" type="curve"/>
      <point x="598.4" y="576.8" type="line"/>
      <point x="622.8" y="702.4" type="line"/>
      <point x="586.6" y="719.2"/>
      <point x="508.8" y="732.0"/>
      <point x="432.8" y="732.0" type="curve" smooth="yes"/>
      <point x="213.6" y="732.0"/>
      <point x="88.4" y="638.0"/>
      <point x="88.4" y="474.4" type="curve" smooth="yes"/>
      <point x="88.4" y="357.6"/>
      <point x="167.0" y="306.2"/>
      <point x="271.2" y="282.4" type="curve" smooth="yes"/>
      <point x="332.0" y="267.2" type="line" smooth="yes"/>
      <point x="388.6" y="253.6"/>
      <point x="418.4" y="242.8"/>
      <point x="418.4" y="194.4" type="curve" smooth="yes"/>
      <point x="418.4" y="132.0"/>
      <point x="350.4" y="108.0"/>
      <point x="260.8" y="108.0" type="curve" smooth="yes"/>
      <point x="170.4" y="108.0"/>
      <point x="102.4" y="129.6"/>
      <point x="56.8" y="156.8" type="curve"/>
    </contour>
  </outline>
</glyph>
<glyph name="T" format="2">
  <advance width="612.8"/>
  <unicode hex="0054"/>
  <note>
T
</note>
  <anchor x="258.8" y="0.0" name="bottom"/>
  <anchor x="323.4" y="360.0" name="center"/>
  <anchor x="393.4" y="720.0" name="top"/>
  <outline>
    <contour>
      <point x="105.2" y="720.0" type="line"/>
      <point x="82.0" y="596.0" type="line"/>
      <point x="301.8" y="596.0" type="line"/>
      <point x="187.6" y="0.0" type="line"/>
      <point x="330.0" y="0.0" type="line"/>
      <point x="444.2" y="596.0" type="line"/>
      <point x="664.4" y="596.0" type="line"/>
      <point x="687.6" y="720.0" type="line"/>
    </contour>
  </outline>
</glyph>
<glyph name="U" format="2">
  <advance width="731.2"/>
  <unicode hex="0055"/>
  <note>
U
</note>
  <anchor x="312.6" y="0.0" name="bottom"/>
  <anchor x="373.0" y="10.0" name="ogonek"/>
  <anchor x="453.0" y="720.0" name="top"/>
  <anchor x="712.8" y="720.0" name="topright"/>
  <outline>
    <contour>
      <point x="77.6" y="196.6" type="curve" smooth="yes"/>
      <point x="77.6" y="64.8"/>
      <point x="159.2" y="-12.0"/>
      <point x="328.8" y="-12.0" type="curve" smooth="yes"/>
      <point x="520.8" y="-12.0"/>
      <point x="623.2" y="92.0"/>
      <point x="660.8" y="287.2" type="curve" smooth="yes"/>
      <point x="744.0" y="720.0" type="line"/>
      <point x="601.6" y="720.0" type="line"/>
      <point x="516.8" y="280.8" type="line" smooth="yes"/>
      <point x="494.2" y="163.2"/>
      <point x="435.2" y="111.2"/>
      <point x="339.2" y="111.2" type="curve" smooth="yes"/>
      <point x="259.6" y="111.2"/>
      <point x="220.8" y="144.8"/>
      <point x="220.8" y="218.4" type="curve" smooth="yes"/>
      <point x="220.8" y="237.4"/>
      <point x="223.0" y="257.8"/>
      <point x="227.2" y="280.8" type="curve" smooth="yes"/>
      <point x="312.0" y="720.0" type="line"/>
      <point x="169.6" y="720.0" type="line"/>
      <point x="86.4" y="288.8" type="line" smooth="yes"/>
      <point x="80.0" y="255.2"/>
      <point x="77.6" y="223.2"/>
    </contour>
  </outline>
</glyph>
<glyph name="V" format="2">
  <advance width="674.0"/>
  <unicode hex="0056"/>
  <note>
V
</note>
  <anchor x="284.0" y="0.0" name="bottom"/>
  <anchor x="424.0" y="720.0" name="top"/>
  <outline>
    <contour>
      <point x="34.0" y="19.2" type="curve"/>
      <point x="37.2" y="7.2" type="line"/>
      <point x="87.6" y="-4.8"/>
      <point x="141.2" y="-10.4"/>
      <point x="194.0" y="-10.4" type="curve" smooth="yes"/>
      <point x="390.8" y="-10.4"/>
      <point x="494.2" y="51.4"/>
      <point x="560.0" y="240.0" type="curve" smooth="yes"/>
      <point x="726.8" y="720.0" type="line"/>
      <point x="580.4" y="720.0" type="line"/>
      <point x="417.6" y="248.0" type="line" smooth="yes"/>
      <point x="387.4" y="159.8"/>
      <point x="349.2" y="110.4"/>
      <point x="239.6" y="110.4" type="curve" smooth="yes"/>
      <point x="215.6" y="110.4"/>
      <point x="196.0" y="112.80000000000001"/>
      <point x="168.8" y="123.2" type="curve"/>
      <point x="185.6" y="80.8" type="line"/>
      <point x="195.8" y="100.2"/>
      <point x="208.0" y="134.6"/>
      <point x="213.6" y="167.2" type="curve" smooth="yes"/>
      <point x="320.0" y="720.0" type="line"/>
      <point x="177.6" y="720.0" type="line"/>
      <point x="71.2" y="165.6" type="line" smooth="yes"/>
      <point x="63.2" y="125.6"/>
      <point x="47.6" y="57.6"/>
    </contour>
  </outline>
</glyph>
<glyph name="W" format="2">
  <advance width="1076.0"/>
  <unicode hex="0057"/>
  <note>
W
</note>
  <anchor x="485.0" y="0.0" name="bottom"/>
  <anchor x="625.0" y="720.0" name="top"/>
  <outline>
    <contour>
      <point x="622.4" y="-10.4" type="curve" smooth="yes"/>
      <point x="790.0" y="-10.4"/>
      <point x="897.0" y="71.4"/>
      <point x="959.2" y="237.6" type="curve" smooth="yes"/>
      <point x="1140.0" y="720.0" type="line"/>
      <point x="993.6" y="720.0" type="line"/>
      <point x="816.0" y="243.2" type="line" smooth="yes"/>
      <point x="784.4" y="159.2"/>
      <point x="739.2" y="110.4"/>
      <point x="651.2" y="110.4" type="curve" smooth="yes"/>
      <point x="624.8" y="110.4"/>
      <point x="606.0" y="111.2"/>
      <point x="579.2" y="120.80000000000001" type="curve"/>
      <point x="621.6" y="85.6" type="line"/>
      <point x="629.6" y="114.4"/>
      <point x="638.0" y="157.8"/>
      <point x="643.2" y="209.6" type="curve" smooth="yes"/>
      <point x="690.4" y="720.0" type="line"/>
      <point x="551.2" y="720.0" type="line"/>
      <point x="499.2" y="163.2" type="line" smooth="yes"/>
      <point x="495.4" y="123.6"/>
      <point x="486.0" y="57.6"/>
      <point x="475.2" y="19.2" type="curve"/>
      <point x="478.4" y="7.2" type="line"/>
      <point x="525.6" y="-2.4"/>
      <point x="572.4" y="-10.4"/>
    </contour>
    <contour>
      <point x="208.0" y="-10.4" type="curve" smooth="yes"/>
      <point x="370.4" y="-10.4"/>
      <point x="463.4" y="80.4"/>
      <point x="512.8" y="235.2" type="curve" smooth="yes"/>
      <point x="539.2" y="319.2" type="line"/>
      <point x="555.2" y="584.8" type="line"/>
      <point x="416.0" y="251.2" type="line" smooth="yes"/>
      <point x="381.2" y="167.6"/>
      <point x="342.4" y="110.4"/>
      <point x="254.4" y="110.4" type="curve" smooth="yes"/>
      <point x="229.8" y="110.4"/>
      <point x="217.6" y="112.80000000000001"/>
      <point x="196.8" y="121.6" type="curve"/>
      <point x="213.6" y="84.8" type="line"/>
      <point x="220.4" y="113.6"/>
      <point x="227.0" y="156.8"/>
      <point x="232.8" y="209.6" type="curve" smooth="yes"/>
      <point x="282.4" y="720.0" type="line"/>
      <point x="140.0" y="720.0" type="line"/>
      <point x="89.6" y="179.2" type="line" smooth="yes"/>
      <point x="84.0" y="117.2"/>
      <point x="75.2" y="64.8"/>
      <point x="61.6" y="19.2" type="curve"/>
      <point x="64.8" y="7.2" type="line"/>
      <point x="105.6" y="-3.5999999999999996"/>
      <point x="160.8" y="-10.4"/>
    </contour>
  </outline>
</glyph>
<glyph name="X" format="2">
  <advance width="684.0"/>
  <unicode hex="0058"/>
  <note>
X
</note>
  <anchor x="289.0" y="0.0" name="bottom"/>
  <anchor x="429.0" y="720.0" name="top"/>
  <outline>
    <contour>
      <point x="-24.0" y="0.0" type="line"/>
      <point x="132.8" y="0.0" type="line"/>
      <point x="400.8" y="316.8" type="line"/>
      <point x="750.4" y="710.4" type="line"/>
      <point x="750.4" y="720.0" type="line"/>
      <point x="593.6" y="720.0" type="line"/>
      <point x="332.0" y="409.6" type="line"/>
      <point x="-24.0" y="9.6" type="line"/>
    </contour>
    <contour>
      <point x="461.6" y="0.0" type="line"/>
      <point x="612.0" y="0.0" type="line"/>
      <point x="612.0" y="9.6" type="line"/>
      <point x="413.6" y="412.0" type="line"/>
      <point x="263.2" y="720.0" type="line"/>
      <point x="112.8" y="720.0" type="line"/>
      <point x="112.8" y="710.4" type="line"/>
      <point x="312.8" y="303.2" type="line"/>
    </contour>
  </outline>
</glyph>
<glyph name="Y" format="2">
  <advance width="637.6"/>
  <unicode hex="0059"/>
  <note>
Y
</note>
  <anchor x="265.8" y="0.0" name="bottom"/>
  <anchor x="405.8" y="720.0" name="top"/>
  <anchor x="107.0" y="720.0" name="topleft"/>
  <outline>
    <contour>
      <point x="254.8" y="305.8" type="line"/>
      <point x="196.0" y="0.0" type="line"/>
      <point x="338.4" y="0.0" type="line"/>
      <point x="396.2" y="300.4" type="line"/>
      <point x="721.6" y="710.4" type="line"/>
      <point x="721.6" y="720.0" type="line"/>
      <point x="571.2" y="720.0" type="line"/>
      <point x="320.0" y="384.0" type="line"/>
      <point x="365.6" y="380.0" type="line"/>
      <point x="239.6" y="720.0" type="line"/>
      <point x="96.0" y="720.0" type="line"/>
      <point x="96.0" y="710.4" type="line"/>
    </contour>
  </outline>
</glyph>
<glyph name="Z" format="2">
  <advance width="617.2"/>
  <unicode hex="005A"/>
  <note>
Z
</note>
  <anchor x="255.6" y="0.0" name="bottom"/>
  <anchor x="395.6" y="720.0" name="top"/>
  <outline>
    <contour>
      <point x="135.4" y="720.0" type="line"/>
      <point x="111.4" y="596.0" type="line"/>
      <point x="495.2" y="596.0" type="line"/>
      <point x="480.0" y="640.8" type="line"/>
      <point x="35.4" y="117.6" type="line" smooth="yes"/>
      <point x="-0.7999999999999989" y="75.0"/>
      <point x="-10.6" y="39.0"/>
      <point x="-8.6" y="9.6" type="curve"/>
      <point x="1.0" y="0.0" type="line"/>
      <point x="526.6" y="0.0" type="line"/>
      <point x="550.6" y="124.0" type="line"/>
      <point x="149.6" y="124.0" type="line"/>
      <point x="162.4" y="76.8" type="line"/>
      <point x="610.6" y="602.4" type="line" smooth="yes"/>
      <point x="648.4" y="646.6"/>
      <point x="657.0" y="679.0"/>
      <point x="654.6" y="710.4" type="curve"/>
      <point x="646.6" y="720.0" type="line"/>
    </contour>
  </outline>
</glyph>
<glyph name="bracketleft" format="2">
  <advance width="369.6"/>
  <unicode hex="005B"/>
  <note>
bracketleft
</note>
  <outline>
    <contour>
      <point x="189.6" y="760.0" type="line"/>
      <point x="25.599999999999998" y="-88.0" type="line"/>
      <point x="281.6" y="-88.0" type="line"/>
      <point x="301.2" y="16.8" type="line"/>
      <point x="167.6" y="16.8" type="line"/>
      <point x="291.4" y="655.2" type="line"/>
      <point x="426.0" y="655.2" type="line"/>
      <point x="445.6" y="760.0" type="line"/>
    </contour>
  </outline>
</glyph>
<glyph name="backslash" format="2">
  <advance width="544.8"/>
  <unicode hex="005C"/>
  <note>
backslash
</note>
  <outline>
    <contour>
      <point x="354.0" y="0.0" type="line"/>
      <point x="470.8" y="0.0" type="line"/>
      <point x="230.8" y="720.0" type="line"/>
      <point x="114.0" y="720.0" type="line"/>
    </contour>
  </outline>
</glyph>
<glyph name="bracketright" format="2">
  <advance width="369.6"/>
  <unicode hex="005D"/>
  <note>
bracketright
</note>
  <outline>
    <contour>
      <point x="112.6" y="760.0" type="line"/>
      <point x="93.0" y="655.2" type="line"/>
      <point x="225.6" y="655.2" type="line"/>
      <point x="101.8" y="16.8" type="line"/>
      <point x="-31.8" y="16.8" type="line"/>
      <point x="-51.4" y="-88.0" type="line"/>
      <point x="204.6" y="-88.0" type="line"/>
      <point x="368.6" y="760.0" type="line"/>
    </contour>
  </outline>
</glyph>
<glyph name="asciicircum" format="2">
  <advance width="616.0"/>
  <unicode hex="005E"/>
  <note>
asciicircum
</note>
  <outline>
    <contour>
      <point x="88.2" y="392.0" type="line"/>
      <point x="197.0" y="392.0" type="line"/>
      <point x="312.8" y="586.4" type="line"/>
      <point x="429.8" y="392.0" type="line"/>
      <point x="537.0" y="392.0" type="line"/>
      <point x="537.0" y="400.0" type="line"/>
      <point x="345.6" y="727.2" type="line"/>
      <point x="280.0" y="727.2" type="line"/>
      <point x="88.2" y="400.0" type="line"/>
    </contour>
  </outline>
</glyph>
<glyph name="a" format="2">
  <advance width="603.6"/>
  <unicode hex="0061"/>
  <note>
a
</note>
  <anchor x="248.8" y="0.0" name="bottom"/>
  <anchor x="490.4" y="24.8" name="ogonek"/>
  <anchor x="354.8" y="545.6" name="top"/>
  <outline>
    <contour>
      <point x="264.8" y="-12.0" type="curve" smooth="yes"/>
      <point x="345.6" y="-12.0"/>
      <point x="419.2" y="2.4"/>
      <point x="490.4" y="24.8" type="curve"/>
      <point x="496.0" y="32.8" type="line"/>
      <point x="494.4" y="84.8"/>
      <point x="505.4" y="141.0"/>
      <point x="516.0" y="196.8" type="curve" smooth="yes"/>
      <point x="538.4" y="312.8" type="line" smooth="yes"/>
      <point x="571.0" y="482.2"/>
      <point x="492.8" y="559.2"/>
      <point x="313.6" y="559.2" type="curve" smooth="yes"/>
      <point x="251.2" y="559.2"/>
      <point x="199.2" y="550.0"/>
      <point x="148.0" y="534.4" type="curve"/>
      <point x="126.4" y="421.6" type="line"/>
      <point x="138.4" y="421.6" type="line"/>
      <point x="173.6" y="436.8"/>
      <point x="226.4" y="450.4"/>
      <point x="286.4" y="450.4" type="curve" smooth="yes"/>
      <point x="386.4" y="450.4"/>
      <point x="424.4" y="415.6"/>
      <point x="402.6" y="319.6" type="curve" smooth="yes"/>
      <point x="376.0" y="180.4" type="line" smooth="yes"/>
      <point x="368.4" y="142.2"/>
      <point x="364.2" y="98.4"/>
      <point x="377.2" y="69.2" type="curve"/>
      <point x="386.4" y="108.0" type="line"/>
      <point x="353.6" y="92.8"/>
      <point x="312.8" y="86.4"/>
      <point x="270.4" y="86.4" type="curve" smooth="yes"/>
      <point x="208.0" y="86.4"/>
      <point x="165.6" y="104.8"/>
      <point x="165.6" y="155.2" type="curve" smooth="yes"/>
      <point x="165.6" y="215.2"/>
      <point x="216.0" y="241.6"/>
      <point x="297.6" y="241.6" type="curve" smooth="yes"/>
      <point x="346.4" y="241.6"/>
      <point x="374.4" y="232.8"/>
      <point x="402.4" y="220.0" type="curve"/>
      <point x="412.0" y="314.4" type="line"/>
      <point x="393.8" y="320.4"/>
      <point x="349.6" y="333.6"/>
      <point x="292.0" y="333.6" type="curve" smooth="yes"/>
      <point x="149.6" y="333.6"/>
      <point x="33.6" y="279.2"/>
      <point x="33.6" y="147.2" type="curve" smooth="yes"/>
      <point x="33.6" y="37.6"/>
      <point x="114.4" y="-12.0"/>
    </contour>
  </outline>
</glyph>
<glyph name="b" format="2">
  <advance width="644.4"/>
  <unicode hex="0062"/>
  <note>
b
</note>
  <anchor x="269.2" y="0.0" name="bottom"/>
  <anchor x="416.8" y="760.0" name="top"/>
  <outline>
    <contour>
      <point x="252.8" y="-12.0" type="curve" smooth="yes"/>
      <point x="462.4" y="-12.0"/>
      <point x="608.8" y="110.4"/>
      <point x="608.8" y="321.6" type="curve" smooth="yes"/>
      <point x="608.8" y="475.2"/>
      <point x="516.0" y="559.2"/>
      <point x="381.6" y="559.2" type="curve" smooth="yes"/>
      <point x="336.4" y="559.2"/>
      <point x="298.0" y="550.0"/>
      <point x="264.8" y="535.2" type="curve"/>
      <point x="248.8" y="434.8" type="line"/>
      <point x="267.2" y="442.2"/>
      <point x="295.2" y="450.4"/>
      <point x="334.4" y="450.4" type="curve" smooth="yes"/>
      <point x="418.4" y="450.4"/>
      <point x="466.0" y="407.2"/>
      <point x="466.0" y="313.6" type="curve" smooth="yes"/>
      <point x="466.0" y="179.2"/>
      <point x="388.0" y="95.2"/>
      <point x="271.2" y="95.2" type="curve" smooth="yes"/>
      <point x="229.2" y="95.2"/>
      <point x="193.6" y="103.2"/>
      <point x="172.8" y="112.8" type="curve"/>
      <point x="180.8" y="79.2" type="line"/>
      <point x="190.4" y="99.0"/>
      <point x="201.6" y="131.8"/>
      <point x="209.6" y="170.4" type="curve" smooth="yes"/>
      <point x="324.8" y="760.0" type="line"/>
      <point x="176.8" y="760.0" type="line"/>
      <point x="171.2" y="750.4" type="line"/>
      <point x="172.6" y="708.0"/>
      <point x="159.6" y="634.4"/>
      <point x="151.2" y="591.2" type="curve" smooth="yes"/>
      <point x="67.2" y="161.6" type="line" smooth="yes"/>
      <point x="57.6" y="113.6"/>
      <point x="47.2" y="70.4"/>
      <point x="32.8" y="28.8" type="curve"/>
      <point x="36.8" y="20.8" type="line"/>
      <point x="88.8" y="0.0"/>
      <point x="177.6" y="-12.0"/>
    </contour>
  </outline>
</glyph>
<glyph name="c" format="2">
  <advance width="515.2"/>
  <unicode hex="0063"/>
  <note>
c
</note>
  <anchor x="255.4" y="0.0" name="bottom"/>
  <anchor x="352.4" y="545.6" name="top"/>
  <outline>
    <contour>
      <point x="44.8" y="224.8" type="curve" smooth="yes"/>
      <point x="44.8" y="69.6"/>
      <point x="140.0" y="-9.6"/>
      <point x="306.4" y="-9.6" type="curve" smooth="yes"/>
      <point x="348.0" y="-9.6"/>
      <point x="392.8" y="-2.4000000000000004"/>
      <point x="428.0" y="11.2" type="curve"/>
      <point x="450.4" y="127.2" type="line"/>
      <point x="440.8" y="127.2" type="line"/>
      <point x="412.6" y="115.6"/>
      <point x="378.4" y="104.0"/>
      <point x="332.8" y="104.0" type="curve" smooth="yes"/>
      <point x="242.4" y="104.0"/>
      <point x="187.6" y="145.6"/>
      <point x="187.6" y="231.2" type="curve" smooth="yes"/>
      <point x="187.6" y="368.0"/>
      <point x="280.8" y="445.6"/>
      <point x="397.6" y="445.6" type="curve" smooth="yes"/>
      <point x="446.4" y="445.6"/>
      <point x="476.0" y="435.2"/>
      <point x="497.6" y="423.6" type="curve"/>
      <point x="507.2" y="423.6" type="line"/>
      <point x="529.6" y="538.4" type="line"/>
      <point x="500.8" y="552.0"/>
      <point x="448.0" y="559.2"/>
      <point x="401.6" y="559.2" type="curve" smooth="yes"/>
      <point x="188.0" y="559.2"/>
      <point x="44.8" y="425.6"/>
    </contour>
  </outline>
</glyph>
<glyph name="d" format="2">
  <advance width="644.4"/>
  <unicode hex="0064"/>
  <note>
d
</note>
  <anchor x="264.2" y="0.0" name="bottom"/>
  <anchor x="545.2" y="653.6" name="center"/>
  <anchor x="425.8" y="760.0" name="top"/>
  <anchor x="745.0" y="545.6" name="topright"/>
  <outline>
    <contour>
      <point x="476.0" y="431.2" type="curve"/>
      <point x="500.0" y="535.2" type="line"/>
      <point x="476.0" y="547.2"/>
      <point x="433.2" y="559.2"/>
      <point x="379.6" y="559.2" type="curve" smooth="yes"/>
      <point x="162.0" y="559.2"/>
      <point x="44.8" y="408.0"/>
      <point x="44.8" y="230.4" type="curve" smooth="yes"/>
      <point x="44.8" y="61.6"/>
      <point x="153.2" y="-12.0"/>
      <point x="306.4" y="-12.0" type="curve" smooth="yes"/>
      <point x="392.0" y="-12.0"/>
      <point x="458.4" y="3.2"/>
      <point x="522.4" y="25.6" type="curve"/>
      <point x="528.0" y="33.6" type="line"/>
      <point x="529.2" y="76.0"/>
      <point x="536.8" y="129.6"/>
      <point x="545.6" y="173.6" type="curve" smooth="yes"/>
      <point x="659.6" y="760.0" type="line"/>
      <point x="512.0" y="760.0" type="line"/>
      <point x="506.4" y="750.4" type="line"/>
      <point x="507.8" y="708.0"/>
      <point x="494.4" y="631.2"/>
      <point x="486.4" y="591.2" type="curve" smooth="yes"/>
      <point x="408.8" y="189.6" type="line" smooth="yes"/>
      <point x="401.2" y="150.0"/>
      <point x="399.2" y="109.6"/>
      <point x="400.8" y="78.4" type="curve"/>
      <point x="428.8" y="120.8" type="line"/>
      <point x="404.0" y="108.0"/>
      <point x="366.4" y="96.8"/>
      <point x="321.6" y="96.8" type="curve" smooth="yes"/>
      <point x="231.2" y="96.8"/>
      <point x="187.6" y="141.6"/>
      <point x="187.6" y="230.4" type="curve" smooth="yes"/>
      <point x="187.6" y="366.4"/>
      <point x="264.8" y="452.0"/>
      <point x="379.2" y="452.0" type="curve" smooth="yes"/>
      <point x="428.8" y="452.0"/>
      <point x="457.6" y="441.6"/>
    </contour>
  </outline>
</glyph>
<glyph name="e" format="2">
  <advance width="614.0"/>
  <unicode hex="0065"/>
  <note>
e
</note>
  <anchor x="261.2" y="0.0" name="bottom"/>
  <anchor x="482.2" y="16.8" name="ogonek"/>
  <anchor x="366.2" y="545.6" name="top"/>
  <outline>
    <contour>
      <point x="324.6" y="-9.6" type="curve" smooth="yes"/>
      <point x="387.0" y="-9.6"/>
      <point x="443.8" y="0.7999999999999998"/>
      <point x="482.2" y="16.8" type="curve"/>
      <point x="504.6" y="131.2" type="line"/>
      <point x="495.0" y="131.2" type="line"/>
      <point x="463.6" y="115.2"/>
      <point x="405.4" y="100.8"/>
      <point x="343.8" y="100.8" type="curve" smooth="yes"/>
      <point x="246.2" y="100.8"/>
      <point x="185.8" y="140.8"/>
      <point x="185.8" y="232.8" type="curve" smooth="yes"/>
      <point x="185.8" y="249.6" type="line" smooth="yes"/>
      <point x="185.8" y="358.4"/>
      <point x="247.8" y="455.2"/>
      <point x="348.6" y="455.2" type="curve" smooth="yes"/>
      <point x="419.0" y="455.2"/>
      <point x="449.0" y="419.2"/>
      <point x="449.0" y="361.6" type="curve" smooth="yes"/>
      <point x="449.0" y="350.8"/>
      <point x="447.0" y="336.0"/>
      <point x="443.8" y="322.4" type="curve"/>
      <point x="135.8" y="322.4" type="line"/>
      <point x="135.8" y="232.0" type="line"/>
      <point x="562.2" y="232.0" type="line"/>
      <point x="573.0" y="271.2"/>
      <point x="582.2" y="316.8"/>
      <point x="582.2" y="359.2" type="curve" smooth="yes"/>
      <point x="582.2" y="477.6"/>
      <point x="510.2" y="559.2"/>
      <point x="354.2" y="559.2" type="curve" smooth="yes"/>
      <point x="169.4" y="559.2"/>
      <point x="46.2" y="411.2"/>
      <point x="46.2" y="226.4" type="curve" smooth="yes"/>
      <point x="46.2" y="66.4"/>
      <point x="155.0" y="-9.6"/>
    </contour>
  </outline>
</glyph>
<glyph name="f" format="2">
  <advance width="387.2"/>
  <unicode hex="0066"/>
  <note>
f
</note>
  <anchor x="140.6" y="0.0" name="bottom"/>
  <anchor x="288.2" y="760.0" name="top"/>
  <outline>
    <contour>
      <point x="52.0" y="0.0" type="line"/>
      <point x="192.0" y="0.0" type="line"/>
      <point x="298.0" y="545.6" type="line"/>
      <point x="310.4" y="619.2"/>
      <point x="344.8" y="657.6"/>
      <point x="415.2" y="657.6" type="curve" smooth="yes"/>
      <point x="445.6" y="657.6"/>
      <point x="464.0" y="652.8"/>
      <point x="480.0" y="645.6" type="curve"/>
      <point x="489.6" y="645.6" type="line"/>
      <point x="511.2" y="754.4" type="line"/>
      <point x="492.4" y="761.6"/>
      <point x="455.2" y="766.4"/>
      <point x="420.0" y="766.4" type="curve" smooth="yes"/>
      <point x="280.0" y="766.4"/>
      <point x="189.6" y="705.6"/>
      <point x="158.0" y="545.6" type="curve" smooth="yes"/>
    </contour>
    <contour>
      <point x="48.8" y="433.6" type="line"/>
      <point x="415.2" y="433.6" type="line"/>
      <point x="437.6" y="545.6" type="line"/>
      <point x="71.2" y="545.6" type="line"/>
    </contour>
  </outline>
</glyph>
<glyph name="g" format="2">
  <advance width="642.8"/>
  <unicode hex="0067"/>
  <note>
g
</note>
  <anchor x="221.4" y="-240.0" name="bottom"/>
  <anchor x="374.4" y="545.6" name="top"/>
  <outline>
    <contour>
      <point x="168.8" y="-240.0" type="curve" smooth="yes"/>
      <point x="370.4" y="-240.0"/>
      <point x="480.4" y="-148.8"/>
      <point x="514.4" y="24.0" type="curve" smooth="yes"/>
      <point x="584.4" y="381.6" type="line" smooth="yes"/>
      <point x="592.4" y="421.6"/>
      <point x="605.6" y="475.2"/>
      <point x="619.2" y="508.8" type="curve"/>
      <point x="613.6" y="518.4" type="line"/>
      <point x="550.8" y="542.4"/>
      <point x="477.6" y="556.0"/>
      <point x="395.2" y="556.0" type="curve" smooth="yes"/>
      <point x="183.2" y="556.0"/>
      <point x="45.6" y="431.2"/>
      <point x="45.6" y="232.0" type="curve" smooth="yes"/>
      <point x="45.6" y="77.6"/>
      <point x="147.2" y="2.4"/>
      <point x="291.2" y="2.4" type="curve" smooth="yes"/>
      <point x="328.0" y="2.4"/>
      <point x="368.0" y="10.4"/>
      <point x="386.4" y="20.0" type="curve"/>
      <point x="407.2" y="127.2" type="line"/>
      <point x="390.4" y="119.2"/>
      <point x="365.6" y="111.2"/>
      <point x="325.6" y="111.2" type="curve" smooth="yes"/>
      <point x="234.8" y="111.2"/>
      <point x="188.4" y="151.2"/>
      <point x="188.4" y="238.4" type="curve" smooth="yes"/>
      <point x="188.4" y="365.6"/>
      <point x="262.4" y="448.8"/>
      <point x="379.2" y="448.8" type="curve" smooth="yes"/>
      <point x="424.0" y="448.8"/>
      <point x="445.6" y="442.8"/>
      <point x="477.6" y="427.2" type="curve"/>
      <point x="465.6" y="455.6" type="line"/>
      <point x="456.4" y="436.4"/>
      <point x="449.8" y="410.4"/>
      <point x="442.4" y="372.8" type="curve" smooth="yes"/>
      <point x="376.8" y="37.6" type="line"/>
      <point x="360.0" y="-72.8"/>
      <point x="298.4" y="-126.4"/>
      <point x="178.4" y="-126.4" type="curve" smooth="yes"/>
      <point x="132.8" y="-126.4"/>
      <point x="79.2" y="-116.8"/>
      <point x="42.4" y="-96.8" type="curve"/>
      <point x="32.8" y="-96.8" type="line"/>
      <point x="10.4" y="-212.8" type="line"/>
      <point x="48.8" y="-230.4"/>
      <point x="117.6" y="-240.0"/>
    </contour>
  </outline>
</glyph>
<glyph name="h" format="2">
  <advance width="660.8"/>
  <unicode hex="0068"/>
  <note>
h
</note>
  <anchor x="282.0" y="0.0" name="bottom"/>
  <anchor x="254.4" y="653.6" name="center"/>
  <anchor x="243.4" y="760.0" name="top"/>
  <outline>
    <contour>
      <point x="174.4" y="0.0" type="line"/>
      <point x="322.4" y="760.0" type="line"/>
      <point x="174.4" y="760.0" type="line"/>
      <point x="168.8" y="750.4" type="line"/>
      <point x="170.2" y="708.0"/>
      <point x="157.2" y="634.4"/>
      <point x="148.8" y="591.2" type="curve" smooth="yes"/>
      <point x="34.4" y="0.0" type="line"/>
    </contour>
    <contour>
      <point x="250.4" y="535.2" type="curve"/>
      <point x="231.2" y="421.6" type="line"/>
      <point x="267.6" y="435.6"/>
      <point x="310.4" y="445.6"/>
      <point x="347.2" y="445.6" type="curve" smooth="yes"/>
      <point x="416.8" y="445.6"/>
      <point x="453.2" y="418.4"/>
      <point x="453.2" y="354.8" type="curve" smooth="yes"/>
      <point x="453.2" y="341.6"/>
      <point x="451.6" y="323.6"/>
      <point x="448.0" y="304.0" type="curve" smooth="yes"/>
      <point x="389.6" y="0.0" type="line"/>
      <point x="529.6" y="0.0" type="line"/>
      <point x="588.0" y="304.0" type="line" smooth="yes"/>
      <point x="593.4" y="332.2"/>
      <point x="596.0" y="357.6"/>
      <point x="596.0" y="379.2" type="curve" smooth="yes"/>
      <point x="596.0" y="496.0"/>
      <point x="517.6" y="559.2"/>
      <point x="386.4" y="559.2" type="curve" smooth="yes"/>
      <point x="336.8" y="559.2"/>
      <point x="289.6" y="548.8"/>
    </contour>
  </outline>
</glyph>
<glyph name="k" format="2">
  <advance width="596.0"/>
  <unicode hex="006B"/>
  <note>
k
</note>
  <anchor x="245.0" y="0.0" name="bottom"/>
  <anchor x="392.6" y="760.0" name="top"/>
  <outline>
    <contour>
      <point x="484.4" y="545.6" type="line"/>
      <point x="203.2" y="285.6" type="line"/>
      <point x="375.6" y="0.0" type="line"/>
      <point x="531.6" y="0.0" type="line"/>
      <point x="531.6" y="12.0" type="line"/>
      <point x="510.4" y="37.6"/>
      <point x="488.6" y="72.6"/>
      <point x="468.8" y="103.2" type="curve" smooth="yes"/>
      <point x="324.8" y="332.0" type="line"/>
      <point x="314.4" y="243.8" type="line"/>
      <point x="540.0" y="448.8" type="line" smooth="yes"/>
      <point x="573.2" y="478.0"/>
      <point x="618.2" y="516.0"/>
      <point x="643.2" y="533.6" type="curve"/>
      <point x="643.2" y="545.6" type="line"/>
    </contour>
    <contour>
      <point x="172.8" y="0.0" type="line"/>
      <point x="320.8" y="760.0" type="line"/>
      <point x="172.8" y="760.0" type="line"/>
      <point x="167.2" y="750.4" type="line"/>
      <point x="168.6" y="708.0"/>
      <point x="155.6" y="634.4"/>
      <point x="147.2" y="591.2" type="curve" smooth="yes"/>
      <point x="32.8" y="0.0" type="line"/>
    </contour>
  </outline>
</glyph>
<glyph name="l" format="2">
  <advance width="309.6"/>
  <unicode hex="006C"/>
  <note>
l
</note>
  <anchor x="96.8" y="0.0" name="bottom"/>
  <anchor x="189.6" y="386.0" name="center"/>
  <anchor x="385.0" y="358.4" name="periodCAT"/>
  <anchor x="258.4" y="760.0" name="top"/>
  <anchor x="410.0" y="545.6" name="topright"/>
  <outline>
    <contour>
      <point x="34.4" y="0.0" type="line"/>
      <point x="174.4" y="0.0" type="line"/>
      <point x="322.4" y="760.0" type="line"/>
      <point x="174.4" y="760.0" type="line"/>
      <point x="168.8" y="750.4" type="line"/>
      <point x="170.2" y="708.0"/>
      <point x="157.2" y="634.4"/>
      <point x="148.8" y="591.2" type="curve" smooth="yes"/>
    </contour>
  </outline>
</glyph>
<glyph name="m" format="2">
  <advance width="986.4"/>
  <unicode hex="006D"/>
  <note>
m
</note>
  <anchor x="440.2" y="0.0" name="bottom"/>
  <anchor x="546.2" y="545.6" name="top"/>
  <outline>
    <contour>
      <point x="34.4" y="0.0" type="line"/>
      <point x="174.4" y="0.0" type="line"/>
      <point x="244.0" y="360.0" type="line" smooth="yes"/>
      <point x="250.6" y="397.6"/>
      <point x="254.6" y="436.6"/>
      <point x="250.4" y="463.2" type="curve"/>
      <point x="227.2" y="423.2" type="line"/>
      <point x="261.2" y="436.4"/>
      <point x="299.2" y="445.6"/>
      <point x="338.4" y="445.6" type="curve" smooth="yes"/>
      <point x="412.8" y="445.6"/>
      <point x="443.8" y="418.4"/>
      <point x="443.8" y="354.8" type="curve" smooth="yes"/>
      <point x="443.8" y="341.0"/>
      <point x="442.2" y="323.6"/>
      <point x="438.6" y="304.0" type="curve" smooth="yes"/>
      <point x="380.2" y="0.0" type="line"/>
      <point x="520.2" y="0.0" type="line"/>
      <point x="578.6" y="304.0" type="line" smooth="yes"/>
      <point x="584.0" y="332.2"/>
      <point x="586.6" y="357.6"/>
      <point x="586.6" y="379.2" type="curve" smooth="yes"/>
      <point x="586.6" y="510.4"/>
      <point x="500.8" y="559.2"/>
      <point x="354.4" y="559.2" type="curve" smooth="yes"/>
      <point x="286.4" y="559.2"/>
      <point x="190.4" y="541.6"/>
      <point x="130.4" y="519.2" type="curve"/>
      <point x="124.8" y="511.2" type="line"/>
      <point x="123.6" y="468.8"/>
      <point x="116.0" y="420.4"/>
      <point x="107.2" y="376.0" type="curve" smooth="yes"/>
    </contour>
    <contour>
      <point x="713.6" y="0.0" type="line"/>
      <point x="853.6" y="0.0" type="line"/>
      <point x="912.0" y="304.0" type="line" smooth="yes"/>
      <point x="917.4" y="332.2"/>
      <point x="920.0" y="357.6"/>
      <point x="920.0" y="379.2" type="curve" smooth="yes"/>
      <point x="920.0" y="512.0"/>
      <point x="833.6" y="559.2"/>
      <point x="702.6" y="559.2" type="curve" smooth="yes"/>
      <point x="634.4" y="559.2"/>
      <point x="564.0" y="539.2"/>
      <point x="506.4" y="515.2" type="curve"/>
      <point x="564.8" y="420.0" type="line"/>
      <point x="598.4" y="436.8"/>
      <point x="632.0" y="445.6"/>
      <point x="671.2" y="445.6" type="curve" smooth="yes"/>
      <point x="745.6" y="445.6"/>
      <point x="777.2" y="418.4"/>
      <point x="777.2" y="354.8" type="curve" smooth="yes"/>
      <point x="777.2" y="341.0"/>
      <point x="775.6" y="323.6"/>
      <point x="772.0" y="304.0" type="curve" smooth="yes"/>
    </contour>
  </outline>
</glyph>
<glyph name="n" format="2">
  <advance width="660.8"/>
  <unicode hex="006E"/>
  <note>
n
</note>
  <anchor x="277.4" y="0.0" name="bottom"/>
  <anchor x="383.4" y="545.6" name="top"/>
  <outline>
    <contour>
      <point x="34.4" y="0.0" type="line"/>
      <point x="174.4" y="0.0" type="line"/>
      <point x="244.0" y="360.0" type="line" smooth="yes"/>
      <point x="250.6" y="397.6"/>
      <point x="254.6" y="435.0"/>
      <point x="250.4" y="461.6" type="curve"/>
      <point x="227.2" y="421.6" type="line"/>
      <point x="255.2" y="433.6"/>
      <point x="299.2" y="445.6"/>
      <point x="342.4" y="445.6" type="curve" smooth="yes"/>
      <point x="416.8" y="445.6"/>
      <point x="453.2" y="418.4"/>
      <point x="453.2" y="354.8" type="curve" smooth="yes"/>
      <point x="453.2" y="341.0"/>
      <point x="451.6" y="323.6"/>
      <point x="448.0" y="304.0" type="curve" smooth="yes"/>
      <point x="389.6" y="0.0" type="line"/>
      <point x="529.6" y="0.0" type="line"/>
      <point x="588.0" y="304.0" type="line" smooth="yes"/>
      <point x="593.4" y="332.2"/>
      <point x="596.0" y="357.6"/>
      <point x="596.0" y="379.2" type="curve" smooth="yes"/>
      <point x="596.0" y="512.0"/>
      <point x="504.8" y="559.2"/>
      <point x="358.4" y="559.2" type="curve" smooth="yes"/>
      <point x="290.4" y="559.2"/>
      <point x="190.4" y="541.6"/>
      <point x="130.4" y="519.2" type="curve"/>
      <point x="124.8" y="511.2" type="line"/>
      <point x="123.6" y="468.8"/>
      <point x="116.0" y="420.4"/>
      <point x="107.2" y="376.0" type="curve" smooth="yes"/>
    </contour>
  </outline>
</glyph>
<glyph name="o" format="2">
  <advance width="631.2"/>
  <unicode hex="006F"/>
  <note>
o
</note>
  <anchor x="262.6" y="0.0" name="bottom"/>
  <anchor x="315.6" y="272.8" name="center"/>
  <anchor x="363.2" y="0.0" name="ogonek"/>
  <anchor x="370.2" y="545.6" name="top"/>
  <anchor x="447.2" y="545.6" name="topright"/>
  <outline>
    <contour>
      <point x="44.8" y="214.4" type="curve" smooth="yes"/>
      <point x="44.8" y="72.8"/>
      <point x="131.2" y="-9.6"/>
      <point x="281.6" y="-9.6" type="curve" smooth="yes"/>
      <point x="491.2" y="-9.6"/>
      <point x="594.4" y="160.0"/>
      <point x="594.4" y="335.2" type="curve" smooth="yes"/>
      <point x="594.4" y="476.8"/>
      <point x="508.0" y="559.2"/>
      <point x="357.6" y="559.2" type="curve" smooth="yes"/>
      <point x="148.0" y="559.2"/>
      <point x="44.8" y="389.6"/>
    </contour>
    <contour>
      <point x="187.6" y="209.6" type="curve" smooth="yes"/>
      <point x="187.6" y="312.8"/>
      <point x="233.6" y="452.0"/>
      <point x="349.6" y="452.0" type="curve" smooth="yes"/>
      <point x="413.6" y="452.0"/>
      <point x="451.6" y="414.4"/>
      <point x="451.6" y="340.0" type="curve" smooth="yes"/>
      <point x="451.6" y="236.8"/>
      <point x="405.6" y="97.6"/>
      <point x="289.6" y="97.6" type="curve" smooth="yes"/>
      <point x="225.6" y="97.6"/>
      <point x="187.6" y="135.2"/>
    </contour>
  </outline>
</glyph>
<glyph name="p" format="2">
  <advance width="646.0"/>
  <unicode hex="0070"/>
  <note>
p
</note>
  <anchor x="270.0" y="0.0" name="bottom"/>
  <anchor x="376.0" y="545.6" name="top"/>
  <outline>
    <contour>
      <point x="172.0" y="122.4" type="curve"/>
      <point x="154.4" y="13.6" type="line"/>
      <point x="175.2" y="0.0"/>
      <point x="220.8" y="-12.0"/>
      <point x="274.4" y="-12.0" type="curve" smooth="yes"/>
      <point x="492.0" y="-12.0"/>
      <point x="609.2" y="139.2"/>
      <point x="609.2" y="316.8" type="curve" smooth="yes"/>
      <point x="609.2" y="485.6"/>
      <point x="500.8" y="559.2"/>
      <point x="353.6" y="559.2" type="curve" smooth="yes"/>
      <point x="265.6" y="559.2"/>
      <point x="192.0" y="541.6"/>
      <point x="131.6" y="521.6" type="curve"/>
      <point x="126.0" y="513.6" type="line"/>
      <point x="124.8" y="471.2"/>
      <point x="117.2" y="423.2"/>
      <point x="108.4" y="378.4" type="curve" smooth="yes"/>
      <point x="-9.600000000000001" y="-232.0" type="line"/>
      <point x="130.4" y="-232.0" type="line"/>
      <point x="245.2" y="362.4" type="line" smooth="yes"/>
      <point x="252.8" y="401.4"/>
      <point x="255.0" y="440.2"/>
      <point x="250.4" y="465.6" type="curve"/>
      <point x="226.4" y="423.2" type="line"/>
      <point x="253.2" y="438.0"/>
      <point x="292.8" y="450.4"/>
      <point x="336.0" y="450.4" type="curve" smooth="yes"/>
      <point x="423.2" y="450.4"/>
      <point x="466.4" y="404.0"/>
      <point x="466.4" y="316.8" type="curve" smooth="yes"/>
      <point x="466.4" y="180.8"/>
      <point x="390.4" y="95.2"/>
      <point x="273.6" y="95.2" type="curve" smooth="yes"/>
      <point x="216.0" y="95.2"/>
      <point x="193.6" y="107.2"/>
    </contour>
  </outline>
</glyph>
<glyph name="q" format="2">
  <advance width="644.4"/>
  <unicode hex="0071"/>
  <note>
q
</note>
  <anchor x="269.2" y="0.0" name="bottom"/>
  <anchor x="375.2" y="545.6" name="top"/>
  <outline>
    <contour>
      <point x="402.4" y="12.8" type="curve"/>
      <point x="420.8" y="119.2" type="line"/>
      <point x="393.6" y="104.8"/>
      <point x="361.6" y="96.8"/>
      <point x="321.6" y="96.8" type="curve" smooth="yes"/>
      <point x="232.0" y="96.8"/>
      <point x="187.6" y="143.2"/>
      <point x="187.6" y="232.0" type="curve" smooth="yes"/>
      <point x="187.6" y="366.4"/>
      <point x="260.8" y="452.0"/>
      <point x="380.0" y="452.0" type="curve" smooth="yes"/>
      <point x="428.0" y="452.0"/>
      <point x="450.4" y="445.6"/>
      <point x="489.6" y="425.6" type="curve"/>
      <point x="476.0" y="465.6" type="line"/>
      <point x="459.2" y="440.0"/>
      <point x="453.2" y="413.0"/>
      <point x="445.6" y="373.6" type="curve" smooth="yes"/>
      <point x="327.6" y="-232.0" type="line"/>
      <point x="467.6" y="-232.0" type="line"/>
      <point x="589.2" y="391.2" type="line" smooth="yes"/>
      <point x="597.2" y="431.2"/>
      <point x="608.8" y="478.4"/>
      <point x="622.4" y="512.0" type="curve"/>
      <point x="616.8" y="521.6" type="line"/>
      <point x="554.0" y="545.6"/>
      <point x="478.4" y="559.2"/>
      <point x="396.0" y="559.2" type="curve" smooth="yes"/>
      <point x="181.6" y="559.2"/>
      <point x="44.8" y="432.0"/>
      <point x="44.8" y="225.6" type="curve" smooth="yes"/>
      <point x="44.8" y="66.4"/>
      <point x="143.2" y="-12.0"/>
      <point x="292.0" y="-12.0" type="curve" smooth="yes"/>
      <point x="336.8" y="-12.0"/>
      <point x="372.0" y="-2.4"/>
    </contour>
  </outline>
</glyph>
<glyph name="r" format="2">
  <advance width="408.0"/>
  <unicode hex="0072"/>
  <note>
r
</note>
  <anchor x="100.8" y="0.0" name="bottom"/>
  <anchor x="257.0" y="545.6" name="top"/>
  <outline>
    <contour>
      <point x="105.6" y="376.0" type="curve" smooth="yes"/>
      <point x="32.8" y="0.0" type="line"/>
      <point x="172.8" y="0.0" type="line"/>
      <point x="242.4" y="360.0" type="line" smooth="yes"/>
      <point x="249.4" y="398.2"/>
      <point x="251.4" y="436.0"/>
      <point x="250.4" y="464.8" type="curve"/>
      <point x="224.6" y="423.8" type="line"/>
      <point x="254.4" y="435.8"/>
      <point x="295.2" y="442.4"/>
      <point x="342.4" y="442.4" type="curve" smooth="yes"/>
      <point x="365.6" y="442.4"/>
      <point x="389.6" y="439.6"/>
      <point x="408.8" y="435.2" type="curve"/>
      <point x="418.4" y="435.2" type="line"/>
      <point x="440.8" y="548.8" type="line"/>
      <point x="412.8" y="552.8"/>
      <point x="377.6" y="554.4"/>
      <point x="352.0" y="554.4" type="curve" smooth="yes"/>
      <point x="269.6" y="554.4"/>
      <point x="185.8" y="539.2"/>
      <point x="128.8" y="519.2" type="curve"/>
      <point x="123.2" y="511.2" type="line"/>
      <point x="122.0" y="468.8"/>
      <point x="114.4" y="420.4"/>
    </contour>
  </outline>
</glyph>
<glyph name="s" format="2">
  <advance width="527.2"/>
  <unicode hex="0073"/>
  <note>
s
</note>
  <anchor x="210.6" y="0.0" name="bottom"/>
  <anchor x="316.6" y="545.6" name="top"/>
  <outline>
    <contour>
      <point x="31.2" y="137.2" type="line"/>
      <point x="8.8" y="20.0" type="line"/>
      <point x="61.6" y="0.0"/>
      <point x="136.0" y="-8.0"/>
      <point x="204.8" y="-8.0" type="curve" smooth="yes"/>
      <point x="371.2" y="-8.0"/>
      <point x="473.2" y="50.4"/>
      <point x="473.2" y="165.6" type="curve" smooth="yes"/>
      <point x="473.2" y="254.4"/>
      <point x="405.2" y="293.6"/>
      <point x="326.4" y="312.8" type="curve" smooth="yes"/>
      <point x="292.8" y="320.8" type="line" smooth="yes"/>
      <point x="241.0" y="333.4"/>
      <point x="204.8" y="341.6"/>
      <point x="204.8" y="380.8" type="curve" smooth="yes"/>
      <point x="204.8" y="426.4"/>
      <point x="254.4" y="446.4"/>
      <point x="330.4" y="446.4" type="curve" smooth="yes"/>
      <point x="384.0" y="446.4"/>
      <point x="425.4" y="437.6"/>
      <point x="472.0" y="418.0" type="curve"/>
      <point x="481.6" y="418.0" type="line"/>
      <point x="504.0" y="532.8" type="line"/>
      <point x="457.6" y="548.8"/>
      <point x="404.0" y="555.2"/>
      <point x="340.0" y="555.2" type="curve" smooth="yes"/>
      <point x="152.0" y="555.2"/>
      <point x="66.8" y="473.6"/>
      <point x="66.8" y="371.2" type="curve" smooth="yes"/>
      <point x="66.8" y="284.8"/>
      <point x="126.0" y="249.6"/>
      <point x="215.2" y="228.0" type="curve" smooth="yes"/>
      <point x="248.8" y="220.0" type="line" smooth="yes"/>
      <point x="300.0" y="208.0"/>
      <point x="334.4" y="197.6"/>
      <point x="334.4" y="160.0" type="curve" smooth="yes"/>
      <point x="334.4" y="108.8"/>
      <point x="272.8" y="100.8"/>
      <point x="208.8" y="100.8" type="curve" smooth="yes"/>
      <point x="146.4" y="100.8"/>
      <point x="84.8" y="114.4"/>
      <point x="40.8" y="137.2" type="curve"/>
    </contour>
  </outline>
</glyph>
<glyph name="t" format="2">
  <advance width="442.4"/>
  <unicode hex="0074"/>
  <note>
t
</note>
  <anchor x="184.4" y="0.0" name="bottom"/>
  <anchor x="209.2" y="277.6" name="center"/>
  <anchor x="257.2" y="687.2" name="top"/>
  <anchor x="442.8" y="587.2" name="topright"/>
  <outline>
    <contour>
      <point x="273.6" y="-8.0" type="curve" smooth="yes"/>
      <point x="314.4" y="-8.0"/>
      <point x="347.6" y="-2.0"/>
      <point x="375.2" y="8.0" type="curve"/>
      <point x="395.2" y="121.6" type="line"/>
      <point x="385.6" y="121.6" type="line"/>
      <point x="364.4" y="111.6"/>
      <point x="339.2" y="105.6"/>
      <point x="312.8" y="105.6" type="curve" smooth="yes"/>
      <point x="253.6" y="105.6"/>
      <point x="230.0" y="132.0"/>
      <point x="230.0" y="172.8" type="curve" smooth="yes"/>
      <point x="230.0" y="180.4"/>
      <point x="231.0" y="194.2"/>
      <point x="233.6" y="205.6" type="curve"/>
      <point x="327.2" y="687.2" type="line"/>
      <point x="187.2" y="687.2" type="line"/>
      <point x="94.4" y="207.2" type="line" smooth="yes"/>
      <point x="90.6" y="187.8"/>
      <point x="88.8" y="168.0"/>
      <point x="88.8" y="152.0" type="curve" smooth="yes"/>
      <point x="88.8" y="44.0"/>
      <point x="159.2" y="-8.0"/>
    </contour>
    <contour>
      <point x="51.2" y="433.6" type="line"/>
      <point x="428.0" y="433.6" type="line"/>
      <point x="450.4" y="545.6" type="line"/>
      <point x="73.6" y="545.6" type="line"/>
    </contour>
  </outline>
</glyph>
<glyph name="u" format="2">
  <advance width="656.0"/>
  <unicode hex="0075"/>
  <note>
u
</note>
  <anchor x="275.0" y="0.0" name="bottom"/>
  <anchor x="533.6" y="28.0" name="ogonek"/>
  <anchor x="381.0" y="545.6" name="top"/>
  <anchor x="546.6" y="545.6" name="topright"/>
  <outline>
    <contour>
      <point x="68.0" y="168.0" type="curve" smooth="yes"/>
      <point x="68.0" y="35.2"/>
      <point x="159.2" y="-12.0"/>
      <point x="305.6" y="-12.0" type="curve" smooth="yes"/>
      <point x="373.6" y="-12.0"/>
      <point x="473.6" y="5.6"/>
      <point x="533.6" y="28.0" type="curve"/>
      <point x="539.2" y="36.0" type="line"/>
      <point x="540.4" y="78.4"/>
      <point x="548.0" y="126.8"/>
      <point x="556.8" y="171.2" type="curve" smooth="yes"/>
      <point x="629.6" y="545.6" type="line"/>
      <point x="482.0" y="545.6" type="line"/>
      <point x="476.4" y="536.0" type="line"/>
      <point x="477.8" y="493.6"/>
      <point x="466.0" y="424.8"/>
      <point x="457.6" y="381.6" type="curve" smooth="yes"/>
      <point x="420.0" y="187.2" type="line" smooth="yes"/>
      <point x="411.8" y="149.2"/>
      <point x="410.4" y="111.6"/>
      <point x="412.0" y="84.0" type="curve"/>
      <point x="443.2" y="125.6" type="line"/>
      <point x="408.0" y="111.2"/>
      <point x="362.4" y="101.6"/>
      <point x="321.6" y="101.6" type="curve" smooth="yes"/>
      <point x="247.2" y="101.6"/>
      <point x="210.8" y="128.8"/>
      <point x="210.8" y="192.4" type="curve" smooth="yes"/>
      <point x="210.8" y="206.2"/>
      <point x="212.4" y="223.6"/>
      <point x="216.0" y="243.2" type="curve" smooth="yes"/>
      <point x="274.4" y="545.6" type="line"/>
      <point x="126.8" y="545.6" type="line"/>
      <point x="121.2" y="536.0" type="line"/>
      <point x="122.6" y="493.6"/>
      <point x="110.8" y="424.8"/>
      <point x="102.4" y="381.6" type="curve" smooth="yes"/>
      <point x="76.0" y="243.2" type="line" smooth="yes"/>
      <point x="70.6" y="215.0"/>
      <point x="68.0" y="189.6"/>
    </contour>
  </outline>
</glyph>
<glyph name="v" format="2">
  <advance width="577.6"/>
  <unicode hex="0076"/>
  <note>
v
</note>
  <anchor x="235.8" y="0.0" name="bottom"/>
  <anchor x="341.8" y="545.6" name="top"/>
  <outline>
    <contour>
      <point x="64.8" y="533.6" type="line"/>
      <point x="148.8" y="0.0" type="line"/>
      <point x="326.4" y="0.0" type="line"/>
      <point x="624.8" y="533.6" type="line"/>
      <point x="624.8" y="545.6" type="line"/>
      <point x="480.0" y="545.6" type="line"/>
      <point x="240.8" y="83.2" type="line"/>
      <point x="272.0" y="67.2" type="line"/>
      <point x="210.4" y="545.6" type="line"/>
      <point x="64.8" y="545.6" type="line"/>
    </contour>
  </outline>
</glyph>
<glyph name="w" format="2">
  <advance width="848.8"/>
  <unicode hex="0077"/>
  <note>
w
</note>
  <anchor x="371.4" y="0.0" name="bottom"/>
  <anchor x="477.4" y="545.6" name="top"/>
  <outline>
    <contour>
      <point x="64.8" y="533.6" type="line"/>
      <point x="112.0" y="0.0" type="line"/>
      <point x="269.6" y="0.0" type="line"/>
      <point x="471.2" y="396.8" type="line"/>
      <point x="435.2" y="396.8" type="line"/>
      <point x="478.4" y="0.0" type="line"/>
      <point x="634.4" y="0.0" type="line"/>
      <point x="894.4" y="533.6" type="line"/>
      <point x="894.4" y="545.6" type="line"/>
      <point x="749.6" y="545.6" type="line"/>
      <point x="552.0" y="96.8" type="line"/>
      <point x="579.2" y="91.2" type="line"/>
      <point x="532.8" y="545.6" type="line"/>
      <point x="431.2" y="545.6" type="line"/>
      <point x="205.6" y="101.6" type="line"/>
      <point x="236.8" y="88.0" type="line"/>
      <point x="210.4" y="545.6" type="line"/>
      <point x="64.8" y="545.6" type="line"/>
    </contour>
  </outline>
</glyph>
<glyph name="x" format="2">
  <advance width="583.2"/>
  <unicode hex="0078"/>
  <note>
x
</note>
  <anchor x="238.6" y="0.0" name="bottom"/>
  <anchor x="344.6" y="545.6" name="top"/>
  <outline>
    <contour>
      <point x="-23.2" y="0.0" type="line"/>
      <point x="124.0" y="0.0" type="line"/>
      <point x="342.4" y="240.8" type="line"/>
      <point x="621.6" y="536.0" type="line"/>
      <point x="621.6" y="545.6" type="line"/>
      <point x="474.4" y="545.6" type="line"/>
      <point x="269.6" y="318.4" type="line"/>
      <point x="-23.2" y="9.6" type="line"/>
    </contour>
    <contour>
      <point x="363.2" y="0.0" type="line"/>
      <point x="511.2" y="0.0" type="line"/>
      <point x="511.2" y="9.6" type="line"/>
      <point x="342.4" y="309.6" type="line"/>
      <point x="219.2" y="545.6" type="line"/>
      <point x="71.2" y="545.6" type="line"/>
      <point x="71.2" y="536.0" type="line"/>
      <point x="242.4" y="228.8" type="line"/>
    </contour>
  </outline>
</glyph>
<glyph name="y" format="2">
  <advance width="571.2"/>
  <unicode hex="0079"/>
  <note>
y
</note>
  <anchor x="394.0" y="0.0" name="bottom"/>
  <anchor x="338.6" y="545.6" name="top"/>
  <outline>
    <contour>
      <point x="30.0" y="-232.0" type="line"/>
      <point x="173.2" y="-232.0" type="line"/>
      <point x="618.8" y="533.6" type="line"/>
      <point x="618.8" y="545.6" type="line"/>
      <point x="477.2" y="545.6" type="line"/>
      <point x="220.0" y="77.6" type="line"/>
      <point x="30.0" y="-220.0" type="line"/>
    </contour>
    <contour>
      <point x="166.4" y="-50.400000000000006" type="line"/>
      <point x="268.8" y="134.4" type="line"/>
      <point x="207.6" y="545.6" type="line"/>
      <point x="62.0" y="545.6" type="line"/>
      <point x="62.0" y="533.6" type="line"/>
    </contour>
  </outline>
</glyph>
<glyph name="z" format="2">
  <advance width="548.8"/>
  <unicode hex="007A"/>
  <note>
z
</note>
  <anchor x="221.4" y="0.0" name="bottom"/>
  <anchor x="327.4" y="545.6" name="top"/>
  <outline>
    <contour>
      <point x="84.0" y="432.4" type="line"/>
      <point x="412.0" y="432.4" type="line"/>
      <point x="371.2" y="463.2" type="line"/>
      <point x="361.6" y="430.4"/>
      <point x="332.8" y="403.8"/>
      <point x="304.0" y="377.6" type="curve"/>
      <point x="91.2" y="181.6" type="line" smooth="yes"/>
      <point x="45.8" y="139.6"/>
      <point x="-4.0" y="92.0"/>
      <point x="-2.4" y="9.6" type="curve"/>
      <point x="5.6" y="0.0" type="line"/>
      <point x="464.0" y="0.0" type="line"/>
      <point x="485.2" y="110.80000000000001" type="line"/>
      <point x="139.2" y="110.80000000000001" type="line"/>
      <point x="177.60000000000002" y="85.6" type="line"/>
      <point x="182.4" y="110.4"/>
      <point x="217.2" y="143.0"/>
      <point x="244.8" y="168.0" type="curve" smooth="yes"/>
      <point x="457.6" y="364.0" type="line" smooth="yes"/>
      <point x="503.0" y="406.0"/>
      <point x="552.8" y="453.6"/>
      <point x="551.2" y="536.0" type="curve"/>
      <point x="543.2" y="545.6" type="line"/>
      <point x="106.4" y="545.6" type="line"/>
    </contour>
  </outline>
</glyph>
<glyph name="braceleft" format="2">
  <advance width="418.4"/>
  <unicode hex="007B"/>
  <note>
braceleft
</note>
  <outline>
    <contour>
      <point x="121.6" y="205.6" type="curve" smooth="yes"/>
      <point x="96.0" y="77.6" type="line" smooth="yes"/>
      <point x="75.2" y="-29.2"/>
      <point x="124.4" y="-88.0"/>
      <point x="238.4" y="-88.0" type="curve" smooth="yes"/>
      <point x="328.0" y="-88.0" type="line"/>
      <point x="348.4" y="15.200000000000003" type="line"/>
      <point x="274.4" y="15.200000000000003" type="line" smooth="yes"/>
      <point x="234.4" y="15.200000000000003"/>
      <point x="216.4" y="38.0"/>
      <point x="224.8" y="80.8" type="curve" smooth="yes"/>
      <point x="250.4" y="211.2" type="line" smooth="yes"/>
      <point x="263.6" y="280.0"/>
      <point x="234.0" y="326.0"/>
      <point x="174.4" y="336.0" type="curve"/>
      <point x="236.0" y="344.8"/>
      <point x="286.0" y="388.8"/>
      <point x="300.0" y="460.8" type="curve" smooth="yes"/>
      <point x="324.4" y="586.4" type="line" smooth="yes"/>
      <point x="334.4" y="636.8"/>
      <point x="357.2" y="656.8"/>
      <point x="399.2" y="656.8" type="curve" smooth="yes"/>
      <point x="473.6" y="656.8" type="line"/>
      <point x="495.2" y="760.0" type="line"/>
      <point x="397.6" y="760.0" type="line" smooth="yes"/>
      <point x="286.0" y="760.0"/>
      <point x="220.4" y="708.8"/>
      <point x="197.6" y="594.4" type="curve" smooth="yes"/>
      <point x="172.0" y="466.4" type="line" smooth="yes"/>
      <point x="164.0" y="426.4"/>
      <point x="140.0" y="394.4"/>
      <point x="92.0" y="394.4" type="curve" smooth="yes"/>
      <point x="44.6" y="394.4" type="line"/>
      <point x="21.6" y="277.6" type="line"/>
      <point x="69.6" y="277.6" type="line" smooth="yes"/>
      <point x="119.2" y="277.6"/>
      <point x="128.8" y="245.6"/>
    </contour>
  </outline>
</glyph>
<glyph name="bar" format="2">
  <advance width="308.0"/>
  <unicode hex="007C"/>
  <note>
bar
</note>
  <outline>
    <contour>
      <point x="191.2" y="760.0" type="line"/>
      <point x="-7.200000000000003" y="-250.4" type="line"/>
      <point x="120.0" y="-250.4" type="line"/>
      <point x="318.4" y="760.0" type="line"/>
    </contour>
  </outline>
</glyph>
<glyph name="braceright" format="2">
  <advance width="418.0"/>
  <unicode hex="007D"/>
  <note>
braceright
</note>
  <outline>
    <contour>
      <point x="-52.2" y="-88.0" type="line"/>
      <point x="45.4" y="-88.0" type="line" smooth="yes"/>
      <point x="157.0" y="-88.0"/>
      <point x="222.6" y="-36.8"/>
      <point x="245.4" y="77.6" type="curve" smooth="yes"/>
      <point x="271.0" y="205.6" type="line" smooth="yes"/>
      <point x="279.0" y="245.6"/>
      <point x="303.0" y="277.6"/>
      <point x="351.0" y="277.6" type="curve" smooth="yes"/>
      <point x="398.4" y="277.6" type="line"/>
      <point x="421.4" y="394.4" type="line"/>
      <point x="373.4" y="394.4" type="line" smooth="yes"/>
      <point x="323.8" y="394.4"/>
      <point x="314.2" y="426.4"/>
      <point x="321.4" y="466.4" type="curve" smooth="yes"/>
      <point x="347.0" y="594.4" type="line" smooth="yes"/>
      <point x="367.8" y="701.2"/>
      <point x="318.6" y="760.0"/>
      <point x="204.6" y="760.0" type="curve" smooth="yes"/>
      <point x="115.0" y="760.0" type="line"/>
      <point x="94.6" y="656.8" type="line"/>
      <point x="168.6" y="656.8" type="line" smooth="yes"/>
      <point x="208.6" y="656.8"/>
      <point x="226.6" y="634.0"/>
      <point x="218.2" y="591.2" type="curve" smooth="yes"/>
      <point x="192.6" y="460.8" type="line" smooth="yes"/>
      <point x="179.4" y="392.0"/>
      <point x="209.0" y="346.0"/>
      <point x="268.6" y="336.0" type="curve"/>
      <point x="207.0" y="327.2"/>
      <point x="157.0" y="283.2"/>
      <point x="143.0" y="211.2" type="curve" smooth="yes"/>
      <point x="118.6" y="85.6" type="line" smooth="yes"/>
      <point x="108.6" y="35.2"/>
      <point x="85.8" y="15.200000000000003"/>
      <point x="43.8" y="15.200000000000003" type="curve" smooth="yes"/>
      <point x="-30.6" y="15.200000000000003" type="line"/>
    </contour>
  </outline>
</glyph>
<glyph name="asciitilde" format="2">
  <advance width="616.0"/>
  <unicode hex="007E"/>
  <note>
asciitilde
</note>
  <outline>
    <contour>
      <point x="553.2" y="415.2" type="curve"/>
      <point x="456.0" y="415.2" type="line"/>
      <point x="453.6" y="366.0"/>
      <point x="446.0" y="318.4"/>
      <point x="406.4" y="318.4" type="curve" smooth="yes"/>
      <point x="378.0" y="318.4"/>
      <point x="357.8" y="343.6"/>
      <point x="330.4" y="368.4" type="curve" smooth="yes"/>
      <point x="304.2" y="392.0"/>
      <point x="270.6" y="415.2"/>
      <point x="217.6" y="415.2" type="curve" smooth="yes"/>
      <point x="112.8" y="415.2"/>
      <point x="70.8" y="325.0"/>
      <point x="68.4" y="218.4" type="curve"/>
      <point x="165.6" y="218.4" type="line"/>
      <point x="168.0" y="267.6"/>
      <point x="175.6" y="315.2"/>
      <point x="215.2" y="315.2" type="curve" smooth="yes"/>
      <point x="243.6" y="315.2"/>
      <point x="263.8" y="290.0"/>
      <point x="291.2" y="265.2" type="curve" smooth="yes"/>
      <point x="317.4" y="241.6"/>
      <point x="351.0" y="218.4"/>
      <point x="404.0" y="218.4" type="curve" smooth="yes"/>
      <point x="508.8" y="218.4"/>
      <point x="550.8" y="308.6"/>
    </contour>
  </outline>
</glyph>
<glyph name="exclamdown" format="2">
  <advance width="323.2"/>
  <unicode hex="00A1"/>
  <note>
exclamdown
</note>
  <outline>
    <contour>
      <point x="0.7999999999999989" y="-185.6" type="line"/>
      <point x="145.6" y="-185.6" type="line"/>
      <point x="198.4" y="89.6" type="line" smooth="yes"/>
      <point x="216.4" y="182.2"/>
      <point x="224.8" y="252.8"/>
      <point x="227.2" y="302.4" type="curve"/>
      <point x="112.0" y="302.4" type="line"/>
      <point x="98.4" y="264.8"/>
      <point x="77.6" y="188.2"/>
      <point x="58.4" y="89.6" type="curve" smooth="yes"/>
      <point x="35.2" y="-29.6" type="line" smooth="yes"/>
      <point x="28.0" y="-65.4"/>
      <point x="14.2" y="-140.0"/>
      <point x="-0.8000000000000007" y="-176.0" type="curve"/>
    </contour>
    <contour>
      <point x="187.6" y="379.2" type="curve" smooth="yes"/>
      <point x="243.2" y="379.2"/>
      <point x="282.4" y="424.0"/>
      <point x="282.4" y="477.6" type="curve" smooth="yes"/>
      <point x="282.4" y="517.6"/>
      <point x="256.0" y="544.0"/>
      <point x="211.6" y="544.0" type="curve" smooth="yes"/>
      <point x="157.6" y="544.0"/>
      <point x="116.8" y="499.2"/>
      <point x="116.8" y="445.6" type="curve" smooth="yes"/>
      <point x="116.8" y="405.6"/>
      <point x="144.4" y="379.2"/>
    </contour>
  </outline>
</glyph>
<glyph name="cent" format="2">
  <advance width="616.0"/>
  <unicode hex="00A2"/>
  <note>
cent
</note>
  <outline>
    <contour>
      <point x="356.8" y="604.0" type="line"/>
      <point x="471.2" y="604.0" type="line"/>
      <point x="508.8" y="800.0" type="line"/>
      <point x="394.4" y="800.0" type="line"/>
    </contour>
    <contour>
      <point x="94.8" y="324.8" type="curve" smooth="yes"/>
      <point x="94.8" y="169.6"/>
      <point x="189.2" y="90.4"/>
      <point x="356.4" y="90.4" type="curve" smooth="yes"/>
      <point x="398.0" y="90.4"/>
      <point x="442.8" y="97.6"/>
      <point x="478.0" y="111.2" type="curve"/>
      <point x="500.4" y="227.2" type="line"/>
      <point x="490.8" y="227.2" type="line"/>
      <point x="462.6" y="215.6"/>
      <point x="428.4" y="204.0"/>
      <point x="382.8" y="204.0" type="curve" smooth="yes"/>
      <point x="292.4" y="204.0"/>
      <point x="237.6" y="245.6"/>
      <point x="237.6" y="331.2" type="curve" smooth="yes"/>
      <point x="237.6" y="468.0"/>
      <point x="330.8" y="545.6"/>
      <point x="447.6" y="545.6" type="curve" smooth="yes"/>
      <point x="496.4" y="545.6"/>
      <point x="526.0" y="535.2"/>
      <point x="547.6" y="523.6" type="curve"/>
      <point x="557.2" y="523.6" type="line"/>
      <point x="579.6" y="638.4" type="line"/>
      <point x="550.8" y="652.0"/>
      <point x="498.0" y="659.2"/>
      <point x="451.6" y="659.2" type="curve" smooth="yes"/>
      <point x="238.0" y="659.2"/>
      <point x="94.8" y="525.6"/>
    </contour>
    <contour>
      <point x="228.8" y="-64.0" type="line"/>
      <point x="343.2" y="-64.0" type="line"/>
      <point x="380.8" y="132.0" type="line"/>
      <point x="266.4" y="132.0" type="line"/>
    </contour>
  </outline>
</glyph>
<glyph name="sterling" format="2">
  <advance width="616.0"/>
  <unicode hex="00A3"/>
  <note>
sterling
</note>
  <outline>
    <contour>
      <point x="129.6" y="21.6" type="line"/>
      <point x="269.6" y="21.6" type="line"/>
      <point x="355.2" y="468.0" type="line" smooth="yes"/>
      <point x="374.0" y="565.6"/>
      <point x="420.0" y="624.8"/>
      <point x="516.0" y="624.8" type="curve" smooth="yes"/>
      <point x="560.8" y="624.8"/>
      <point x="589.2" y="616.0"/>
      <point x="609.6" y="605.6" type="curve"/>
      <point x="619.2" y="605.6" type="line"/>
      <point x="640.0" y="713.6" type="line"/>
      <point x="611.6" y="724.0"/>
      <point x="568.8" y="732.0"/>
      <point x="516.0" y="732.0" type="curve" smooth="yes"/>
      <point x="336.0" y="732.0"/>
      <point x="244.2" y="617.6"/>
      <point x="215.2" y="466.4" type="curve" smooth="yes"/>
    </contour>
    <contour>
      <point x="68.8" y="321.6" type="line"/>
      <point x="500.0" y="321.6" type="line"/>
      <point x="520.8" y="432.8" type="line"/>
      <point x="89.6" y="432.8" type="line"/>
    </contour>
    <contour>
      <point x="-3.2" y="0.0" type="line"/>
      <point x="518.4" y="0.0" type="line"/>
      <point x="539.2" y="111.2" type="line"/>
      <point x="19.2" y="111.2" type="line"/>
    </contour>
  </outline>
</glyph>
<glyph name="currency" format="2">
  <advance width="616.0"/>
  <unicode hex="00A4"/>
  <note>
currency
</note>
  <outline>
    <contour>
      <point x="443.0" y="144.2" type="line"/>
      <point x="509.8" y="200.2" type="line"/>
      <point x="468.4" y="252.2" type="line"/>
      <point x="499.4" y="292.6"/>
      <point x="521.4" y="348.0"/>
      <point x="521.4" y="403.4" type="curve" smooth="yes"/>
      <point x="521.4" y="427.0"/>
      <point x="516.8" y="448.6"/>
      <point x="509.6" y="467.6" type="curve"/>
      <point x="571.8" y="519.8" type="line"/>
      <point x="526.8" y="574.8" type="line"/>
      <point x="466.8" y="525.0" type="line"/>
      <point x="441.4" y="542.6"/>
      <point x="407.0" y="553.6"/>
      <point x="364.0" y="553.6" type="curve" smooth="yes"/>
      <point x="321.8" y="553.6"/>
      <point x="284.2" y="542.4"/>
      <point x="251.2" y="525.2" type="curve"/>
      <point x="212.6" y="575.4" type="line"/>
      <point x="145.4" y="519.8" type="line"/>
      <point x="185.2" y="469.0" type="line"/>
      <point x="151.8" y="428.2"/>
      <point x="130.6" y="370.8"/>
      <point x="130.6" y="314.2" type="curve" smooth="yes"/>
      <point x="130.6" y="290.6"/>
      <point x="135.2" y="268.6"/>
      <point x="143.2" y="249.6" type="curve"/>
      <point x="83.4" y="200.2" type="line"/>
      <point x="128.8" y="144.8" type="line"/>
      <point x="186.8" y="193.8" type="line"/>
      <point x="212.6" y="176.2"/>
      <point x="246.2" y="166.0"/>
      <point x="288.4" y="166.0" type="curve" smooth="yes"/>
      <point x="331.4" y="166.0"/>
      <point x="369.8" y="177.2"/>
      <point x="403.2" y="195.6" type="curve"/>
    </contour>
    <contour>
      <point x="304.4" y="246.2" type="curve"/>
      <point x="250.2" y="246.2"/>
      <point x="220.8" y="278.6"/>
      <point x="220.8" y="330.2" type="curve" smooth="yes"/>
      <point x="220.8" y="412.2"/>
      <point x="277.6" y="472.8"/>
      <point x="348.4" y="472.8" type="curve" smooth="yes"/>
      <point x="402.2" y="473.4"/>
      <point x="431.6" y="440.6"/>
      <point x="431.6" y="389.4" type="curve" smooth="yes"/>
      <point x="431.6" y="307.0"/>
      <point x="374.4" y="246.8"/>
    </contour>
  </outline>
</glyph>
<glyph name="yen" format="2">
  <advance width="616.0"/>
  <unicode hex="00A5"/>
  <note>
yen
</note>
  <outline>
    <contour>
      <point x="342.4" y="272.8" type="line"/>
      <point x="685.6" y="710.4" type="line"/>
      <point x="685.6" y="720.0" type="line"/>
      <point x="549.6" y="720.0" type="line"/>
      <point x="299.2" y="380.8" type="line"/>
    </contour>
    <contour>
      <point x="285.6" y="274.4" type="line"/>
      <point x="368.0" y="384.0" type="line"/>
      <point x="246.4" y="720.0" type="line"/>
      <point x="108.8" y="720.0" type="line"/>
      <point x="108.8" y="710.4" type="line"/>
    </contour>
    <contour>
      <point x="112.0" y="327.2" type="line"/>
      <point x="531.2" y="327.2" type="line"/>
      <point x="549.6" y="421.6" type="line"/>
      <point x="130.4" y="421.6" type="line"/>
    </contour>
    <contour>
      <point x="191.2" y="0.0" type="line"/>
      <point x="327.2" y="0.0" type="line"/>
      <point x="403.2" y="396.8" type="line"/>
      <point x="267.2" y="396.8" type="line"/>
    </contour>
    <contour>
      <point x="82.4" y="167.2" type="line"/>
      <point x="501.6" y="167.2" type="line"/>
      <point x="520.0" y="261.6" type="line"/>
      <point x="100.8" y="261.6" type="line"/>
    </contour>
  </outline>
</glyph>
<glyph name="brokenbar" format="2">
  <advance width="308.0"/>
  <unicode hex="00A6"/>
  <note>
brokenbar
</note>
  <outline>
    <contour>
      <point x="188.8" y="760.0" type="line"/>
      <point x="123.8" y="422.4" type="line"/>
      <point x="251.0" y="422.4" type="line"/>
      <point x="316.0" y="760.0" type="line"/>
    </contour>
    <contour>
      <point x="185.6" y="89.6" type="line"/>
      <point x="58.4" y="89.6" type="line"/>
      <point x="-7.200000000000003" y="-250.4" type="line"/>
      <point x="120.0" y="-250.4" type="line"/>
    </contour>
  </outline>
</glyph>
<glyph name="section" format="2">
  <advance width="606.4"/>
  <unicode hex="00A7"/>
  <note>
section
</note>
  <outline>
    <contour>
      <point x="276.8" y="63.2" type="line"/>
      <point x="375.2" y="63.2" type="line"/>
      <point x="463.2" y="103.2"/>
      <point x="540.8" y="156.8"/>
      <point x="540.8" y="260.0" type="curve" smooth="yes"/>
      <point x="540.8" y="352.0"/>
      <point x="480.0" y="390.0"/>
      <point x="401.6" y="420.8" type="curve" smooth="yes"/>
      <point x="355.2" y="439.2" type="line" smooth="yes"/>
      <point x="305.6" y="458.8"/>
      <point x="273.6" y="470.4"/>
      <point x="273.6" y="518.4" type="curve" smooth="yes"/>
      <point x="273.6" y="584.0"/>
      <point x="332.0" y="620.0"/>
      <point x="419.2" y="620.0" type="curve" smooth="yes"/>
      <point x="484.8" y="620.0"/>
      <point x="522.0" y="608.0"/>
      <point x="553.6" y="592.0" type="curve"/>
      <point x="563.2" y="592.0" type="line"/>
      <point x="585.2" y="709.6" type="line"/>
      <point x="552.0" y="721.6"/>
      <point x="496.8" y="732.0"/>
      <point x="425.6" y="732.0" type="curve" smooth="yes"/>
      <point x="260.6" y="732.0"/>
      <point x="134.4" y="658.4"/>
      <point x="134.4" y="511.2" type="curve" smooth="yes"/>
      <point x="134.4" y="409.6"/>
      <point x="198.8" y="370.6"/>
      <point x="284.0" y="336.8" type="curve" smooth="yes"/>
      <point x="325.6" y="320.0" type="line" smooth="yes"/>
      <point x="380.6" y="297.8"/>
      <point x="404.8" y="281.6"/>
      <point x="404.8" y="237.6" type="curve" smooth="yes"/>
      <point x="404.8" y="179.2"/>
      <point x="349.2" y="142.4"/>
      <point x="276.8" y="124.0" type="curve"/>
    </contour>
    <contour>
      <point x="22.4" y="-92.0" type="line"/>
      <point x="0.40000000000000036" y="-209.6" type="line"/>
      <point x="33.6" y="-221.6"/>
      <point x="88.8" y="-232.0"/>
      <point x="160.0" y="-232.0" type="curve" smooth="yes"/>
      <point x="325.0" y="-232.0"/>
      <point x="451.2" y="-158.4"/>
      <point x="451.2" y="-11.2" type="curve" smooth="yes"/>
      <point x="451.2" y="90.4"/>
      <point x="386.8" y="129.4"/>
      <point x="301.6" y="163.2" type="curve" smooth="yes"/>
      <point x="260.0" y="180.0" type="line" smooth="yes"/>
      <point x="205.0" y="202.2"/>
      <point x="180.8" y="218.4"/>
      <point x="180.8" y="262.4" type="curve" smooth="yes"/>
      <point x="180.8" y="320.8"/>
      <point x="236.4" y="357.6"/>
      <point x="308.8" y="376.0" type="curve"/>
      <point x="308.8" y="436.8" type="line"/>
      <point x="210.4" y="436.8" type="line"/>
      <point x="122.4" y="396.8"/>
      <point x="44.8" y="343.2"/>
      <point x="44.8" y="240.0" type="curve" smooth="yes"/>
      <point x="44.8" y="148.0"/>
      <point x="105.6" y="110.0"/>
      <point x="184.0" y="79.2" type="curve" smooth="yes"/>
      <point x="230.4" y="60.8" type="line" smooth="yes"/>
      <point x="280.0" y="41.2"/>
      <point x="312.0" y="29.6"/>
      <point x="312.0" y="-18.4" type="curve" smooth="yes"/>
      <point x="312.0" y="-84.0"/>
      <point x="253.6" y="-120.0"/>
      <point x="166.4" y="-120.0" type="curve" smooth="yes"/>
      <point x="100.8" y="-120.0"/>
      <point x="63.6" y="-108.0"/>
      <point x="32.0" y="-92.0" type="curve"/>
    </contour>
  </outline>
</glyph>
<glyph name="copyright" format="2">
  <advance width="824.0"/>
  <unicode hex="00A9"/>
  <note>
copyright
</note>
  <outline>
    <contour>
      <point x="61.6" y="360.0" type="curve" smooth="yes"/>
      <point x="61.6" y="121.6"/>
      <point x="208.0" y="-18.4"/>
      <point x="432.0" y="-18.4" type="curve" smooth="yes"/>
      <point x="656.0" y="-18.4"/>
      <point x="802.4" y="121.6"/>
      <point x="802.4" y="360.0" type="curve" smooth="yes"/>
      <point x="802.4" y="598.4"/>
      <point x="656.0" y="738.4"/>
      <point x="432.0" y="738.4" type="curve" smooth="yes"/>
      <point x="208.0" y="738.4"/>
      <point x="61.6" y="598.4"/>
    </contour>
    <contour>
      <point x="144.8" y="360.0" type="curve" smooth="yes"/>
      <point x="144.8" y="568.0"/>
      <point x="260.0" y="664.8"/>
      <point x="432.0" y="664.8" type="curve" smooth="yes"/>
      <point x="604.0" y="664.8"/>
      <point x="719.2" y="565.6"/>
      <point x="719.2" y="360.0" type="curve" smooth="yes"/>
      <point x="719.2" y="154.4"/>
      <point x="604.0" y="55.2"/>
      <point x="432.0" y="55.2" type="curve" smooth="yes"/>
      <point x="260.0" y="55.2"/>
      <point x="144.8" y="152.0"/>
    </contour>
    <contour>
      <point x="242.4" y="360.0" type="curve" smooth="yes"/>
      <point x="242.4" y="238.0"/>
      <point x="320.4" y="156.0"/>
      <point x="472.0" y="156.0" type="curve" smooth="yes"/>
      <point x="502.8" y="156.0"/>
      <point x="539.6" y="160.4"/>
      <point x="562.4" y="168.2" type="curve"/>
      <point x="562.4" y="248.0" type="line"/>
      <point x="556.8" y="248.0" type="line"/>
      <point x="536.8" y="239.6"/>
      <point x="505.2" y="233.6"/>
      <point x="475.2" y="233.6" type="curve" smooth="yes"/>
      <point x="382.8" y="233.6"/>
      <point x="339.2" y="275.2"/>
      <point x="339.2" y="360.0" type="curve" smooth="yes"/>
      <point x="339.2" y="442.4"/>
      <point x="385.6" y="486.4"/>
      <point x="475.2" y="486.4" type="curve" smooth="yes"/>
      <point x="505.2" y="486.4"/>
      <point x="536.8" y="480.4"/>
      <point x="556.8" y="472.0" type="curve"/>
      <point x="562.4" y="472.0" type="line"/>
      <point x="562.4" y="551.8" type="line"/>
      <point x="539.6" y="559.6"/>
      <point x="502.8" y="564.0"/>
      <point x="472.0" y="564.0" type="curve" smooth="yes"/>
      <point x="323.2" y="564.0"/>
      <point x="242.4" y="481.6"/>
    </contour>
  </outline>
</glyph>
<glyph name="guillemetleft" format="2">
  <advance width="605.6"/>
  <unicode hex="00AB"/>
  <note>
guillemotleft
</note>
  <outline>
    <contour>
      <point x="293.6" y="277.6" type="line"/>
      <point x="496.0" y="57.6" type="line"/>
      <point x="504.0" y="57.6" type="line"/>
      <point x="526.8" y="174.4" type="line"/>
      <point x="409.6" y="298.8" type="line"/>
      <point x="576.8" y="420.8" type="line"/>
      <point x="603.2" y="558.4" type="line"/>
      <point x="595.2" y="558.4" type="line"/>
      <point x="306.4" y="338.4" type="line"/>
    </contour>
    <contour>
      <point x="237.6" y="57.6" type="line"/>
      <point x="245.6" y="57.6" type="line"/>
      <point x="268.4" y="174.4" type="line"/>
      <point x="151.2" y="298.8" type="line"/>
      <point x="318.4" y="420.8" type="line"/>
      <point x="344.8" y="558.4" type="line"/>
      <point x="336.8" y="558.4" type="line"/>
      <point x="48.0" y="338.4" type="line"/>
      <point x="35.2" y="277.6" type="line"/>
    </contour>
  </outline>
</glyph>
<glyph name="logicalnot" format="2">
  <advance width="616.0"/>
  <unicode hex="00AC"/>
  <note>
logicalnot
</note>
  <outline>
    <contour>
      <point x="68.8" y="365.6" type="line"/>
      <point x="68.8" y="266.4" type="line"/>
      <point x="457.6" y="266.4" type="line"/>
      <point x="457.6" y="64.0" type="line"/>
      <point x="556.8" y="64.0" type="line"/>
      <point x="556.8" y="365.6" type="line"/>
    </contour>
  </outline>
</glyph>
<glyph name="registered" format="2">
  <advance width="824.0"/>
  <unicode hex="00AE"/>
  <note>
registered
</note>
  <outline>
    <contour>
      <point x="432.0" y="-18.4" type="curve" smooth="yes"/>
      <point x="656.0" y="-18.4"/>
      <point x="802.4" y="121.6"/>
      <point x="802.4" y="360.0" type="curve" smooth="yes"/>
      <point x="802.4" y="598.4"/>
      <point x="656.0" y="738.4"/>
      <point x="432.0" y="738.4" type="curve" smooth="yes"/>
      <point x="208.0" y="738.4"/>
      <point x="61.6" y="598.4"/>
      <point x="61.6" y="360.0" type="curve" smooth="yes"/>
      <point x="61.6" y="121.6"/>
      <point x="208.0" y="-18.4"/>
    </contour>
    <contour>
      <point x="274.4" y="168.0" type="line"/>
      <point x="366.0" y="168.0" type="line"/>
      <point x="366.0" y="561.2" type="line"/>
      <point x="274.4" y="561.2" type="line"/>
      <point x="274.4" y="472.0" type="line"/>
    </contour>
    <contour>
      <point x="526.4" y="168.0" type="line"/>
      <point x="626.4" y="168.0" type="line"/>
      <point x="626.4" y="176.0" type="line"/>
      <point x="493.2" y="336.8" type="line"/>
      <point x="408.8" y="316.8" type="line"/>
    </contour>
    <contour>
      <point x="432.0" y="55.2" type="curve" smooth="yes"/>
      <point x="260.0" y="55.2"/>
      <point x="144.8" y="152.0"/>
      <point x="144.8" y="360.0" type="curve" smooth="yes"/>
      <point x="144.8" y="568.0"/>
      <point x="260.0" y="664.8"/>
      <point x="432.0" y="664.8" type="curve" smooth="yes"/>
      <point x="604.0" y="664.8"/>
      <point x="719.2" y="565.6"/>
      <point x="719.2" y="360.0" type="curve" smooth="yes"/>
      <point x="719.2" y="154.4"/>
      <point x="604.0" y="55.2"/>
    </contour>
    <contour>
      <point x="326.0" y="267.2" type="line"/>
      <point x="421.2" y="267.2" type="line" smooth="yes"/>
      <point x="540.8" y="267.2"/>
      <point x="601.6" y="343.6"/>
      <point x="601.6" y="428.0" type="curve" smooth="yes"/>
      <point x="601.6" y="514.6"/>
      <point x="552.0" y="561.2"/>
      <point x="444.0" y="561.2" type="curve" smooth="yes"/>
      <point x="326.0" y="561.2" type="line"/>
      <point x="326.0" y="488.8" type="line"/>
      <point x="438.0" y="488.8" type="line" smooth="yes"/>
      <point x="482.8" y="488.8"/>
      <point x="510.0" y="472.6"/>
      <point x="510.0" y="427.6" type="curve" smooth="yes"/>
      <point x="510.0" y="378.4"/>
      <point x="483.8" y="336.8"/>
      <point x="419.6" y="336.8" type="curve" smooth="yes"/>
      <point x="326.0" y="336.8" type="line"/>
    </contour>
  </outline>
</glyph>
<glyph name="degree" format="2">
  <advance width="408.0"/>
  <unicode hex="00B0"/>
  <note>
degree
</note>
  <outline>
    <contour>
      <point x="272.8" y="472.0" type="curve" smooth="yes"/>
      <point x="353.6" y="472.0"/>
      <point x="416.8" y="523.2"/>
      <point x="416.8" y="608.0" type="curve" smooth="yes"/>
      <point x="416.8" y="692.8"/>
      <point x="353.6" y="744.0"/>
      <point x="272.8" y="744.0" type="curve" smooth="yes"/>
      <point x="192.0" y="744.0"/>
      <point x="128.8" y="692.8"/>
      <point x="128.8" y="608.0" type="curve" smooth="yes"/>
      <point x="128.8" y="523.2"/>
      <point x="192.0" y="472.0"/>
    </contour>
    <contour>
      <point x="272.8" y="536.8" type="curve" smooth="yes"/>
      <point x="230.8" y="536.8"/>
      <point x="201.6" y="563.2"/>
      <point x="201.6" y="608.0" type="curve" smooth="yes"/>
      <point x="201.6" y="652.8"/>
      <point x="230.8" y="679.2"/>
      <point x="272.8" y="679.2" type="curve" smooth="yes"/>
      <point x="314.8" y="679.2"/>
      <point x="344.0" y="652.8"/>
      <point x="344.0" y="608.0" type="curve" smooth="yes"/>
      <point x="344.0" y="563.2"/>
      <point x="314.8" y="536.8"/>
    </contour>
  </outline>
</glyph>
<glyph name="plusminus" format="2">
  <advance width="616.0"/>
  <unicode hex="00B1"/>
  <note>
plusminus
</note>
  <outline>
    <contour>
      <point x="263.2" y="175.2" type="line"/>
      <point x="362.4" y="175.2" type="line"/>
      <point x="362.4" y="663.2" type="line"/>
      <point x="263.2" y="663.2" type="line"/>
    </contour>
    <contour>
      <point x="68.8" y="0.0" type="line"/>
      <point x="556.8" y="0.0" type="line"/>
      <point x="556.8" y="99.2" type="line"/>
      <point x="68.8" y="99.2" type="line"/>
    </contour>
    <contour>
      <point x="68.8" y="369.6" type="line"/>
      <point x="556.8" y="369.6" type="line"/>
      <point x="556.8" y="468.8" type="line"/>
      <point x="68.8" y="468.8" type="line"/>
    </contour>
  </outline>
</glyph>
<glyph name="paragraph" format="2">
  <advance width="700.0"/>
  <unicode hex="00B6"/>
  <note>
paragraph
</note>
  <outline>
    <contour>
      <point x="288.0" y="248.0" type="curve" smooth="yes"/>
      <point x="303.2" y="248.0" type="line"/>
      <point x="208.0" y="-250.4" type="line"/>
      <point x="316.0" y="-250.4" type="line"/>
      <point x="482.2" y="615.2" type="line"/>
      <point x="579.0" y="615.2" type="line"/>
      <point x="412.8" y="-250.4" type="line"/>
      <point x="517.6" y="-250.4" type="line"/>
      <point x="704.0" y="720.0" type="line"/>
      <point x="372.4" y="720.0" type="line" smooth="yes"/>
      <point x="228.8" y="720.0"/>
      <point x="90.4" y="620.2"/>
      <point x="90.4" y="443.2" type="curve" smooth="yes"/>
      <point x="90.4" y="314.6"/>
      <point x="176.6" y="248.0"/>
    </contour>
  </outline>
</glyph>
<glyph name="periodcentered" format="2">
  <advance width="281.6"/>
  <unicode hex="00B7"/>
  <note>
periodcentered
</note>
  <outline>
    <contour>
      <point x="150.4" y="284.0" type="curve" smooth="yes"/>
      <point x="204.4" y="284.0"/>
      <point x="245.2" y="328.8"/>
      <point x="245.2" y="382.4" type="curve" smooth="yes"/>
      <point x="245.2" y="422.4"/>
      <point x="217.6" y="448.8"/>
      <point x="174.4" y="448.8" type="curve" smooth="yes"/>
      <point x="118.8" y="448.8"/>
      <point x="79.6" y="404.0"/>
      <point x="79.6" y="350.4" type="curve" smooth="yes"/>
      <point x="79.6" y="310.4"/>
      <point x="106.0" y="284.0"/>
    </contour>
  </outline>
</glyph>
<glyph name="guillemetright" format="2">
  <advance width="605.2"/>
  <unicode hex="00BB"/>
  <note>
guillemotright
</note>
  <outline>
    <contour>
      <point x="274.4" y="57.6" type="line"/>
      <point x="282.4" y="57.6" type="line"/>
      <point x="571.2" y="277.6" type="line"/>
      <point x="584.0" y="338.4" type="line"/>
      <point x="381.6" y="558.4" type="line"/>
      <point x="373.6" y="558.4" type="line"/>
      <point x="350.8" y="441.6" type="line"/>
      <point x="468.0" y="317.2" type="line"/>
      <point x="300.8" y="195.2" type="line"/>
    </contour>
    <contour>
      <point x="16.0" y="57.6" type="line"/>
      <point x="24.0" y="57.6" type="line"/>
      <point x="312.8" y="277.6" type="line"/>
      <point x="325.6" y="338.4" type="line"/>
      <point x="123.2" y="558.4" type="line"/>
      <point x="115.2" y="558.4" type="line"/>
      <point x="92.4" y="441.6" type="line"/>
      <point x="209.6" y="317.2" type="line"/>
      <point x="42.4" y="195.2" type="line"/>
    </contour>
  </outline>
</glyph>
<glyph name="questiondown" format="2">
  <advance width="503.2"/>
  <unicode hex="00BF"/>
  <note>
questiondown
</note>
  <outline>
    <contour>
      <point x="327.2" y="378.4" type="curve" smooth="yes"/>
      <point x="382.4" y="378.4"/>
      <point x="422.0" y="424.8"/>
      <point x="422.0" y="475.2" type="curve" smooth="yes"/>
      <point x="422.0" y="518.4"/>
      <point x="395.2" y="543.2"/>
      <point x="351.2" y="543.2" type="curve" smooth="yes"/>
      <point x="297.2" y="543.2"/>
      <point x="256.4" y="496.8"/>
      <point x="256.4" y="446.4" type="curve" smooth="yes"/>
      <point x="256.4" y="403.2"/>
      <point x="284.4" y="378.4"/>
    </contour>
    <contour>
      <point x="-16.0" y="-33.6" type="curve" smooth="yes"/>
      <point x="-16.0" y="-143.2"/>
      <point x="57.0" y="-198.4"/>
      <point x="194.4" y="-198.4" type="curve" smooth="yes"/>
      <point x="251.2" y="-198.4"/>
      <point x="311.2" y="-188.8"/>
      <point x="372.0" y="-164.0" type="curve"/>
      <point x="394.4" y="-47.2" type="line"/>
      <point x="384.8" y="-47.2" type="line"/>
      <point x="335.8" y="-72.0"/>
      <point x="284.8" y="-85.6"/>
      <point x="226.4" y="-85.6" type="curve" smooth="yes"/>
      <point x="163.2" y="-85.6"/>
      <point x="128.8" y="-63.599999999999994"/>
      <point x="128.8" y="-15.2" type="curve" smooth="yes"/>
      <point x="128.8" y="40.8"/>
      <point x="178.0" y="73.0"/>
      <point x="219.2" y="95.2" type="curve" smooth="yes"/>
      <point x="274.4" y="124.8" type="line" smooth="yes"/>
      <point x="334.4" y="157.2"/>
      <point x="358.8" y="203.2"/>
      <point x="368.8" y="262.4" type="curve" smooth="yes"/>
      <point x="380.0" y="320.0" type="line"/>
      <point x="249.6" y="320.0" type="line"/>
      <point x="238.4" y="266.4" type="line" smooth="yes"/>
      <point x="232.8" y="237.6"/>
      <point x="223.6" y="212.0"/>
      <point x="188.8" y="192.8" type="curve" smooth="yes"/>
      <point x="146.4" y="169.6" type="line" smooth="yes"/>
      <point x="102.6" y="145.6"/>
      <point x="-16.0" y="86.8"/>
    </contour>
  </outline>
</glyph>
<glyph name="AE" format="2">
  <advance width="996.4"/>
  <unicode hex="00C6"/>
  <note>
AE
</note>
  <anchor x="440.2" y="0.0" name="bottom"/>
  <anchor x="593.2" y="720.0" name="top"/>
  <outline>
    <contour>
      <point x="-9.600000000000001" y="0.0" type="line"/>
      <point x="136.8" y="0.0" type="line"/>
      <point x="304.4" y="472.0" type="line" smooth="yes"/>
      <point x="335.8" y="559.6"/>
      <point x="383.2" y="607.2"/>
      <point x="492.8" y="607.2" type="curve" smooth="yes"/>
      <point x="515.4" y="607.2"/>
      <point x="543.2" y="603.6"/>
      <point x="556.8" y="596.8" type="curve"/>
      <point x="549.6" y="632.0" type="line"/>
      <point x="538.6" y="612.6"/>
      <point x="529.6" y="583.2"/>
      <point x="524.0" y="552.8" type="curve" smooth="yes"/>
      <point x="416.0" y="0.0" type="line"/>
      <point x="558.4" y="0.0" type="line"/>
      <point x="666.4" y="554.4" type="line" smooth="yes"/>
      <point x="674.4" y="594.4"/>
      <point x="686.4" y="656.8"/>
      <point x="701.2" y="695.2" type="curve"/>
      <point x="698.0" y="707.2" type="line"/>
      <point x="646.0" y="720.8"/>
      <point x="592.8" y="728.0"/>
      <point x="533.6" y="728.0" type="curve" smooth="yes"/>
      <point x="341.6" y="728.0"/>
      <point x="229.0" y="668.0"/>
      <point x="162.0" y="480.0" type="curve" smooth="yes"/>
    </contour>
    <contour>
      <point x="168.8" y="199.2" type="line"/>
      <point x="487.2" y="199.2" type="line"/>
      <point x="509.6" y="316.8" type="line"/>
      <point x="204.8" y="316.8" type="line"/>
    </contour>
    <contour>
      <point x="512.8" y="0.0" type="line"/>
      <point x="892.8" y="0.0" type="line"/>
      <point x="916.0" y="124.0" type="line"/>
      <point x="536.8" y="124.0" type="line"/>
    </contour>
    <contour>
      <point x="576.0" y="308.8" type="line"/>
      <point x="891.2" y="308.8" type="line"/>
      <point x="913.6" y="428.0" type="line"/>
      <point x="598.4" y="428.0" type="line"/>
    </contour>
    <contour>
      <point x="592.8" y="596.0" type="line"/>
      <point x="999.2" y="596.0" type="line"/>
      <point x="1022.4" y="720.0" type="line"/>
      <point x="616.8" y="720.0" type="line"/>
    </contour>
  </outline>
</glyph>
<glyph name="multiply" format="2">
  <advance width="616.0"/>
  <unicode hex="00D7"/>
  <note>
multiply
</note>
  <outline>
    <contour>
      <point x="166.6" y="100.2" type="line"/>
      <point x="528.6" y="462.2" type="line"/>
      <point x="459.0" y="531.8" type="line"/>
      <point x="97.0" y="169.8" type="line"/>
    </contour>
    <contour>
      <point x="459.0" y="100.2" type="line"/>
      <point x="528.6" y="169.8" type="line"/>
      <point x="166.6" y="531.8" type="line"/>
      <point x="97.0" y="462.2" type="line"/>
    </contour>
  </outline>
</glyph>
<glyph name="Thorn" format="2">
  <advance width="639.6"/>
  <unicode hex="00DE"/>
  <note>
Thorn
</note>
  <outline>
    <contour>
      <point x="252.8" y="618.4" type="line"/>
      <point x="230.4" y="497.6" type="line"/>
      <point x="389.6" y="497.6" type="line" smooth="yes"/>
      <point x="451.2" y="497.6"/>
      <point x="489.6" y="468.8"/>
      <point x="489.6" y="400.8" type="curve" smooth="yes"/>
      <point x="489.6" y="308.8"/>
      <point x="432.0" y="224.0"/>
      <point x="312.0" y="224.0" type="curve" smooth="yes"/>
      <point x="174.4" y="224.0" type="line"/>
      <point x="152.0" y="106.4" type="line"/>
      <point x="312.0" y="106.4" type="line" smooth="yes"/>
      <point x="523.2" y="106.4"/>
      <point x="634.4" y="262.4"/>
      <point x="634.4" y="407.2" type="curve" smooth="yes"/>
      <point x="634.4" y="547.2"/>
      <point x="547.2" y="618.4"/>
      <point x="393.6" y="618.4" type="curve" smooth="yes"/>
    </contour>
    <contour>
      <point x="174.4" y="720.0" type="line"/>
      <point x="34.4" y="0.0" type="line"/>
      <point x="176.8" y="0.0" type="line"/>
      <point x="316.8" y="720.0" type="line"/>
    </contour>
  </outline>
</glyph>
<glyph name="germandbls" format="2">
  <advance width="645.6"/>
  <unicode hex="00DF"/>
  <note>
germandbls
</note>
  <outline>
    <contour>
      <point x="386.4" y="-8.0" type="curve" smooth="yes"/>
      <point x="504.0" y="-8.0"/>
      <point x="598.4" y="48.0"/>
      <point x="598.4" y="171.2" type="curve" smooth="yes"/>
      <point x="598.4" y="227.2"/>
      <point x="571.6" y="262.4"/>
      <point x="546.4" y="290.4" type="curve" smooth="yes"/>
      <point x="534.4" y="304.0" type="line" smooth="yes"/>
      <point x="515.6" y="325.2"/>
      <point x="500.0" y="340.0"/>
      <point x="500.0" y="371.2" type="curve" smooth="yes"/>
      <point x="500.0" y="409.6"/>
      <point x="527.6" y="436.6"/>
      <point x="555.2" y="470.4" type="curve" smooth="yes"/>
      <point x="583.8" y="506.4"/>
      <point x="611.6" y="548.0"/>
      <point x="611.6" y="608.8" type="curve" smooth="yes"/>
      <point x="611.6" y="708.8"/>
      <point x="538.4" y="766.4"/>
      <point x="421.6" y="766.4" type="curve" smooth="yes"/>
      <point x="276.8" y="766.4"/>
      <point x="187.2" y="702.4"/>
      <point x="156.0" y="538.4" type="curve" smooth="yes"/>
      <point x="52.0" y="0.0" type="line"/>
      <point x="192.0" y="0.0" type="line"/>
      <point x="298.4" y="548.0" type="line" smooth="yes"/>
      <point x="312.8" y="622.4"/>
      <point x="344.8" y="657.6"/>
      <point x="407.2" y="657.6" type="curve" smooth="yes"/>
      <point x="462.4" y="657.6"/>
      <point x="480.0" y="629.6"/>
      <point x="480.0" y="592.0" type="curve" smooth="yes"/>
      <point x="480.0" y="552.8"/>
      <point x="455.6" y="518.8"/>
      <point x="429.6" y="488.0" type="curve" smooth="yes"/>
      <point x="398.6" y="451.4"/>
      <point x="369.6" y="413.6"/>
      <point x="369.6" y="361.6" type="curve" smooth="yes"/>
      <point x="369.6" y="312.0"/>
      <point x="395.4" y="281.4"/>
      <point x="418.4" y="256.0" type="curve" smooth="yes"/>
      <point x="430.4" y="242.4" type="line" smooth="yes"/>
      <point x="447.6" y="224.0"/>
      <point x="465.6" y="208.8"/>
      <point x="465.6" y="173.6" type="curve" smooth="yes"/>
      <point x="465.6" y="126.4"/>
      <point x="437.6" y="100.0"/>
      <point x="379.2" y="100.0" type="curve" smooth="yes"/>
      <point x="344.0" y="100.0"/>
      <point x="323.6" y="109.2"/>
      <point x="306.4" y="118.4" type="curve"/>
      <point x="296.8" y="118.4" type="line"/>
      <point x="274.4" y="8.0" type="line"/>
      <point x="306.4" y="-1.0"/>
      <point x="336.8" y="-8.0"/>
    </contour>
    <contour>
      <point x="48.8" y="433.6" type="line"/>
      <point x="168.0" y="433.6" type="line"/>
      <point x="190.4" y="545.6" type="line"/>
      <point x="71.2" y="545.6" type="line"/>
    </contour>
  </outline>
</glyph>
<glyph name="ae" format="2">
  <advance width="955.8"/>
  <unicode hex="00E6"/>
  <note>
ae
</note>
  <anchor x="425.2" y="0.0" name="bottom"/>
  <anchor x="531.2" y="545.6" name="top"/>
  <outline>
    <contour>
      <point x="666.4" y="-9.6" type="curve" smooth="yes"/>
      <point x="728.8" y="-9.6"/>
      <point x="785.6" y="0.7999999999999998"/>
      <point x="824.0" y="16.8" type="curve"/>
      <point x="846.4" y="131.2" type="line"/>
      <point x="836.8" y="131.2" type="line"/>
      <point x="805.4" y="115.2"/>
      <point x="747.2" y="100.8"/>
      <point x="685.6" y="100.8" type="curve" smooth="yes"/>
      <point x="588.0" y="100.8"/>
      <point x="527.6" y="140.8"/>
      <point x="527.6" y="232.8" type="curve" smooth="yes"/>
      <point x="527.6" y="249.6" type="line" smooth="yes"/>
      <point x="527.6" y="358.4"/>
      <point x="589.6" y="455.2"/>
      <point x="690.4" y="455.2" type="curve" smooth="yes"/>
      <point x="760.8" y="455.2"/>
      <point x="790.8" y="419.2"/>
      <point x="790.8" y="361.6" type="curve" smooth="yes"/>
      <point x="790.8" y="350.8"/>
      <point x="788.8" y="336.0"/>
      <point x="785.6" y="322.4" type="curve"/>
      <point x="477.6" y="322.4" type="line"/>
      <point x="477.6" y="232.0" type="line"/>
      <point x="904.0" y="232.0" type="line"/>
      <point x="914.8" y="271.2"/>
      <point x="924.0" y="316.8"/>
      <point x="924.0" y="359.2" type="curve" smooth="yes"/>
      <point x="924.0" y="477.6"/>
      <point x="852.0" y="559.2"/>
      <point x="696.0" y="559.2" type="curve" smooth="yes"/>
      <point x="514.8" y="559.2"/>
      <point x="395.6" y="411.2"/>
      <point x="395.6" y="226.4" type="curve" smooth="yes"/>
      <point x="395.6" y="66.4"/>
      <point x="497.4" y="-9.6"/>
    </contour>
    <contour>
      <point x="264.8" y="-12.0" type="curve" smooth="yes"/>
      <point x="364.8" y="-12.0"/>
      <point x="434.4" y="17.6"/>
      <point x="507.2" y="66.4" type="curve"/>
      <point x="490.4" y="135.2" type="line"/>
      <point x="439.2" y="143.2" type="line"/>
      <point x="386.4" y="104.0"/>
      <point x="332.0" y="86.4"/>
      <point x="270.4" y="86.4" type="curve" smooth="yes"/>
      <point x="208.0" y="86.4"/>
      <point x="165.6" y="104.8"/>
      <point x="165.6" y="155.2" type="curve" smooth="yes"/>
      <point x="165.6" y="215.2"/>
      <point x="216.0" y="241.6"/>
      <point x="297.6" y="241.6" type="curve" smooth="yes"/>
      <point x="348.0" y="241.6"/>
      <point x="376.0" y="232.8"/>
      <point x="407.2" y="220.0" type="curve"/>
      <point x="439.2" y="220.0" type="line"/>
      <point x="439.2" y="314.4" type="line"/>
      <point x="412.0" y="314.4" type="line"/>
      <point x="393.8" y="320.4"/>
      <point x="349.6" y="333.6"/>
      <point x="292.0" y="333.6" type="curve" smooth="yes"/>
      <point x="149.6" y="333.6"/>
      <point x="33.6" y="279.2"/>
      <point x="33.6" y="147.2" type="curve" smooth="yes"/>
      <point x="33.6" y="37.6"/>
      <point x="114.4" y="-12.0"/>
    </contour>
    <contour>
      <point x="395.2" y="270.4" type="line"/>
      <point x="543.2" y="399.2" type="line"/>
      <point x="543.2" y="500.8"/>
      <point x="460.8" y="559.2"/>
      <point x="313.6" y="559.2" type="curve" smooth="yes"/>
      <point x="251.2" y="559.2"/>
      <point x="199.2" y="550.0"/>
      <point x="148.0" y="534.4" type="curve"/>
      <point x="126.4" y="421.6" type="line"/>
      <point x="138.4" y="421.6" type="line"/>
      <point x="173.6" y="436.8"/>
      <point x="226.4" y="450.4"/>
      <point x="286.4" y="450.4" type="curve" smooth="yes"/>
      <point x="389.6" y="450.4"/>
      <point x="433.2" y="413.4"/>
      <point x="401.8" y="312.0" type="curve"/>
    </contour>
  </outline>
</glyph>
<glyph name="eth" format="2">
  <advance width="634.8"/>
  <unicode hex="00F0"/>
  <note>
eth
</note>
  <outline>
    <contour>
      <point x="266.4" y="-12.0" type="curve" smooth="yes"/>
      <point x="513.6" y="-12.0"/>
      <point x="614.0" y="229.6"/>
      <point x="614.0" y="441.6" type="curve" smooth="yes"/>
      <point x="614.0" y="628.0"/>
      <point x="508.8" y="732.0"/>
      <point x="330.4" y="732.0" type="curve" smooth="yes"/>
      <point x="277.6" y="732.0"/>
      <point x="233.6" y="723.6"/>
      <point x="192.8" y="711.2" type="curve"/>
      <point x="170.4" y="593.6" type="line"/>
      <point x="180.0" y="593.6" type="line"/>
      <point x="212.0" y="608.0"/>
      <point x="246.4" y="620.0"/>
      <point x="296.0" y="620.0" type="curve" smooth="yes"/>
      <point x="418.4" y="620.0"/>
      <point x="477.6" y="566.4"/>
      <point x="477.6" y="435.2" type="curve"/>
      <point x="477.6" y="304.0"/>
      <point x="422.4" y="98.4"/>
      <point x="280.0" y="98.4" type="curve" smooth="yes"/>
      <point x="204.8" y="98.4"/>
      <point x="173.6" y="136.8"/>
      <point x="173.6" y="198.4" type="curve" smooth="yes"/>
      <point x="173.6" y="292.8"/>
      <point x="234.4" y="362.4"/>
      <point x="333.6" y="362.4" type="curve" smooth="yes"/>
      <point x="408.0" y="362.4"/>
      <point x="460.0" y="327.2"/>
      <point x="480.0" y="276.8" type="curve"/>
      <point x="504.0" y="384.0" type="line"/>
      <point x="472.0" y="432.8"/>
      <point x="428.8" y="466.4"/>
      <point x="324.0" y="466.4" type="curve" smooth="yes"/>
      <point x="168.0" y="466.4"/>
      <point x="40.0" y="358.4"/>
      <point x="40.0" y="190.4" type="curve" smooth="yes"/>
      <point x="40.0" y="61.6"/>
      <point x="121.6" y="-12.0"/>
    </contour>
    <contour>
      <point x="352.0" y="512.8" type="line"/>
      <point x="595.2" y="728.8" type="line"/>
      <point x="545.6" y="783.2" type="line"/>
      <point x="302.4" y="567.2" type="line"/>
    </contour>
  </outline>
</glyph>
<glyph name="divide" format="2">
  <advance width="616.0"/>
  <unicode hex="00F7"/>
  <note>
divide
</note>
  <outline>
    <contour>
      <point x="312.8" y="421.6" type="curve" smooth="yes"/>
      <point x="349.6" y="421.6"/>
      <point x="377.6" y="445.2"/>
      <point x="377.6" y="486.4" type="curve" smooth="yes"/>
      <point x="377.6" y="526.2"/>
      <point x="349.6" y="551.2"/>
      <point x="312.8" y="551.2" type="curve" smooth="yes"/>
      <point x="276.0" y="551.2"/>
      <point x="248.0" y="526.2"/>
      <point x="248.0" y="486.4" type="curve" smooth="yes"/>
      <point x="248.0" y="445.2"/>
      <point x="276.0" y="421.6"/>
    </contour>
    <contour>
      <point x="248.0" y="148.8" type="curve" smooth="yes"/>
      <point x="248.0" y="107.6"/>
      <point x="276.0" y="84.0"/>
      <point x="312.8" y="84.0" type="curve" smooth="yes"/>
      <point x="349.6" y="84.0"/>
      <point x="377.6" y="107.6"/>
      <point x="377.6" y="148.8" type="curve" smooth="yes"/>
      <point x="377.6" y="188.6"/>
      <point x="349.6" y="213.6"/>
      <point x="312.8" y="213.6" type="curve" smooth="yes"/>
      <point x="276.0" y="213.6"/>
      <point x="248.0" y="188.6"/>
    </contour>
    <contour>
      <point x="68.8" y="365.6" type="line"/>
      <point x="68.8" y="266.4" type="line"/>
      <point x="556.8" y="266.4" type="line"/>
      <point x="556.8" y="365.6" type="line"/>
    </contour>
  </outline>
</glyph>
<glyph name="thorn" format="2">
  <advance width="644.4"/>
  <unicode hex="00FE"/>
  <note>
thorn
</note>
  <outline>
    <contour>
      <point x="-9.600000000000001" y="-232.0" type="line"/>
      <point x="130.4" y="-232.0" type="line"/>
      <point x="323.6" y="760.0" type="line"/>
      <point x="175.6" y="760.0" type="line"/>
      <point x="170.0" y="750.4" type="line"/>
      <point x="171.4" y="708.0"/>
      <point x="158.4" y="634.4"/>
      <point x="150.0" y="591.2" type="curve" smooth="yes"/>
    </contour>
    <contour>
      <point x="255.2" y="-12.0" type="curve" smooth="yes"/>
      <point x="464.8" y="-12.0"/>
      <point x="607.6" y="110.4"/>
      <point x="607.6" y="320.0" type="curve" smooth="yes"/>
      <point x="607.6" y="472.8"/>
      <point x="515.2" y="556.0"/>
      <point x="379.2" y="556.0" type="curve" smooth="yes"/>
      <point x="337.6" y="556.0"/>
      <point x="299.2" y="552.0"/>
      <point x="244.0" y="529.6" type="curve"/>
      <point x="214.4" y="427.2" type="line"/>
      <point x="240.8" y="427.2" type="line"/>
      <point x="268.0" y="440.8"/>
      <point x="300.0" y="447.2"/>
      <point x="334.4" y="447.2" type="curve" smooth="yes"/>
      <point x="418.4" y="447.2"/>
      <point x="464.8" y="404.0"/>
      <point x="464.8" y="312.0" type="curve" smooth="yes"/>
      <point x="464.8" y="179.2"/>
      <point x="390.4" y="95.2"/>
      <point x="273.6" y="95.2" type="curve" smooth="yes"/>
      <point x="234.4" y="95.2"/>
      <point x="200.8" y="100.0"/>
      <point x="180.0" y="116.0" type="curve"/>
      <point x="140.8" y="116.0" type="line"/>
      <point x="117.6" y="4.0" type="line"/>
      <point x="159.2" y="4.0" type="line"/>
      <point x="181.6" y="-4.800000000000001"/>
      <point x="217.6" y="-12.0"/>
    </contour>
  </outline>
</glyph>
<glyph name="idotless" format="2">
  <advance width="309.6"/>
  <unicode hex="0131"/>
  <note>
dotlessi
</note>
  <anchor x="102.2" y="0.0" name="bottom"/>
  <anchor x="172.8" y="0.0" name="ogonek"/>
  <anchor x="209.4" y="545.6" name="top"/>
  <outline>
    <contour>
      <point x="32.8" y="0.0" type="line"/>
      <point x="172.8" y="0.0" type="line"/>
      <point x="278.8" y="545.6" type="line"/>
      <point x="131.2" y="545.6" type="line"/>
      <point x="125.6" y="536.0" type="line"/>
      <point x="127.0" y="493.6"/>
      <point x="114.0" y="420.0"/>
      <point x="105.6" y="376.8" type="curve" smooth="yes"/>
    </contour>
  </outline>
</glyph>
<glyph name="kgreenlandic" format="2">
  <advance width="596.0"/>
  <unicode hex="0138"/>
  <note>
k
</note>
  <anchor x="245.0" y="0.0" name="bottom"/>
  <anchor x="392.6" y="760.0" name="top"/>
  <outline>
    <contour>
      <point x="478.0" y="545.6" type="line"/>
      <point x="203.2" y="285.6" type="line"/>
      <point x="369.2" y="0.0" type="line"/>
      <point x="525.2" y="0.0" type="line"/>
      <point x="525.2" y="12.0" type="line"/>
      <point x="504.0" y="37.6"/>
      <point x="481.8" y="71.8"/>
      <point x="462.4" y="103.2" type="curve" smooth="yes"/>
      <point x="324.8" y="328.0" type="line"/>
      <point x="314.4" y="247.8" type="line"/>
      <point x="533.6" y="448.8" type="line" smooth="yes"/>
      <point x="566.8" y="478.4"/>
      <point x="611.8" y="516.0"/>
      <point x="636.8" y="533.6" type="curve"/>
      <point x="636.8" y="545.6" type="line"/>
    </contour>
    <contour>
      <point x="172.8" y="0.0" type="line"/>
      <point x="304.0" y="675.2" type="line"/>
      <point x="156.0" y="675.2" type="line"/>
      <point x="150.4" y="665.6" type="line"/>
      <point x="151.8" y="623.2"/>
      <point x="138.8" y="549.6"/>
      <point x="130.4" y="506.4" type="curve" smooth="yes"/>
      <point x="32.8" y="0.0" type="line"/>
    </contour>
  </outline>
</glyph>
<glyph name="Eng" format="2">
  <advance width="755.2"/>
  <unicode hex="014A"/>
  <note>
Eng
</note>
  <outline>
    <contour>
      <point x="556.8" y="135.2" type="line"/>
      <point x="588.0" y="316.0" type="line"/>
      <point x="285.6" y="720.0" type="line"/>
      <point x="172.8" y="720.0" type="line"/>
      <point x="34.4" y="0.0" type="line"/>
      <point x="176.8" y="0.0" type="line"/>
      <point x="281.6" y="552.0" type="line"/>
      <point x="239.2" y="558.4" type="line"/>
    </contour>
    <contour>
      <point x="339.8" y="-240.0" type="curve" smooth="yes"/>
      <point x="490.2" y="-240.0"/>
      <point x="586.2" y="-171.4"/>
      <point x="617.8" y="-10.799999999999997" type="curve" smooth="yes"/>
      <point x="761.6" y="720.0" type="line"/>
      <point x="619.2" y="720.0" type="line"/>
      <point x="476.2" y="-6.0" type="line" smooth="yes"/>
      <point x="459.2" y="-91.8"/>
      <point x="411.0" y="-120.8"/>
      <point x="334.2" y="-120.8" type="curve" smooth="yes"/>
      <point x="301.4" y="-120.8"/>
      <point x="273.4" y="-113.6"/>
      <point x="257.4" y="-104.8" type="curve"/>
      <point x="247.8" y="-104.8" type="line"/>
      <point x="225.4" y="-224.0" type="line"/>
      <point x="250.2" y="-232.0"/>
      <point x="295.0" y="-240.0"/>
    </contour>
  </outline>
</glyph>
<glyph name="eng" format="2">
  <advance width="660.8"/>
  <unicode hex="014B"/>
  <note>
eng
</note>
  <anchor x="277.4" y="0.0" name="bottom"/>
  <anchor x="383.4" y="545.6" name="top"/>
  <outline>
    <contour>
      <point x="266.8" y="-240.0" type="curve" smooth="yes"/>
      <point x="412.4" y="-240.0"/>
      <point x="499.4" y="-158.4"/>
      <point x="523.6" y="-31.2" type="curve" smooth="yes"/>
      <point x="540.8" y="58.4" type="line"/>
      <point x="400.8" y="58.4" type="line"/>
      <point x="383.6" y="-31.2" type="line" smooth="yes"/>
      <point x="372.0" y="-92.0"/>
      <point x="339.2" y="-126.4"/>
      <point x="271.6" y="-126.4" type="curve" smooth="yes"/>
      <point x="246.0" y="-126.4"/>
      <point x="228.0" y="-122.4"/>
      <point x="206.8" y="-114.4" type="curve"/>
      <point x="197.2" y="-114.4" type="line"/>
      <point x="174.8" y="-228.0" type="line"/>
      <point x="193.6" y="-234.8"/>
      <point x="227.6" y="-240.0"/>
    </contour>
    <component base="n"/>
  </outline>
</glyph>
<glyph name="OE" format="2">
  <advance width="1088.0"/>
  <unicode hex="0152"/>
  <note>
OE
</note>
  <anchor x="486.0" y="0.0" name="bottom"/>
  <anchor x="639.0" y="720.0" name="top"/>
  <outline>
    <contour>
      <point x="375.2" y="-12.0" type="curve" smooth="yes"/>
      <point x="640.8" y="-12.0"/>
      <point x="783.2" y="208.8"/>
      <point x="783.2" y="428.0" type="curve" smooth="yes"/>
      <point x="783.2" y="612.8"/>
      <point x="667.2" y="732.0"/>
      <point x="468.0" y="732.0" type="curve" smooth="yes"/>
      <point x="204.8" y="732.0"/>
      <point x="60.0" y="508.0"/>
      <point x="60.0" y="292.0" type="curve" smooth="yes"/>
      <point x="60.0" y="104.0"/>
      <point x="176.0" y="-12.0"/>
    </contour>
    <contour>
      <point x="382.4" y="111.2" type="curve" smooth="yes"/>
      <point x="276.8" y="111.2"/>
      <point x="206.4" y="171.2"/>
      <point x="206.4" y="296.8" type="curve" smooth="yes"/>
      <point x="206.4" y="436.0"/>
      <point x="287.2" y="608.8"/>
      <point x="460.8" y="608.8" type="curve" smooth="yes"/>
      <point x="566.4" y="608.8"/>
      <point x="636.8" y="548.8"/>
      <point x="636.8" y="423.2" type="curve" smooth="yes"/>
      <point x="636.8" y="284.0"/>
      <point x="556.0" y="111.2"/>
    </contour>
    <contour>
      <point x="461.6" y="0.0" type="line"/>
      <point x="984.4" y="0.0" type="line"/>
      <point x="1007.6" y="124.0" type="line"/>
      <point x="485.6" y="124.0" type="line"/>
    </contour>
    <contour>
      <point x="694.4" y="308.8" type="line"/>
      <point x="982.8" y="308.8" type="line"/>
      <point x="1005.2" y="428.0" type="line"/>
      <point x="716.8" y="428.0" type="line"/>
    </contour>
    <contour>
      <point x="587.2" y="596.0" type="line"/>
      <point x="1090.8" y="596.0" type="line"/>
      <point x="1114.0" y="720.0" type="line"/>
      <point x="528.0" y="720.0" type="line"/>
    </contour>
  </outline>
</glyph>
<glyph name="oe" format="2">
  <advance width="1005.4"/>
  <unicode hex="0153"/>
  <outline>
    <contour>
      <point x="281.6" y="-9.6" type="curve" smooth="yes"/>
      <point x="483.2" y="-9.6"/>
      <point x="583.2" y="160.0"/>
      <point x="583.2" y="335.2" type="curve" smooth="yes"/>
      <point x="583.2" y="476.8"/>
      <point x="500.0" y="559.2"/>
      <point x="357.6" y="559.2" type="curve" smooth="yes"/>
      <point x="148.0" y="559.2"/>
      <point x="44.8" y="389.6"/>
      <point x="44.8" y="214.4" type="curve" smooth="yes"/>
      <point x="44.8" y="72.8"/>
      <point x="131.2" y="-9.6"/>
    </contour>
    <contour>
      <point x="289.6" y="97.6" type="curve" smooth="yes"/>
      <point x="225.6" y="97.6"/>
      <point x="187.6" y="135.2"/>
      <point x="187.6" y="209.6" type="curve" smooth="yes"/>
      <point x="187.6" y="312.8"/>
      <point x="233.6" y="452.0"/>
      <point x="349.6" y="452.0" type="curve" smooth="yes"/>
      <point x="413.6" y="452.0"/>
      <point x="451.6" y="414.4"/>
      <point x="451.6" y="340.0" type="curve" smooth="yes"/>
      <point x="451.6" y="236.8"/>
      <point x="405.6" y="97.6"/>
    </contour>
    <contour>
      <point x="716.0" y="-9.6" type="curve" smooth="yes"/>
      <point x="778.4" y="-9.6"/>
      <point x="835.2" y="0.7999999999999998"/>
      <point x="873.6" y="16.8" type="curve"/>
      <point x="896.0" y="131.2" type="line"/>
      <point x="886.4" y="131.2" type="line"/>
      <point x="855.0" y="115.2"/>
      <point x="796.8" y="100.8"/>
      <point x="735.2" y="100.8" type="curve" smooth="yes"/>
      <point x="637.6" y="100.8"/>
      <point x="577.2" y="140.8"/>
      <point x="577.2" y="232.8" type="curve" smooth="yes"/>
      <point x="577.2" y="249.6" type="line" smooth="yes"/>
      <point x="577.2" y="358.4"/>
      <point x="639.2" y="455.2"/>
      <point x="740.0" y="455.2" type="curve" smooth="yes"/>
      <point x="810.4" y="455.2"/>
      <point x="840.4" y="419.2"/>
      <point x="840.4" y="361.6" type="curve" smooth="yes"/>
      <point x="840.4" y="350.8"/>
      <point x="838.4" y="336.0"/>
      <point x="835.2" y="322.4" type="curve"/>
      <point x="527.2" y="322.4" type="line"/>
      <point x="527.2" y="232.0" type="line"/>
      <point x="953.6" y="232.0" type="line"/>
      <point x="964.4" y="271.2"/>
      <point x="973.6" y="316.8"/>
      <point x="973.6" y="359.2" type="curve" smooth="yes"/>
      <point x="973.6" y="477.6"/>
      <point x="901.6" y="559.2"/>
      <point x="745.6" y="559.2" type="curve" smooth="yes"/>
      <point x="565.8" y="559.2"/>
      <point x="446.4" y="416.0"/>
      <point x="446.4" y="221.6" type="curve" smooth="yes"/>
      <point x="446.4" y="66.4"/>
      <point x="551.4" y="-9.6"/>
    </contour>
  </outline>
</glyph>
<glyph name="Tbar" format="2">
  <advance width="612.8"/>
  <unicode hex="0166"/>
  <note>
Tbar
</note>
  <anchor x="258.8" y="0.0" name="bottom"/>
  <anchor x="323.4" y="360.0" name="center"/>
  <anchor x="393.4" y="720.0" name="top"/>
  <outline>
    <contour>
      <point x="96.6" y="298.4" type="line"/>
      <point x="535.0" y="298.4" type="line"/>
      <point x="555.2" y="400.8" type="line"/>
      <point x="116.8" y="400.8" type="line"/>
    </contour>
    <component base="T"/>
  </outline>
</glyph>
<glyph name="tbar" format="2">
  <advance width="442.4"/>
  <unicode hex="0167"/>
  <note>
tbar
</note>
  <anchor x="184.4" y="0.0" name="bottom"/>
  <anchor x="209.2" y="277.6" name="center"/>
  <anchor x="257.2" y="687.2" name="top"/>
  <anchor x="442.8" y="587.2" name="topright"/>
  <outline>
    <contour>
      <point x="407.6" y="319.2" type="line"/>
      <point x="30.8" y="319.2" type="line"/>
      <point x="14.399999999999999" y="238.4" type="line"/>
      <point x="391.2" y="238.4" type="line"/>
    </contour>
    <component base="t"/>
  </outline>
</glyph>
<glyph name="longs" format="2">
  <advance width="341.6"/>
  <unicode hex="017F"/>
  <note>
longs
</note>
  <outline>
    <contour>
      <point x="52.0" y="0.0" type="line"/>
      <point x="192.0" y="0.0" type="line"/>
      <point x="298.4" y="548.0" type="line" smooth="yes"/>
      <point x="312.8" y="622.4"/>
      <point x="348.0" y="657.6"/>
      <point x="415.2" y="657.6" type="curve" smooth="yes"/>
      <point x="445.6" y="657.6"/>
      <point x="463.2" y="652.8"/>
      <point x="480.0" y="645.6" type="curve"/>
      <point x="489.6" y="645.6" type="line"/>
      <point x="511.2" y="754.4" type="line"/>
      <point x="491.2" y="761.6"/>
      <point x="455.2" y="766.4"/>
      <point x="420.0" y="766.4" type="curve" smooth="yes"/>
      <point x="276.8" y="766.4"/>
      <point x="187.2" y="702.4"/>
      <point x="156.0" y="538.4" type="curve"/>
    </contour>
    <contour>
      <point x="48.8" y="433.6" type="line"/>
      <point x="168.0" y="433.6" type="line"/>
      <point x="190.4" y="545.6" type="line"/>
      <point x="71.2" y="545.6" type="line"/>
    </contour>
  </outline>
</glyph>
<glyph name="Schwa" format="2">
  <advance width="730.0"/>
  <unicode hex="018F"/>
  <outline>
    <contour>
      <point x="384.0" y="732.0" type="curve" smooth="yes"/>
      <point x="308.0" y="732.0"/>
      <point x="226.4" y="717.6"/>
      <point x="175.2" y="699.2" type="curve"/>
      <point x="150.0" y="569.2" type="line"/>
      <point x="163.0" y="569.2" type="line"/>
      <point x="204.2" y="589.8"/>
      <point x="286.4" y="608.8"/>
      <point x="359.2" y="608.8" type="curve" smooth="yes"/>
      <point x="483.6" y="608.8"/>
      <point x="564.8" y="561.6"/>
      <point x="564.8" y="426.4" type="curve" smooth="yes"/>
      <point x="564.8" y="274.8"/>
      <point x="487.2" y="111.2"/>
      <point x="329.6" y="111.2" type="curve" smooth="yes"/>
      <point x="232.0" y="111.2"/>
      <point x="188.4" y="155.2"/>
      <point x="188.4" y="234.0" type="curve" smooth="yes"/>
      <point x="188.4" y="254.8"/>
      <point x="192.4" y="283.2"/>
      <point x="198.8" y="302.4" type="curve"/>
      <point x="574.4" y="302.4" type="line"/>
      <point x="596.2" y="412.8" type="line"/>
      <point x="77.6" y="412.8" type="line"/>
      <point x="60.0" y="363.2"/>
      <point x="48.0" y="290.4"/>
      <point x="48.0" y="236.8" type="curve" smooth="yes"/>
      <point x="48.0" y="87.0"/>
      <point x="121.8" y="-12.0"/>
      <point x="316.0" y="-12.0" type="curve" smooth="yes"/>
      <point x="568.0" y="-12.0"/>
      <point x="709.6" y="209.6"/>
      <point x="709.6" y="428.8" type="curve" smooth="yes"/>
      <point x="709.6" y="640.4"/>
      <point x="586.8" y="732.0"/>
    </contour>
  </outline>
</glyph>
<glyph name="florin" format="2">
  <advance width="616.0"/>
  <unicode hex="0192"/>
  <note>
florin
</note>
  <outline>
    <contour>
      <point x="16.0" y="-140.8" type="curve" smooth="yes"/>
      <point x="-12.8" y="-140.8"/>
      <point x="-36.4" y="-135.6"/>
      <point x="-56.0" y="-126.4" type="curve"/>
      <point x="-65.6" y="-126.4" type="line"/>
      <point x="-86.4" y="-233.2" type="line"/>
      <point x="-63.6" y="-241.2"/>
      <point x="-28.0" y="-248.0"/>
      <point x="17.6" y="-248.0" type="curve" smooth="yes"/>
      <point x="192.8" y="-248.0"/>
      <point x="281.2" y="-142.4"/>
      <point x="309.6" y="7.200000000000001" type="curve" smooth="yes"/>
      <point x="399.2" y="473.6" type="line" smooth="yes"/>
      <point x="416.2" y="561.6"/>
      <point x="453.6" y="624.8"/>
      <point x="556.0" y="624.8" type="curve" smooth="yes"/>
      <point x="584.8" y="624.8"/>
      <point x="608.4" y="619.6"/>
      <point x="628.0" y="610.4" type="curve"/>
      <point x="637.6" y="610.4" type="line"/>
      <point x="658.4" y="717.2" type="line"/>
      <point x="635.6" y="725.2"/>
      <point x="600.0" y="732.0"/>
      <point x="554.4" y="732.0" type="curve" smooth="yes"/>
      <point x="384.0" y="732.0"/>
      <point x="290.8" y="626.4"/>
      <point x="262.4" y="476.8" type="curve" smooth="yes"/>
      <point x="172.8" y="10.4" type="line" smooth="yes"/>
      <point x="155.8" y="-77.6"/>
      <point x="118.4" y="-140.8"/>
    </contour>
    <contour>
      <point x="86.4" y="292.8" type="line"/>
      <point x="517.2" y="292.8" type="line"/>
      <point x="538.0" y="401.6" type="line"/>
      <point x="107.2" y="401.6" type="line"/>
    </contour>
  </outline>
</glyph>
<glyph name="jdotless" format="2">
  <advance width="309.6"/>
  <unicode hex="0237"/>
  <note>
dotlessj
</note>
  <anchor x="51.2" y="-240.0" name="bottom"/>
  <anchor x="209.8" y="545.6" name="top"/>
  <outline>
    <contour>
      <point x="-179.2" y="-228.0" type="line"/>
      <point x="-160.4" y="-234.8"/>
      <point x="-126.4" y="-240.0"/>
      <point x="-87.2" y="-240.0" type="curve" smooth="yes"/>
      <point x="60.0" y="-240.0"/>
      <point x="144.4" y="-160.8"/>
      <point x="170.4" y="-26.4" type="curve" smooth="yes"/>
      <point x="281.6" y="545.6" type="line"/>
      <point x="134.0" y="545.6" type="line"/>
      <point x="128.4" y="536.0" type="line"/>
      <point x="129.8" y="493.6"/>
      <point x="116.8" y="420.0"/>
      <point x="108.4" y="376.8" type="curve" smooth="yes"/>
      <point x="29.6" y="-31.2" type="line" smooth="yes"/>
      <point x="17.2" y="-96.0"/>
      <point x="-16.8" y="-126.4"/>
      <point x="-82.4" y="-126.4" type="curve" smooth="yes"/>
      <point x="-108.0" y="-126.4"/>
      <point x="-126.0" y="-122.4"/>
      <point x="-147.2" y="-114.4" type="curve"/>
      <point x="-156.8" y="-114.4" type="line"/>
    </contour>
  </outline>
</glyph>
<glyph name="schwa" format="2">
  <advance width="619.2"/>
  <unicode hex="0259"/>
  <outline>
    <contour>
      <point x="303.2" y="559.2" type="curve" smooth="yes"/>
      <point x="240.8" y="559.2"/>
      <point x="184.0" y="548.8"/>
      <point x="145.6" y="532.8" type="curve"/>
      <point x="123.2" y="418.4" type="line"/>
      <point x="132.8" y="418.4" type="line"/>
      <point x="164.2" y="434.4"/>
      <point x="222.4" y="448.8"/>
      <point x="284.0" y="448.8" type="curve" smooth="yes"/>
      <point x="381.6" y="448.8"/>
      <point x="442.0" y="408.8"/>
      <point x="442.0" y="316.8" type="curve" smooth="yes"/>
      <point x="442.0" y="300.0" type="line" smooth="yes"/>
      <point x="442.0" y="191.2"/>
      <point x="380.0" y="94.4"/>
      <point x="279.2" y="94.4" type="curve" smooth="yes"/>
      <point x="208.8" y="94.4"/>
      <point x="178.8" y="130.4"/>
      <point x="178.8" y="188.0" type="curve" smooth="yes"/>
      <point x="178.8" y="198.8"/>
      <point x="180.8" y="213.6"/>
      <point x="184.0" y="227.2" type="curve"/>
      <point x="492.0" y="227.2" type="line"/>
      <point x="492.0" y="317.6" type="line"/>
      <point x="65.6" y="317.6" type="line"/>
      <point x="54.8" y="278.4"/>
      <point x="45.6" y="232.8"/>
      <point x="45.6" y="190.4" type="curve" smooth="yes"/>
      <point x="45.6" y="72.0"/>
      <point x="117.6" y="-9.6"/>
      <point x="273.6" y="-9.6" type="curve" smooth="yes"/>
      <point x="458.4" y="-9.6"/>
      <point x="581.6" y="138.4"/>
      <point x="581.6" y="323.2" type="curve" smooth="yes"/>
      <point x="581.6" y="483.2"/>
      <point x="472.8" y="559.2"/>
    </contour>
  </outline>
</glyph>
<glyph name="apostrophemod" format="2">
  <advance width="223.2"/>
  <unicode hex="02BC"/>
  <outline>
    <contour>
      <point x="176.6" y="693.6" type="curve"/>
      <point x="115.0" y="610.8" type="line"/>
      <point x="115.0" y="605.6" type="line"/>
      <point x="188.6" y="605.6" type="line"/>
      <point x="236.6" y="670.4" type="line" smooth="yes"/>
      <point x="250.2" y="688.6"/>
      <point x="274.2" y="718.4"/>
      <point x="274.2" y="752.0" type="curve" smooth="yes"/>
      <point x="274.2" y="782.4"/>
      <point x="252.0" y="804.0"/>
      <point x="220.6" y="804.0" type="curve" smooth="yes"/>
      <point x="181.6" y="804.0"/>
      <point x="149.4" y="778.6"/>
      <point x="149.4" y="736.0" type="curve" smooth="yes"/>
      <point x="149.4" y="713.6"/>
      <point x="164.0" y="699.2"/>
    </contour>
  </outline>
</glyph>
<glyph name="ringhalfright" format="2">
  <advance width="203.2"/>
  <unicode hex="02BE"/>
  <note>
uni02BE
</note>
  <outline>
    <contour>
      <point x="76.6" y="507.2" type="curve"/>
      <point x="63.4" y="439.2" type="line"/>
      <point x="145.8" y="439.2"/>
      <point x="246.2" y="472.6"/>
      <point x="246.2" y="605.4" type="curve" smooth="yes"/>
      <point x="246.2" y="684.4"/>
      <point x="187.4" y="720.0"/>
      <point x="118.2" y="720.0" type="curve"/>
      <point x="104.6" y="652.0" type="line"/>
      <point x="144.6" y="649.6"/>
      <point x="169.6" y="636.6"/>
      <point x="169.6" y="600.6" type="curve" smooth="yes"/>
      <point x="169.6" y="531.8"/>
      <point x="127.8" y="509.6"/>
    </contour>
  </outline>
</glyph>
<glyph name="ringhalfleft" format="2">
  <advance width="203.2"/>
  <unicode hex="02BF"/>
  <note>
uni02BF
</note>
  <outline>
    <contour>
      <point x="209.0" y="439.2" type="curve"/>
      <point x="222.2" y="507.2" type="line"/>
      <point x="181.6" y="509.0"/>
      <point x="157.2" y="522.6"/>
      <point x="157.2" y="558.8" type="curve" smooth="yes"/>
      <point x="157.2" y="626.8"/>
      <point x="199.6" y="649.6"/>
      <point x="250.2" y="652.0" type="curve"/>
      <point x="263.8" y="720.0" type="line"/>
      <point x="181.0" y="720.0"/>
      <point x="80.4" y="686.6"/>
      <point x="80.4" y="553.8" type="curve" smooth="yes"/>
      <point x="80.4" y="474.8"/>
      <point x="139.8" y="439.2"/>
    </contour>
  </outline>
</glyph>
<glyph name="verticallinemod" format="2">
  <advance width="204.0"/>
  <unicode hex="02C8"/>
  <outline>
    <contour>
      <point x="94.0" y="476.0" type="line"/>
      <point x="197.2" y="476.0" type="line"/>
      <point x="258.4" y="760.0" type="line"/>
      <point x="144.0" y="760.0" type="line"/>
    </contour>
  </outline>
</glyph>
<glyph name="firsttonechinese" format="2">
  <advance width="636.0"/>
  <unicode hex="02C9"/>
  <note>
uni02C9
</note>
  <outline>
    <contour>
      <point x="245.6" y="720.0" type="line"/>
      <point x="228.0" y="632.8" type="line"/>
      <point x="558.4" y="632.8" type="line"/>
      <point x="576.0" y="720.0" type="line"/>
    </contour>
  </outline>
</glyph>
<glyph name="gravecomb" format="2">
  <unicode hex="0300"/>
  <note>
grave
</note>
  <anchor x="371.0" y="545.6" name="_top"/>
  <anchor x="412.6" y="760.0" name="top"/>
  <outline>
    <contour>
      <point x="336.0" y="604.0" type="line"/>
      <point x="432.0" y="604.0" type="line"/>
      <point x="432.0" y="608.0" type="line"/>
      <point x="375.2" y="760.0" type="line"/>
      <point x="239.2" y="760.0" type="line"/>
      <point x="239.2" y="756.0" type="line"/>
    </contour>
  </outline>
</glyph>
<glyph name="acutecomb" format="2">
  <unicode hex="0301"/>
  <note>
acute
</note>
  <anchor x="410.6" y="545.6" name="_top"/>
  <anchor x="456.2" y="760.0" name="top"/>
  <outline>
    <contour>
      <point x="309.6" y="604.0" type="line"/>
      <point x="413.6" y="604.0" type="line"/>
      <point x="568.8" y="756.0" type="line"/>
      <point x="568.8" y="760.0" type="line"/>
      <point x="426.4" y="760.0" type="line"/>
      <point x="309.6" y="608.0" type="line"/>
    </contour>
  </outline>
</glyph>
<glyph name="circumflexcomb" format="2">
  <unicode hex="0302"/>
  <note>
circumflex
</note>
  <anchor x="371.0" y="545.6" name="_top"/>
  <anchor x="412.6" y="760.0" name="top"/>
  <outline>
    <contour>
      <point x="207.0" y="604.0" type="line"/>
      <point x="302.2" y="604.0" type="line"/>
      <point x="399.8" y="688.0" type="line"/>
      <point x="460.6" y="604.0" type="line"/>
      <point x="542.2" y="604.0" type="line"/>
      <point x="542.2" y="608.0" type="line"/>
      <point x="469.6" y="760.0" type="line"/>
      <point x="345.6" y="760.0" type="line"/>
      <point x="207.0" y="608.0" type="line"/>
    </contour>
  </outline>
</glyph>
<glyph name="tildecomb" format="2">
  <unicode hex="0303"/>
  <note>
tilde
</note>
  <anchor x="371.0" y="545.6" name="_top"/>
  <anchor x="412.6" y="760.0" name="top"/>
  <outline>
    <contour>
      <point x="205.2" y="622.0" type="curve"/>
      <point x="279.6" y="622.0" type="line"/>
      <point x="285.2" y="659.6"/>
      <point x="298.0" y="690.0"/>
      <point x="332.4" y="690.0" type="curve" smooth="yes"/>
      <point x="353.6" y="690.0"/>
      <point x="369.0" y="676.4"/>
      <point x="383.6" y="660.4" type="curve" smooth="yes"/>
      <point x="402.2" y="640.2"/>
      <point x="428.4" y="622.0"/>
      <point x="468.4" y="622.0" type="curve" smooth="yes"/>
      <point x="543.6" y="622.0"/>
      <point x="588.4" y="687.6"/>
      <point x="598.0" y="764.4" type="curve"/>
      <point x="523.6" y="764.4" type="line"/>
      <point x="518.0" y="726.8"/>
      <point x="505.2" y="696.4"/>
      <point x="470.8" y="696.4" type="curve" smooth="yes"/>
      <point x="449.6" y="696.4"/>
      <point x="434.6" y="708.8"/>
      <point x="419.6" y="724.4" type="curve" smooth="yes"/>
      <point x="401.4" y="743.4"/>
      <point x="374.8" y="764.4"/>
      <point x="334.8" y="764.4" type="curve" smooth="yes"/>
      <point x="259.6" y="764.4"/>
      <point x="214.8" y="698.8"/>
    </contour>
  </outline>
</glyph>
<glyph name="macroncomb" format="2">
  <unicode hex="0304"/>
  <note>
macron
</note>
  <anchor x="374.2" y="545.6" name="_top"/>
  <anchor x="411.2" y="720.0" name="top"/>
  <outline>
    <contour>
      <point x="245.6" y="720.0" type="line"/>
      <point x="228.0" y="632.8" type="line"/>
      <point x="558.4" y="632.8" type="line"/>
      <point x="576.0" y="720.0" type="line"/>
    </contour>
  </outline>
</glyph>
<glyph name="brevecomb" format="2">
  <unicode hex="0306"/>
  <note>
breve
</note>
  <anchor x="384.2" y="545.6" name="_top"/>
  <anchor x="429.8" y="760.0" name="top"/>
  <outline>
    <contour>
      <point x="396.8" y="612.0" type="curve" smooth="yes"/>
      <point x="496.8" y="612.0"/>
      <point x="547.2" y="680.0"/>
      <point x="558.8" y="760.0" type="curve"/>
      <point x="488.4" y="760.0" type="line"/>
      <point x="478.4" y="712.0"/>
      <point x="456.8" y="683.2"/>
      <point x="402.4" y="683.2" type="curve" smooth="yes"/>
      <point x="352.0" y="683.2"/>
      <point x="336.8" y="712.0"/>
      <point x="343.6" y="760.0" type="curve"/>
      <point x="273.2" y="760.0" type="line"/>
      <point x="256.0" y="680.8"/>
      <point x="299.2" y="612.0"/>
    </contour>
  </outline>
</glyph>
<glyph name="dotaccentcomb" format="2">
  <unicode hex="0307"/>
  <note>
dotaccent
</note>
  <anchor x="372.0" y="545.6" name="_top"/>
  <anchor x="415.8" y="750.4" name="top"/>
  <outline>
    <contour>
      <point x="392.8" y="617.6" type="curve" smooth="yes"/>
      <point x="434.0" y="617.6"/>
      <point x="468.8" y="650.4"/>
      <point x="468.8" y="696.0" type="curve" smooth="yes"/>
      <point x="468.8" y="728.8"/>
      <point x="448.0" y="750.4"/>
      <point x="410.4" y="750.4" type="curve" smooth="yes"/>
      <point x="369.2" y="750.4"/>
      <point x="334.4" y="717.6"/>
      <point x="334.4" y="672.0" type="curve" smooth="yes"/>
      <point x="334.4" y="639.2"/>
      <point x="355.2" y="617.6"/>
    </contour>
  </outline>
</glyph>
<glyph name="dieresiscomb" format="2">
  <unicode hex="0308"/>
  <note>
dieresis
</note>
  <anchor x="374.0" y="545.6" name="_top"/>
  <anchor x="417.4" y="748.8" name="top"/>
  <outline>
    <contour>
      <point x="492.8" y="619.2" type="curve" smooth="yes"/>
      <point x="534.0" y="619.2"/>
      <point x="567.2" y="652.0"/>
      <point x="567.2" y="696.0" type="curve" smooth="yes"/>
      <point x="567.2" y="727.2"/>
      <point x="548.0" y="748.8"/>
      <point x="510.4" y="748.8" type="curve" smooth="yes"/>
      <point x="469.2" y="748.8"/>
      <point x="436.0" y="716.0"/>
      <point x="436.0" y="672.0" type="curve" smooth="yes"/>
      <point x="436.0" y="640.8"/>
      <point x="455.2" y="619.2"/>
    </contour>
    <contour>
      <point x="296.8" y="619.2" type="curve" smooth="yes"/>
      <point x="338.0" y="619.2"/>
      <point x="371.2" y="652.0"/>
      <point x="371.2" y="696.0" type="curve" smooth="yes"/>
      <point x="371.2" y="727.2"/>
      <point x="352.0" y="748.8"/>
      <point x="314.4" y="748.8" type="curve" smooth="yes"/>
      <point x="273.2" y="748.8"/>
      <point x="240.0" y="716.0"/>
      <point x="240.0" y="672.0" type="curve" smooth="yes"/>
      <point x="240.0" y="640.8"/>
      <point x="259.2" y="619.2"/>
    </contour>
  </outline>
</glyph>
<glyph name="hookabovecomb" format="2">
  <unicode hex="0309"/>
  <anchor x="353.8" y="545.6" name="_top"/>
  <anchor x="407.4" y="822.6" name="top"/>
  <outline>
    <contour>
      <point x="330.4" y="639.0" type="curve"/>
      <point x="383.2" y="617.8" type="line"/>
      <point x="413.8" y="661.4"/>
      <point x="478.0" y="685.6"/>
      <point x="484.6" y="744.4" type="curve" smooth="yes"/>
      <point x="490.0" y="788.2"/>
      <point x="461.4" y="822.6"/>
      <point x="408.4" y="822.6" type="curve" smooth="yes"/>
      <point x="360.2" y="822.6"/>
      <point x="321.0" y="794.6"/>
      <point x="290.0" y="753.0" type="curve"/>
      <point x="325.6" y="725.2" type="line"/>
      <point x="340.2" y="742.4"/>
      <point x="359.2" y="760.2"/>
      <point x="382.0" y="760.2" type="curve" smooth="yes"/>
      <point x="397.2" y="760.2"/>
      <point x="408.0" y="748.0"/>
      <point x="406.2" y="731.2" type="curve" smooth="yes"/>
      <point x="402.2" y="693.2"/>
      <point x="351.8" y="680.0"/>
    </contour>
  </outline>
</glyph>
<glyph name="ringcomb" format="2">
  <unicode hex="030A"/>
  <note>
ring
</note>
  <anchor x="371.0" y="545.6" name="_top"/>
  <anchor x="427.6" y="836.0" name="top"/>
  <outline>
    <contour>
      <point x="396.0" y="603.2" type="curve" smooth="yes"/>
      <point x="465.6" y="603.2"/>
      <point x="529.6" y="653.6"/>
      <point x="529.6" y="735.2" type="curve" smooth="yes"/>
      <point x="529.6" y="799.2"/>
      <point x="485.6" y="836.8"/>
      <point x="417.6" y="836.8" type="curve" smooth="yes"/>
      <point x="348.0" y="836.8"/>
      <point x="284.0" y="786.4"/>
      <point x="284.0" y="704.8" type="curve" smooth="yes"/>
      <point x="284.0" y="640.8"/>
      <point x="328.0" y="603.2"/>
    </contour>
    <contour>
      <point x="397.6" y="656.8" type="curve" smooth="yes"/>
      <point x="366.6" y="656.8"/>
      <point x="343.6" y="673.0"/>
      <point x="343.6" y="708.8" type="curve" smooth="yes"/>
      <point x="343.6" y="752.6"/>
      <point x="376.4" y="783.2"/>
      <point x="416.0" y="783.2" type="curve" smooth="yes"/>
      <point x="447.0" y="783.2"/>
      <point x="470.0" y="767.0"/>
      <point x="470.0" y="731.2" type="curve" smooth="yes"/>
      <point x="470.0" y="687.4"/>
      <point x="437.2" y="656.8"/>
    </contour>
  </outline>
</glyph>
<glyph name="hungarumlautcomb" format="2">
  <unicode hex="030B"/>
  <note>
hungarumlaut
</note>
  <anchor x="417.0" y="545.6" name="_top"/>
  <anchor x="462.6" y="760.0" name="top"/>
  <outline>
    <contour>
      <point x="416.0" y="604.0" type="line"/>
      <point x="508.8" y="604.0" type="line"/>
      <point x="664.0" y="756.0" type="line"/>
      <point x="664.0" y="760.0" type="line"/>
      <point x="535.2" y="760.0" type="line"/>
      <point x="416.0" y="608.0" type="line"/>
    </contour>
    <contour>
      <point x="227.2" y="604.0" type="line"/>
      <point x="320.0" y="604.0" type="line"/>
      <point x="475.2" y="756.0" type="line"/>
      <point x="475.2" y="760.0" type="line"/>
      <point x="346.4" y="760.0" type="line"/>
      <point x="227.2" y="608.0" type="line"/>
    </contour>
  </outline>
</glyph>
<glyph name="caroncomb" format="2">
  <unicode hex="030C"/>
  <note>
caron
</note>
  <anchor x="371.0" y="545.6" name="_top"/>
  <anchor x="412.6" y="760.0" name="top"/>
  <outline>
    <contour>
      <point x="321.8" y="604.0" type="line"/>
      <point x="445.8" y="604.0" type="line"/>
      <point x="584.4" y="756.0" type="line"/>
      <point x="584.4" y="760.0" type="line"/>
      <point x="489.2" y="760.0" type="line"/>
      <point x="390.6" y="675.0" type="line"/>
      <point x="330.8" y="760.0" type="line"/>
      <point x="249.2" y="760.0" type="line"/>
      <point x="249.2" y="756.0" type="line"/>
    </contour>
  </outline>
</glyph>
<glyph name="dblgravecomb" format="2">
  <unicode hex="030F"/>
  <anchor x="370.6" y="545.6" name="_top"/>
  <anchor x="412.2" y="760.0" name="top"/>
  <outline>
    <contour>
      <point x="248.0" y="604.0" type="line"/>
      <point x="344.0" y="604.0" type="line"/>
      <point x="344.0" y="608.0" type="line"/>
      <point x="287.2" y="760.0" type="line"/>
      <point x="151.2" y="760.0" type="line"/>
      <point x="151.2" y="756.0" type="line"/>
    </contour>
    <contour>
      <point x="438.8" y="604.0" type="line"/>
      <point x="534.8" y="604.0" type="line"/>
      <point x="534.8" y="608.0" type="line"/>
      <point x="478.0" y="760.0" type="line"/>
      <point x="342.0" y="760.0" type="line"/>
      <point x="342.0" y="756.0" type="line"/>
    </contour>
  </outline>
</glyph>
<glyph name="breveinvertedcomb" format="2">
  <unicode hex="0311"/>
  <anchor x="341.0" y="545.6" name="_top"/>
  <anchor x="382.6" y="760.0" name="top"/>
  <outline>
    <contour>
      <point x="379.0" y="760.0" type="curve" smooth="yes"/>
      <point x="279.0" y="760.0"/>
      <point x="228.6" y="692.0"/>
      <point x="217.0" y="612.0" type="curve"/>
      <point x="287.4" y="612.0" type="line"/>
      <point x="297.4" y="660.0"/>
      <point x="319.0" y="688.8"/>
      <point x="373.4" y="688.8" type="curve" smooth="yes"/>
      <point x="423.8" y="688.8"/>
      <point x="439.0" y="660.0"/>
      <point x="432.2" y="612.0" type="curve"/>
      <point x="502.6" y="612.0" type="line"/>
      <point x="519.8" y="691.2"/>
      <point x="476.6" y="760.0"/>
    </contour>
  </outline>
</glyph>
<glyph name="commaturnedabovecomb" format="2">
  <unicode hex="0312"/>
  <anchor x="358.2" y="545.6" name="_top"/>
  <anchor x="408.6" y="804.0" name="top"/>
  <outline>
    <contour>
      <point x="407.4" y="716.0" type="curve"/>
      <point x="469.0" y="798.8" type="line"/>
      <point x="469.0" y="804.0" type="line"/>
      <point x="395.4" y="804.0" type="line"/>
      <point x="347.4" y="739.2" type="line" smooth="yes"/>
      <point x="333.8" y="721.0"/>
      <point x="309.8" y="691.2"/>
      <point x="309.8" y="657.6" type="curve" smooth="yes"/>
      <point x="309.8" y="627.2"/>
      <point x="332.0" y="605.6"/>
      <point x="363.4" y="605.6" type="curve" smooth="yes"/>
      <point x="402.4" y="605.6"/>
      <point x="434.6" y="631.0"/>
      <point x="434.6" y="673.6" type="curve" smooth="yes"/>
      <point x="434.6" y="696.0"/>
      <point x="420.0" y="710.4"/>
    </contour>
  </outline>
</glyph>
<glyph name="horncomb" format="2">
  <unicode hex="031B"/>
  <anchor x="254.4" y="545.6" name="_topright"/>
  <outline>
    <contour>
      <point x="246.4" y="457.2" type="line"/>
      <point x="367.6" y="457.2"/>
      <point x="414.8" y="537.6"/>
      <point x="425.8" y="617.6" type="curve"/>
      <point x="337.4" y="617.6" type="line"/>
      <point x="330.4" y="569.6"/>
      <point x="306.4" y="545.6"/>
      <point x="254.4" y="545.6" type="curve"/>
    </contour>
  </outline>
</glyph>
<glyph name="dieresisbelowcomb" format="2">
  <unicode hex="0324"/>
  <anchor x="264.6" y="0.0" name="_bottom"/>
  <anchor x="224.6" y="-205.6" name="bottom"/>
  <outline>
    <contour>
      <point x="326.6" y="-205.6" type="curve" smooth="yes"/>
      <point x="367.8" y="-205.6"/>
      <point x="401.0" y="-172.8"/>
      <point x="401.0" y="-128.8" type="curve" smooth="yes"/>
      <point x="401.0" y="-97.6"/>
      <point x="381.8" y="-76.0"/>
      <point x="344.2" y="-76.0" type="curve" smooth="yes"/>
      <point x="303.0" y="-76.0"/>
      <point x="269.8" y="-108.8"/>
      <point x="269.8" y="-152.8" type="curve" smooth="yes"/>
      <point x="269.8" y="-184.0"/>
      <point x="289.0" y="-205.6"/>
    </contour>
    <contour>
      <point x="130.6" y="-205.6" type="curve" smooth="yes"/>
      <point x="171.8" y="-205.6"/>
      <point x="205.0" y="-172.8"/>
      <point x="205.0" y="-128.8" type="curve" smooth="yes"/>
      <point x="205.0" y="-97.6"/>
      <point x="185.8" y="-76.0"/>
      <point x="148.2" y="-76.0" type="curve" smooth="yes"/>
      <point x="107.0" y="-76.0"/>
      <point x="73.8" y="-108.8"/>
      <point x="73.8" y="-152.8" type="curve" smooth="yes"/>
      <point x="73.8" y="-184.0"/>
      <point x="93.0" y="-205.6"/>
    </contour>
  </outline>
</glyph>
<glyph name="commaaccentcomb" format="2">
  <unicode hex="0326"/>
  <note>
commaaccent
</note>
  <anchor x="264.2" y="0.0" name="_bottom"/>
  <anchor x="211.6" y="-245.6" name="bottom"/>
  <outline>
    <contour>
      <point x="214.8" y="-157.6" type="curve"/>
      <point x="153.2" y="-240.4" type="line"/>
      <point x="153.2" y="-245.6" type="line"/>
      <point x="226.8" y="-245.6" type="line"/>
      <point x="274.8" y="-180.8" type="line" smooth="yes"/>
      <point x="288.4" y="-162.6"/>
      <point x="312.4" y="-132.8"/>
      <point x="312.4" y="-99.2" type="curve" smooth="yes"/>
      <point x="312.4" y="-68.8"/>
      <point x="290.2" y="-47.2"/>
      <point x="258.8" y="-47.2" type="curve" smooth="yes"/>
      <point x="219.8" y="-47.2"/>
      <point x="187.6" y="-72.6"/>
      <point x="187.6" y="-115.2" type="curve" smooth="yes"/>
      <point x="187.6" y="-137.6"/>
      <point x="202.2" y="-152.0"/>
    </contour>
  </outline>
</glyph>
<glyph name="cedillacomb" format="2">
  <unicode hex="0327"/>
  <note>
cedilla
</note>
  <anchor x="265.0" y="0.0" name="_bottom"/>
  <anchor x="216.6" y="-249.6" name="bottom"/>
  <outline>
    <contour>
      <point x="149.6" y="-164.8" type="curve"/>
      <point x="145.6" y="-164.8" type="line"/>
      <point x="133.6" y="-235.2" type="line"/>
      <point x="157.2" y="-244.4"/>
      <point x="185.6" y="-249.6"/>
      <point x="224.0" y="-249.6" type="curve" smooth="yes"/>
      <point x="303.2" y="-249.6"/>
      <point x="380.0" y="-217.8"/>
      <point x="380.0" y="-130.4" type="curve" smooth="yes"/>
      <point x="380.0" y="-83.2"/>
      <point x="346.4" y="-45.8"/>
      <point x="290.8" y="-36.8" type="curve"/>
      <point x="304.4" y="24.0" type="line"/>
      <point x="236.0" y="24.0" type="line"/>
      <point x="208.0" y="-92.0" type="line"/>
      <point x="268.0" y="-92.0"/>
      <point x="296.8" y="-106.4"/>
      <point x="296.8" y="-134.4" type="curve" smooth="yes"/>
      <point x="296.8" y="-163.2"/>
      <point x="276.6" y="-179.2"/>
      <point x="225.6" y="-179.2" type="curve" smooth="yes"/>
      <point x="195.2" y="-179.2"/>
      <point x="173.2" y="-175.2"/>
    </contour>
  </outline>
</glyph>
